{
.appVersion = "1350";
classes = (
{
code = "kasratan-ar kasra-ar";
name = Kasra;
},
{
code = "kasratan-ar.alt kasra-ar.alt";
name = Kasra.alt;
},
{
code = "dotbelow-ar twodotshorizontalbelow-ar";
name = Dots;
},
{
code = "@Dots @Kasra";
name = Filter;
}
);
customParameters = (
{
name = description;
value = "Mada is a geometric, unmodulted Arabic display typeface inspired by Cairo road signage.";
},
{
name = license;
value = "This Font Software is licensed under the SIL Open Font License, Version 1.1. This license is available with a FAQ at: http://scripts.sil.org/OFL";
},
{
name = licenseURL;
value = "http://scripts.sil.org/OFL";
},
{
name = openTypeNameSampleText;
value = "صف خلق خود كمثل ٱلشمس إذ بزغت يحظى ٱلضجيع بها نجلاء معطار.";
},
{
name = fsType;
value = (
);
},
{
name = vendorID;
value = ALIF;
},
{
name = "Use Typo Metrics";
value = 1;
},
{
name = "Disable Last Change";
value = 1;
},
{
name = "Use Line Breaks";
value = 1;
},
{
name = "Variable Font Origin";
value = master01;
}
);
date = "2015-10-10 14:55:59 +0000";
designer = "Khaled Hosny";
disablesAutomaticAlignment = 1;
familyName = Mada;
featurePrefixes = (
{
code = "languagesystem arab dflt;
#languagesystem arab ARA;
#languagesystem arab FAR;
languagesystem arab URD;
languagesystem arab KSH;
languagesystem arab SND;

";
name = Languagesystems;
},
{
code = "lookup LamAlef {
  sub lam-ar.init by lam-ar.init.1;
  sub lam-ar.medi by lam-ar.medi.1;
  sub alef-ar.fina by alef-ar.fina.1;
} LamAlef;

lookup ss03_l {
  sub @Kasra by @Kasra.alt;
  sub shadda-ar by shadda-ar.alt;
} ss03_l;

# ss01 is generated by code";
name = Prefix;
}
);
features = (
{
code = " lookupflag IgnoreMarks;
  script arab;

  language URD  exclude_dflt;
    sub four-persian by four-persian.urdu;
    sub six-persian by six-ar;
    sub seven-persian by seven-persian.urdu;

  language KSH  exclude_dflt;
    sub four-persian by four-persian.urdu;
    sub six-persian by six-ar;
    sub seven-persian by seven-persian.urdu;


glyphs = (
{
glyphname = "hamza-ar";
layers = (
{
anchors = (
{
name = dotAbove;
position = "{242, 326}";
},
{
name = dotBelow;
position = "{170, -86}";
},
{
name = markAbove;
position = "{242, 363}";
},
{
name = markBelow;
position = "{170, -113}";
}
);
layerId = master01;
paths = (
{
closed = 1;
nodes = (
"335 147 LINE",
"241 147 LINE",
"273 78 LINE SMOOTH",
"279 65 OFFCURVE",
"292 43 OFFCURVE",
"276 21 CURVE SMOOTH",
"262 2 OFFCURVE",
"238 0 OFFCURVE",
"227 0 CURVE SMOOTH",
"81 0 LINE",
"81 79 LINE",
"186 79 LINE",
"154 146 LINE SMOOTH",
"153.611 146.814 OFFCURVE",
"135 179 OFFCURVE",
"152 203 CURVE SMOOTH",
"160 215 OFFCURVE",
"178 225 OFFCURVE",
"204 225 CURVE SMOOTH",
"335 225 LINE"
);
}
);
width = 416;
},
{
anchors = (
{
name = dotAbove;
position = "{156, 243}";
},
{
name = dotBelow;
position = "{116, -80}";
},
{
name = markAbove;
position = "{156, 281}";
},
{
name = markBelow;
position = "{116, -100}";
}
);
layerId = "0CAB57D4-4FC4-49C3-B456-FB7666EAA712";
paths = (
{
closed = 1;
nodes = (
"232 111 LINE",
"138.757 111 LINE",
"172.543 39.675 LINE SMOOTH",
"175.312 33.442 OFFCURVE",
"182.667 21.333 OFFCURVE",
"174.333 9.317 CURVE SMOOTH",
"168.958 1.566 OFFCURVE",
"157.202 0 OFFCURVE",
"151 0 CURVE SMOOTH",
"40 0 LINE",
"40 32 LINE",
"140.77 32 LINE",
"107.457 102.325 LINE SMOOTH",
"107.133 103.056 OFFCURVE",
"96.371 122.45 OFFCURVE",
"107.563 134.5 CURVE SMOOTH",
"112.677 140.006 OFFCURVE",
"122.542 143 OFFCURVE",
"133 143 CURVE SMOOTH",
"232 143 LINE"
);
}
);
width = 272;
},
{
anchors = (
{
name = dotAbove;
position = "{350, 493}";
},
{
name = dotBelow;
position = "{240, -120}";
},
{
name = markAbove;
position = "{350, 541}";
},
{
name = markBelow;
position = "{240, -155}";
}
);
layerId = "42B3044F-4D5A-45CA-9EB7-C1889731596B";
paths = (
{
closed = 1;
nodes = (
"451.248 190.717 LINE",
"382.479 190.717 LINE",
"401.432 150.53 LINE SMOOTH",
"407.553 135.682 OFFCURVE",
"432.41 93.97 OFFCURVE",
"403.17 48.555 CURVE SMOOTH",
"377.654 8.921 OFFCURVE",
"321.266 -0.542 OFFCURVE",
"309.254 -0.245 CURVE SMOOTH",
"120 -0.245 LINE",
"120 171.755 LINE",
"201.253 171.755 LINE",
"182.98 210.505 LINE",
"182.98 210.505 OFFCURVE",
"141.488 280.076 OFFCURVE",
"187.857 327.891 CURVE SMOOTH",
"205.104 345.671 OFFCURVE",
"238.045 362.717 OFFCURVE",
"279.5 362.717 CURVE SMOOTH",
"451.248 362.717 LINE"
);
}
);
width = 571;
}
);
unicode = 0621;
},
{
glyphname = "alef-ar";
layers = (
{
anchors = (
{
name = dotAbove;
position = "{99, 664}";
},
{
name = dotBelow;
position = "{99, -29}";
},
{
name = hamzaAbove;
position = "{99, 664}";
},
{
name = hamzaBelow;
position = "{99, -29}";
},
{
name = kafAbove;
position = "{99, 664}";
},
{
name = markAbove;
position = "{99, 701}";
},
{
name = markBelow;
position = "{99, -53}";
}
);
layerId = master01;
paths = (
{
closed = 1;
nodes = (
"139 624 LINE",
"139 82 LINE SMOOTH",
"139 37 OFFCURVE",
"111 0 OFFCURVE",
"61 0 CURVE",
"61 624 LINE"
);
}
);
width = 200;
},
{
anchors = (
{
name = dotAbove;
position = "{96, 664}";
},
{
name = dotBelow;
position = "{96, -29}";
},
{
name = hamzaAbove;
position = "{96, 664}";
},
{
name = hamzaBelow;
position = "{96, -29}";
},
{
name = kafAbove;
position = "{96, 664}";
},
{
name = markAbove;
position = "{96, 702}";
},
{
name = markBelow;
position = "{96, -58}";
}
);
layerId = "0CAB57D4-4FC4-49C3-B456-FB7666EAA712";
paths = (
{
closed = 1;
nodes = (
"112 624 LINE",
"112 33 LINE SMOOTH",
"112 19 OFFCURVE",
"101 1 OFFCURVE",
"80 1 CURVE",
"80 624 LINE"
);
}
);
width = 192;
},
{
anchors = (
{
name = dotAbove;
position = "{136, 684}";
},
{
name = dotBelow;
position = "{136, -49}";
},
{
name = hamzaAbove;
position = "{136, 684}";
},
{
name = hamzaBelow;
position = "{136, -49}";
},
{
name = kafAbove;
position = "{136, 684}";
},
{
name = markAbove;
position = "{136, 732}";
},
{
name = markBelow;
position = "{136, -74}";
}
);
layerId = "42B3044F-4D5A-45CA-9EB7-C1889731596B";
paths = (
{
closed = 1;
nodes = (
"232 624 LINE",
"232 193 LINE SMOOTH",
"232 96 OFFCURVE",
"185 1 OFFCURVE",
"60 1 CURVE",
"60 624 LINE"
);
}
);
width = 292;
}
);
unicode = 0627;
},
{
glyphname = "alef-ar.fina.1";
production = uni0627.fina.1;
layers = (
{
anchors = (
{
name = dotAbove;
position = "{108, 723}";
},
{
name = dotBelow;
position = "{92, -99}";
},
{
name = hamzaAbove;
position = "{108, 723}";
},
{
name = hamzaBelow;
position = "{92, -99}";
},
{
name = kafAbove;
position = "{108, 723}";
},
{
name = markAbove;
position = "{108, 760}";
},
{
name = markBelow;
position = "{92, -126}";
}
);
layerId = master01;
paths = (
{
closed = 1;
nodes = (
"209 239 LINE",
"209 140 OFFCURVE",
"130 93 OFFCURVE",
"77 66 CURVE",
"138 66 LINE",
"217 107 OFFCURVE",
"271 163 OFFCURVE",
"284 214 CURVE SMOOTH",
"287 226 OFFCURVE",
"290 240 OFFCURVE",
"286 254 CURVE",
"160 657 LINE",
"85 635 LINE"
);
}
);
width = 213;
},
{
anchors = (
{
name = dotAbove;
position = "{110, 697}";
},
{
name = dotBelow;
position = "{100, -100}";
},
{
name = hamzaAbove;
position = "{110, 697}";
},
{
name = hamzaBelow;
position = "{100, -100}";
},
{
name = kafAbove;
position = "{110, 697}";
},
{
name = markAbove;
position = "{110, 735}";
},
{
name = markBelow;
position = "{100, -120}";
}
);
layerId = "0CAB57D4-4FC4-49C3-B456-FB7666EAA712";
paths = (
{
closed = 1;
nodes = (
"260.002 196.847 LINE",
"257 104 OFFCURVE",
"132 39 OFFCURVE",
"107 25 CURVE",
"129 25 LINE",
"204 58 OFFCURVE",
"276 122 OFFCURVE",
"287.779 177.827 CURVE SMOOTH",
"289.727 187.062 OFFCURVE",
"291 201 OFFCURVE",
"289.606 206.206 CURVE",
"136 647 LINE",
"106 639 LINE"
);
}
);
width = 200;
},
{
associatedMasterId = "0CAB57D4-4FC4-49C3-B456-FB7666EAA712";
layerId = "0E5D1CE5-F3A7-4D63-B290-040438F41692";
name = Back;
paths = (
{
closed = 1;
nodes = (
"322 624 LINE",
"322 71 LINE SMOOTH",
"322 31 OFFCURVE",
"292 1 OFFCURVE",
"255 1 CURVE SMOOTH",
"40 1 LINE",
"40 33 LINE",
"255 33 LINE SMOOTH",
"274 33 OFFCURVE",
"290 47 OFFCURVE",
"290 71 CURVE SMOOTH",
"290 624 LINE"
);
}
);
width = 0;
},
{
anchors = (
{
name = dotAbove;
position = "{120, 738}";
},
{
name = dotBelow;
position = "{100, -99}";
},
{
name = hamzaAbove;
position = "{120, 738}";
},
{
name = hamzaBelow;
position = "{100, -99}";
},
{
name = kafAbove;
position = "{120, 738}";
},
{
name = markAbove;
position = "{120, 786}";
},
{
name = markBelow;
position = "{100, -134}";
}
);
layerId = "42B3044F-4D5A-45CA-9EB7-C1889731596B";
paths = (
{
closed = 1;
nodes = (
"199.075 241.022 LINE",
"185.677 176.236 OFFCURVE",
"139.909 151.132 OFFCURVE",
"84 124 CURVE",
"194 124 LINE",
"280.529 147.26 OFFCURVE",
"343.685 189.566 OFFCURVE",
"360.914 270.247 CURVE SMOOTH",
"362.203 276.281 OFFCURVE",
"364 295 OFFCURVE",
"358.322 308.529 CURVE",
"248 688 LINE",
"83 640 LINE"
);
}
);
width = 270;
},
{
associatedMasterId = "42B3044F-4D5A-45CA-9EB7-C1889731596B";
layerId = "187B6C6B-A6CD-4522-B91C-58C6AA01A033";
name = Back;
paths = (
{
closed = 1;
nodes = (
"533.558 624 LINE",
"533.558 138 LINE SMOOTH",
"533.558 62 OFFCURVE",
"470.558 0 OFFCURVE",
"394.558 0 CURVE SMOOTH",
"61.558 0 LINE",
"61.558 172 LINE",
"381.558 172 LINE",
"361.558 152 LINE",
"361.558 624 LINE"
);
}
);
width = 0;
}
);
},
{
glyphname = "alef-ar.fina.1.short";
production = uni0627.fina.1.short;
layers = (
{
anchors = (
{
name = hamzaAbove;
position = "{150, 457}";
},
{
name = markBelow;
position = "{92, -126}";
}
);
layerId = master01;
paths = (
{
closed = 1;
nodes = (
"181 502 LINE",
"286 254 LINE",
"290 240 OFFCURVE",
"287 226 OFFCURVE",
"284 214 CURVE SMOOTH",
"271 163 OFFCURVE",
"217 107 OFFCURVE",
"138 66 CURVE",
"77 66 LINE",
"130 93 OFFCURVE",
"209 140 OFFCURVE",
"209 239 CURVE",
"108 476 LINE"
);
}
);
width = 212.92792;
},
{
anchors = (
{
name = hamzaAbove;
position = "{158, 481}";
},
{
name = markBelow;
position = "{100, -120}";
}
);
layerId = "0CAB57D4-4FC4-49C3-B456-FB7666EAA712";
paths = (
{
closed = 1;
nodes = (
"189 495 LINE",
"290 206 LINE",
"291 201 OFFCURVE",
"290 187 OFFCURVE",
"288 178 CURVE SMOOTH",
"276 122 OFFCURVE",
"204 58 OFFCURVE",
"129 25 CURVE",
"107 25 LINE",
"132 39 OFFCURVE",
"257 104 OFFCURVE",
"260 197 CURVE",
"160 485 LINE"
);
}
);
width = 200.19456;
},
{
anchors = (
{
name = hamzaAbove;
position = "{206, 412}";
},
{
name = markBelow;
position = "{100, -134}";
}
);
layerId = "42B3044F-4D5A-45CA-9EB7-C1889731596B";
paths = (
{
closed = 1;
nodes = (
"311 470 LINE",
"358 309 LINE",
"364 295 OFFCURVE",
"362 276 OFFCURVE",
"361 270 CURVE SMOOTH",
"344 190 OFFCURVE",
"281 147 OFFCURVE",
"194 124 CURVE",
"84 124 LINE",
"140 151 OFFCURVE",
"186 176 OFFCURVE",
"199 241 CURVE",
"148 416 LINE"
);
}
);
width = 270.2394;
}
);
},
{
glyphname = "alef-ar.short";
production = uni0627.short;
layers = (
{
anchors = (
{
name = hamzaAbove;
position = "{99, 457}";
},
{
name = markBelow;
position = "{99, -53}";
}
);
layerId = master01;
paths = (
{
closed = 1;
nodes = (
"139 457 LINE",
"139 82 LINE SMOOTH",
"139 37 OFFCURVE",
"111 0 OFFCURVE",
"61 0 CURVE",
"61 457 LINE"
);
}
);
width = 200;
},
{
anchors = (
{
name = hamzaAbove;
position = "{96, 481}";
},
{
name = markBelow;
position = "{96, -58}";
}
);
layerId = "0CAB57D4-4FC4-49C3-B456-FB7666EAA712";
paths = (
{
closed = 1;
nodes = (
"112 481 LINE",
"112 33 LINE SMOOTH",
"112 19 OFFCURVE",
"101 1 OFFCURVE",
"80 1 CURVE",
"80 481 LINE"
);
}
);
width = 192;
},
{
anchors = (
{
name = hamzaAbove;
position = "{136, 412}";
},
{
name = markBelow;
position = "{136, -74}";
}
);
layerId = "42B3044F-4D5A-45CA-9EB7-C1889731596B";
paths = (
{
closed = 1;
nodes = (
"232 413 LINE",
"232 193 LINE SMOOTH",
"232 96 OFFCURVE",
"185 1 OFFCURVE",
"60 1 CURVE",
"60 413 LINE"
);
}
);
width = 292;
}
);
},
{
glyphname = "alef-ar.fina.short";
production = uni0627.fina.short;
layers = (
{
anchors = (
{
name = hamzaAbove;
position = "{97, 457}";
},
{
name = markBelow;
position = "{117, -53}";
}
);
layerId = master01;
paths = (
{
closed = 1;
nodes = (
"125 69 LINE",
"121.85 72.5 OFFCURVE",
"119.15 75.5 OFFCURVE",
"116 79 CURVE",
"273 79 LINE",
"273 0 LINE",
"139 0 LINE SMOOTH",
"86 0 OFFCURVE",
"46 41 OFFCURVE",
"46 92 CURVE SMOOTH",
"46 457 LINE",
"125 457 LINE"
);
}
);
width = 257;
},
{
anchors = (
{
name = hamzaAbove;
position = "{56, 481}";
},
{
name = markBelow;
position = "{56, -58}";
}
);
layerId = "0CAB57D4-4FC4-49C3-B456-FB7666EAA712";
paths = (
{
closed = 1;
nodes = (
"72 70 LINE SMOOTH",
"72 50 OFFCURVE",
"85 32 OFFCURVE",
"109 32 CURVE SMOOTH",
"206 32 LINE",
"206 0 LINE",
"109 0 LINE SMOOTH",
"65 0 OFFCURVE",
"40 36 OFFCURVE",
"40 70 CURVE SMOOTH",
"40 481 LINE",
"72 481 LINE"
);
}
);
width = 196;
},
{
anchors = (
{
name = hamzaAbove;
position = "{136, 412}";
},
{
name = markBelow;
position = "{186, -74}";
}
);
layerId = "42B3044F-4D5A-45CA-9EB7-C1889731596B";
paths = (
{
closed = 1;
nodes = (
"232 152.185 LINE",
"225 159.12 OFFCURVE",
"219 165.065 OFFCURVE",
"212 172 CURVE",
"380 172 LINE",
"380 0 LINE",
"199 0 LINE SMOOTH",
"123 0 OFFCURVE",
"60 62 OFFCURVE",
"60 138 CURVE SMOOTH",
"60 412 LINE",
"232 412 LINE"
);
}
);
width = 360;
}
);
},
{
color = 0;
glyphname = "alefHamzaabove-ar";
layers = (
{
layerId = master01;
paths = (
{
closed = 1;
nodes = (
"0 800 LINE",
"1000 800 LINE",
"1000 -200 LINE",
"0 -200 LINE"
);
}
);
width = 1000;
},
{
layerId = "0CAB57D4-4FC4-49C3-B456-FB7666EAA712";
paths = (
{
closed = 1;
nodes = (
"0 800 LINE",
"1000 800 LINE",
"1000 -200 LINE",
"0 -200 LINE"
);
}
);
width = 1000;
},
{
layerId = "42B3044F-4D5A-45CA-9EB7-C1889731596B";
paths = (
{
closed = 1;
nodes = (
"0 800 LINE",
"1000 800 LINE",
"1000 -200 LINE",
"0 -200 LINE"
);
}
);
width = 1000;
}
);
unicode = 0623;
},
{
color = 0;
glyphname = "alefHamzabelow-ar";
layers = (
{
layerId = master01;
paths = (
{
closed = 1;
nodes = (
"0 800 LINE",
"1000 800 LINE",
"1000 -200 LINE",
"0 -200 LINE"
);
}
);
width = 1000;
},
{
layerId = "0CAB57D4-4FC4-49C3-B456-FB7666EAA712";
paths = (
{
closed = 1;
nodes = (
"0 800 LINE",
"1000 800 LINE",
"1000 -200 LINE",
"0 -200 LINE"
);
}
);
width = 1000;
},
{
layerId = "42B3044F-4D5A-45CA-9EB7-C1889731596B";
paths = (
{
closed = 1;
nodes = (
"0 800 LINE",
"1000 800 LINE",
"1000 -200 LINE",
"0 -200 LINE"
);
}
);
width = 1000;
}
);
unicode = 0625;
},
{
color = 0;
glyphname = "alefWavyhamzaabove-ar";
layers = (
{
layerId = master01;
paths = (
{
closed = 1;
nodes = (
"0 800 LINE",
"1000 800 LINE",
"1000 -200 LINE",
"0 -200 LINE"
);
}
);
width = 1000;
},
{
layerId = "0CAB57D4-4FC4-49C3-B456-FB7666EAA712";
paths = (
{
closed = 1;
nodes = (
"0 800 LINE",
"1000 800 LINE",
"1000 -200 LINE",
"0 -200 LINE"
);
}
);
width = 1000;
},
{
layerId = "42B3044F-4D5A-45CA-9EB7-C1889731596B";
paths = (
{
closed = 1;
nodes = (
"0 800 LINE",
"1000 800 LINE",
"1000 -200 LINE",
"0 -200 LINE"
);
}
);
width = 1000;
}
);
unicode = 0672;
},
{
color = 0;
glyphname = "alefWavyhamzabelow-ar";
layers = (
{
layerId = master01;
paths = (
{
closed = 1;
nodes = (
"0 800 LINE",
"1000 800 LINE",
"1000 -200 LINE",
"0 -200 LINE"
);
}
);
width = 1000;
},
{
layerId = "0CAB57D4-4FC4-49C3-B456-FB7666EAA712";
paths = (
{
closed = 1;
nodes = (
"0 800 LINE",
"1000 800 LINE",
"1000 -200 LINE",
"0 -200 LINE"
);
}
);
width = 1000;
},
{
layerId = "42B3044F-4D5A-45CA-9EB7-C1889731596B";
paths = (
{
closed = 1;
nodes = (
"0 800 LINE",
"1000 800 LINE",
"1000 -200 LINE",
"0 -200 LINE"
);
}
);
width = 1000;
}
);
unicode = 0673;
},
{
color = 0;
glyphname = "alefMadda-ar";
layers = (
{
layerId = master01;
paths = (
{
closed = 1;
nodes = (
"0 800 LINE",
"1000 800 LINE",
"1000 -200 LINE",
"0 -200 LINE"
);
}
);
width = 1000;
},
{
layerId = "0CAB57D4-4FC4-49C3-B456-FB7666EAA712";
paths = (
{
closed = 1;
nodes = (
"0 800 LINE",
"1000 800 LINE",
"1000 -200 LINE",
"0 -200 LINE"
);
}
);
width = 1000;
},
{
layerId = "42B3044F-4D5A-45CA-9EB7-C1889731596B";
paths = (
{
closed = 1;
nodes = (
"0 800 LINE",
"1000 800 LINE",
"1000 -200 LINE",
"0 -200 LINE"
);
}
);
width = 1000;
}
);
unicode = 0622;
},
{
color = 0;
glyphname = "alefWasla-ar";
layers = (
{
layerId = master01;
paths = (
{
closed = 1;
nodes = (
"0 800 LINE",
"1000 800 LINE",
"1000 -200 LINE",
"0 -200 LINE"
);
}
);
width = 1000;
},
{
layerId = "0CAB57D4-4FC4-49C3-B456-FB7666EAA712";
paths = (
{
closed = 1;
nodes = (
"0 800 LINE",
"1000 800 LINE",
"1000 -200 LINE",
"0 -200 LINE"
);
}
);
width = 1000;
},
{
layerId = "42B3044F-4D5A-45CA-9EB7-C1889731596B";
paths = (
{
closed = 1;
nodes = (
"0 800 LINE",
"1000 800 LINE",
"1000 -200 LINE",
"0 -200 LINE"
);
}
);
width = 1000;
}
);
unicode = 0671;
},
{
color = 0;
glyphname = "highhamzaAlef-ar";
layers = (
{
layerId = master01;
paths = (
{
closed = 1;
nodes = (
"0 800 LINE",
"1000 800 LINE",
"1000 -200 LINE",
"0 -200 LINE"
);
}
);
width = 1000;
},
{
layerId = "0CAB57D4-4FC4-49C3-B456-FB7666EAA712";
paths = (
{
closed = 1;
nodes = (
"0 800 LINE",
"1000 800 LINE",
"1000 -200 LINE",
"0 -200 LINE"
);
}
);
width = 1000;
},
{
layerId = "42B3044F-4D5A-45CA-9EB7-C1889731596B";
paths = (
{
closed = 1;
nodes = (
"0 800 LINE",
"1000 800 LINE",
"1000 -200 LINE",
"0 -200 LINE"
);
}
);
width = 1000;
}
);
unicode = 0675;
},
{
glyphname = "behDotless-ar";
layers = (
{
anchors = (
{
name = dotAbove;
position = "{366, 394}";
},
{
name = dotBelow;
position = "{386, -149}";
},
{
name = hamzaAbove;
position = "{366, 431}";
},
{
name = hamzaBelow;
position = "{386, -149}";
},
{
name = markAbove;
position = "{366, 431}";
},
{
name = markBelow;
position = "{386, -176}";
},
{
name = ringBelow;
position = "{386, 0}";
}
);
layerId = master01;
paths = (
{
closed = 1;
nodes = (
"687 287 LINE",
"687 92 LINE SMOOTH",
"687 42 OFFCURVE",
"645 0 OFFCURVE",
"596 0 CURVE SMOOTH",
"204 0 LINE SMOOTH",
"123 0 OFFCURVE",
"46 61 OFFCURVE",
"46 147 CURVE SMOOTH",
"46 287 LINE",
"125 287 LINE",
"125 147 LINE SMOOTH",
"125 112 OFFCURVE",
"159 79 OFFCURVE",
"204 79 CURVE SMOOTH",
"618 79 LINE",
"614.5 75.5 OFFCURVE",
"611.5 72.5 OFFCURVE",
"608 69 CURVE",
"608 287 LINE"
);
}
);
width = 733;
},
{
anchors = (
{
name = dotAbove;
position = "{337, 393}";
},
{
name = dotBelow;
position = "{357, -150}";
},
{
name = hamzaAbove;
position = "{337, 393}";
},
{
name = hamzaBelow;
position = "{357, -150}";
},
{
name = markAbove;
position = "{337, 430}";
},
{
name = markBelow;
position = "{357, -170}";
},
{
name = ringBelow;
position = "{357, 0}";
}
);
layerId = "0CAB57D4-4FC4-49C3-B456-FB7666EAA712";
paths = (
{
closed = 1;
nodes = (
"634 263 LINE",
"634 68 LINE SMOOTH",
"634 32 OFFCURVE",
"600 0 OFFCURVE",
"566 0 CURVE SMOOTH",
"174 0 LINE SMOOTH",
"104 0 OFFCURVE",
"40 53 OFFCURVE",
"40 123 CURVE SMOOTH",
"40 263 LINE",
"72 263 LINE",
"72 123 LINE SMOOTH",
"72 73 OFFCURVE",
"118 32 OFFCURVE",
"174 32 CURVE SMOOTH",
"566 32 LINE SMOOTH",
"582 32 OFFCURVE",
"602 52 OFFCURVE",
"602 68 CURVE SMOOTH",
"602 263 LINE"
);
}
);
width = 674;
},
{
anchors = (
{
name = dotAbove;
position = "{427, 453}";
},
{
name = dotBelow;
position = "{447, -160}";
},
{
name = hamzaAbove;
position = "{427, 453}";
},
{
name = hamzaBelow;
position = "{447, -160}";
},
{
name = markAbove;
position = "{427, 497}";
},
{
name = markBelow;
position = "{447, -195}";
},
{
name = ringBelow;
position = "{447, 0}";
}
);
layerId = "42B3044F-4D5A-45CA-9EB7-C1889731596B";
paths = (
{
closed = 1;
nodes = (
"794 333 LINE",
"794 138 LINE SMOOTH",
"794 61 OFFCURVE",
"733 0 OFFCURVE",
"656 0 CURVE SMOOTH",
"264 0 LINE SMOOTH",
"162 0 OFFCURVE",
"60 77 OFFCURVE",
"60 193 CURVE SMOOTH",
"60 333 LINE",
"232 333 LINE",
"232 193 LINE SMOOTH",
"232 189 OFFCURVE",
"240 172 OFFCURVE",
"264 172 CURVE SMOOTH",
"642 172 LINE",
"635 165 OFFCURVE",
"629 159 OFFCURVE",
"622 152 CURVE",
"622 333 LINE"
);
}
);
width = 854;
}
);
unicode = 066E;
},
{
glyphname = "behDotless-ar.init";
layers = (
{
anchors = (
{
name = dotAbove;
position = "{199, 491}";
},
{
name = dotBelow;
position = "{199, -149}";
},
{
name = hamzaAbove;
position = "{199, 491}";
},
{
name = hamzaBelow;
position = "{199, -149}";
},
{
name = kafAbove;
position = "{199, 491}";
},
{
name = markAbove;
position = "{199, 527}";
},
{
name = markBelow;
position = "{199, -176}";
},
{
name = ringBelow;
position = "{199, 0}";
}
);
layerId = master01;
paths = (
{
closed = 1;
nodes = (
"382 363 LINE",
"382 91 LINE SMOOTH",
"382 39 OFFCURVE",
"339 0 OFFCURVE",
"289 0 CURVE SMOOTH",
"0 0 LINE",
"0 79 LINE",
"312 79 LINE",
"308.85 75.15 OFFCURVE",
"306.15 71.85 OFFCURVE",
"303 68 CURVE",
"303 363 LINE"
);
}
);
width = 428;
},
{
anchors = (
{
name = dotAbove;
position = "{199, 490}";
},
{
name = dotBelow;
position = "{199, -150}";
},
{
name = hamzaAbove;
position = "{199, 490}";
},
{
name = hamzaBelow;
position = "{199, -150}";
},
{
name = kafAbove;
position = "{199, 490}";
},
{
name = markAbove;
position = "{199, 528}";
},
{
name = markBelow;
position = "{199, -170}";
},
{
name = ringBelow;
position = "{199, 0}";
}
);
layerId = "0CAB57D4-4FC4-49C3-B456-FB7666EAA712";
paths = (
{
closed = 1;
nodes = (
"358 340 LINE",
"358 67 LINE SMOOTH",
"358 29 OFFCURVE",
"328 0 OFFCURVE",
"289 0 CURVE SMOOTH",
"0 0 LINE",
"0 32 LINE",
"289 32 LINE SMOOTH",
"312 32 OFFCURVE",
"326 47 OFFCURVE",
"326 67 CURVE SMOOTH",
"326 340 LINE"
);
}
);
width = 398;
},
{
anchors = (
{
name = dotAbove;
position = "{234, 562}";
},
{
name = dotBelow;
position = "{229, -160}";
},
{
name = hamzaAbove;
position = "{234, 562}";
},
{
name = hamzaBelow;
position = "{229, -160}";
},
{
name = kafAbove;
position = "{234, 562}";
},
{
name = markAbove;
position = "{234, 610}";
},
{
name = markBelow;
position = "{229, -195}";
},
{
name = ringBelow;
position = "{229, 0}";
}
);
layerId = "42B3044F-4D5A-45CA-9EB7-C1889731596B";
paths = (
{
closed = 1;
nodes = (
"428 410 LINE",
"428 138 LINE SMOOTH",
"428 62 OFFCURVE",
"365 0 OFFCURVE",
"289 0 CURVE SMOOTH",
"0 0 LINE",
"0 172 LINE",
"276 172 LINE",
"269 165 OFFCURVE",
"263 159 OFFCURVE",
"256 152 CURVE",
"256 410 LINE"
);
}
);
width = 488;
}
);
},
{
color = 0;
glyphname = "beh-ar";
layers = (
{
layerId = master01;
paths = (
{
closed = 1;
nodes = (
"0 800 LINE",
"1000 800 LINE",
"1000 -200 LINE",
"0 -200 LINE"
);
}
);
width = 1000;
},
{
layerId = "0CAB57D4-4FC4-49C3-B456-FB7666EAA712";
paths = (
{
closed = 1;
nodes = (
"0 800 LINE",
"1000 800 LINE",
"1000 -200 LINE",
"0 -200 LINE"
);
}
);
width = 1000;
},
{
layerId = "42B3044F-4D5A-45CA-9EB7-C1889731596B";
paths = (
{
closed = 1;
nodes = (
"0 800 LINE",
"1000 800 LINE",
"1000 -200 LINE",
"0 -200 LINE"
);
}
);
width = 1000;
}
);
unicode = 0628;
},
{
color = 0;
glyphname = "peh-ar";
layers = (
{
layerId = master01;
paths = (
{
closed = 1;
nodes = (
"0 800 LINE",
"1000 800 LINE",
"1000 -200 LINE",
"0 -200 LINE"
);
}
);
width = 1000;
},
{
layerId = "0CAB57D4-4FC4-49C3-B456-FB7666EAA712";
paths = (
{
closed = 1;
nodes = (
"0 800 LINE",
"1000 800 LINE",
"1000 -200 LINE",
"0 -200 LINE"
);
}
);
width = 1000;
},
{
layerId = "42B3044F-4D5A-45CA-9EB7-C1889731596B";
paths = (
{
closed = 1;
nodes = (
"0 800 LINE",
"1000 800 LINE",
"1000 -200 LINE",
"0 -200 LINE"
);
}
);
width = 1000;
}
);
unicode = 067E;
},
{
color = 0;
glyphname = "beeh-ar";
layers = (
{
layerId = master01;
paths = (
{
closed = 1;
nodes = (
"0 800 LINE",
"1000 800 LINE",
"1000 -200 LINE",
"0 -200 LINE"
);
}
);
width = 1000;
},
{
layerId = "0CAB57D4-4FC4-49C3-B456-FB7666EAA712";
paths = (
{
closed = 1;
nodes = (
"0 800 LINE",
"1000 800 LINE",
"1000 -200 LINE",
"0 -200 LINE"
);
}
);
width = 1000;
},
{
layerId = "42B3044F-4D5A-45CA-9EB7-C1889731596B";
paths = (
{
closed = 1;
nodes = (
"0 800 LINE",
"1000 800 LINE",
"1000 -200 LINE",
"0 -200 LINE"
);
}
);
width = 1000;
}
);
unicode = 067B;
},
{
color = 0;
glyphname = "beheh-ar";
layers = (
{
layerId = master01;
paths = (
{
closed = 1;
nodes = (
"0 800 LINE",
"1000 800 LINE",
"1000 -200 LINE",
"0 -200 LINE"
);
}
);
width = 1000;
},
{
layerId = "0CAB57D4-4FC4-49C3-B456-FB7666EAA712";
paths = (
{
closed = 1;
nodes = (
"0 800 LINE",
"1000 800 LINE",
"1000 -200 LINE",
"0 -200 LINE"
);
}
);
width = 1000;
},
{
layerId = "42B3044F-4D5A-45CA-9EB7-C1889731596B";
paths = (
{
closed = 1;
nodes = (
"0 800 LINE",
"1000 800 LINE",
"1000 -200 LINE",
"0 -200 LINE"
);
}
);
width = 1000;
}
);
unicode = 0680;
},
{
color = 0;
glyphname = "teh-ar";
layers = (
{
layerId = master01;
paths = (
{
closed = 1;
nodes = (
"0 800 LINE",
"1000 800 LINE",
"1000 -200 LINE",
"0 -200 LINE"
);
}
);
width = 1000;
},
{
layerId = "0CAB57D4-4FC4-49C3-B456-FB7666EAA712";
paths = (
{
closed = 1;
nodes = (
"0 800 LINE",
"1000 800 LINE",
"1000 -200 LINE",
"0 -200 LINE"
);
}
);
width = 1000;
},
{
layerId = "42B3044F-4D5A-45CA-9EB7-C1889731596B";
paths = (
{
closed = 1;
nodes = (
"0 800 LINE",
"1000 800 LINE",
"1000 -200 LINE",
"0 -200 LINE"
);
}
);
width = 1000;
}
);
unicode = 062A;
},
{
color = 0;
glyphname = "tehRing-ar";
layers = (
{
layerId = master01;
paths = (
{
closed = 1;
nodes = (
"0 800 LINE",
"1000 800 LINE",
"1000 -200 LINE",
"0 -200 LINE"
);
}
);
width = 1000;
},
{
layerId = "0CAB57D4-4FC4-49C3-B456-FB7666EAA712";
paths = (
{
closed = 1;
nodes = (
"0 800 LINE",
"1000 800 LINE",
"1000 -200 LINE",
"0 -200 LINE"
);
}
);
width = 1000;
},
{
layerId = "42B3044F-4D5A-45CA-9EB7-C1889731596B";
paths = (
{
closed = 1;
nodes = (
"0 800 LINE",
"1000 800 LINE",
"1000 -200 LINE",
"0 -200 LINE"
);
}
);
width = 1000;
}
);
unicode = 067C;
},
{
color = 0;
glyphname = "tehThreedotsdown-ar";
layers = (
{
layerId = master01;
paths = (
{
closed = 1;
nodes = (
"0 800 LINE",
"1000 800 LINE",
"1000 -200 LINE",
"0 -200 LINE"
);
}
);
width = 1000;
},
{
layerId = "0CAB57D4-4FC4-49C3-B456-FB7666EAA712";
paths = (
{
closed = 1;
nodes = (
"0 800 LINE",
"1000 800 LINE",
"1000 -200 LINE",
"0 -200 LINE"
);
}
);
width = 1000;
},
{
layerId = "42B3044F-4D5A-45CA-9EB7-C1889731596B";
paths = (
{
closed = 1;
nodes = (
"0 800 LINE",
"1000 800 LINE",
"1000 -200 LINE",
"0 -200 LINE"
);
}
);
width = 1000;
}
);
unicode = 067D;
},
{
color = 0;
glyphname = "theh-ar";
layers = (
{
layerId = master01;
paths = (
{
closed = 1;
nodes = (
"0 800 LINE",
"1000 800 LINE",
"1000 -200 LINE",
"0 -200 LINE"
);
}
);
width = 1000;
},
{
layerId = "0CAB57D4-4FC4-49C3-B456-FB7666EAA712";
paths = (
{
closed = 1;
nodes = (
"0 800 LINE",
"1000 800 LINE",
"1000 -200 LINE",
"0 -200 LINE"
);
}
);
width = 1000;
},
{
layerId = "42B3044F-4D5A-45CA-9EB7-C1889731596B";
paths = (
{
closed = 1;
nodes = (
"0 800 LINE",
"1000 800 LINE",
"1000 -200 LINE",
"0 -200 LINE"
);
}
);
width = 1000;
}
);
unicode = 062B;
},
{
color = 0;
glyphname = "tteh-ar";
layers = (
{
layerId = master01;
paths = (
{
closed = 1;
nodes = (
"0 800 LINE",
"1000 800 LINE",
"1000 -200 LINE",
"0 -200 LINE"
);
}
);
width = 1000;
},
{
layerId = "0CAB57D4-4FC4-49C3-B456-FB7666EAA712";
paths = (
{
closed = 1;
nodes = (
"0 800 LINE",
"1000 800 LINE",
"1000 -200 LINE",
"0 -200 LINE"
);
}
);
width = 1000;
},
{
layerId = "42B3044F-4D5A-45CA-9EB7-C1889731596B";
paths = (
{
closed = 1;
nodes = (
"0 800 LINE",
"1000 800 LINE",
"1000 -200 LINE",
"0 -200 LINE"
);
}
);
width = 1000;
}
);
unicode = 0679;
},
{
color = 0;
glyphname = "tteheh-ar";
layers = (
{
layerId = master01;
paths = (
{
closed = 1;
nodes = (
"0 800 LINE",
"1000 800 LINE",
"1000 -200 LINE",
"0 -200 LINE"
);
}
);
width = 1000;
},
{
layerId = "0CAB57D4-4FC4-49C3-B456-FB7666EAA712";
paths = (
{
closed = 1;
nodes = (
"0 800 LINE",
"1000 800 LINE",
"1000 -200 LINE",
"0 -200 LINE"
);
}
);
width = 1000;
},
{
layerId = "42B3044F-4D5A-45CA-9EB7-C1889731596B";
paths = (
{
closed = 1;
nodes = (
"0 800 LINE",
"1000 800 LINE",
"1000 -200 LINE",
"0 -200 LINE"
);
}
);
width = 1000;
}
);
unicode = 067A;
},
{
color = 0;
glyphname = "teheh-ar";
layers = (
{
layerId = master01;
paths = (
{
closed = 1;
nodes = (
"0 800 LINE",
"1000 800 LINE",
"1000 -200 LINE",
"0 -200 LINE"
);
}
);
width = 1000;
},
{
layerId = "0CAB57D4-4FC4-49C3-B456-FB7666EAA712";
paths = (
{
closed = 1;
nodes = (
"0 800 LINE",
"1000 800 LINE",
"1000 -200 LINE",
"0 -200 LINE"
);
}
);
width = 1000;
},
{
layerId = "42B3044F-4D5A-45CA-9EB7-C1889731596B";
paths = (
{
closed = 1;
nodes = (
"0 800 LINE",
"1000 800 LINE",
"1000 -200 LINE",
"0 -200 LINE"
);
}
);
width = 1000;
}
);
unicode = 067F;
},
{
color = 0;
glyphname = "behThreedotsupabove-ar";
layers = (
{
layerId = master01;
paths = (
{
closed = 1;
nodes = (
"0 800 LINE",
"1000 800 LINE",
"1000 -200 LINE",
"0 -200 LINE"
);
}
);
width = 1000;
},
{
layerId = "0CAB57D4-4FC4-49C3-B456-FB7666EAA712";
paths = (
{
closed = 1;
nodes = (
"0 800 LINE",
"1000 800 LINE",
"1000 -200 LINE",
"0 -200 LINE"
);
}
);
width = 1000;
},
{
layerId = "42B3044F-4D5A-45CA-9EB7-C1889731596B";
paths = (
{
closed = 1;
nodes = (
"0 800 LINE",
"1000 800 LINE",
"1000 -200 LINE",
"0 -200 LINE"
);
}
);
width = 1000;
}
);
unicode = 0751;
},
{
color = 0;
glyphname = "behThreedotsupbelow-ar";
layers = (
{
layerId = master01;
paths = (
{
closed = 1;
nodes = (
"0 800 LINE",
"1000 800 LINE",
"1000 -200 LINE",
"0 -200 LINE"
);
}
);
width = 1000;
},
{
layerId = "0CAB57D4-4FC4-49C3-B456-FB7666EAA712";
paths = (
{
closed = 1;
nodes = (
"0 800 LINE",
"1000 800 LINE",
"1000 -200 LINE",
"0 -200 LINE"
);
}
);
width = 1000;
},
{
layerId = "42B3044F-4D5A-45CA-9EB7-C1889731596B";
paths = (
{
closed = 1;
nodes = (
"0 800 LINE",
"1000 800 LINE",
"1000 -200 LINE",
"0 -200 LINE"
);
}
);
width = 1000;
}
);
unicode = 0752;
},
{
color = 0;
glyphname = "tehThreedotsupbelow-ar";
layers = (
{
layerId = master01;
paths = (
{
closed = 1;
nodes = (
"0 800 LINE",
"1000 800 LINE",
"1000 -200 LINE",
"0 -200 LINE"
);
}
);
width = 1000;
},
{
layerId = "0CAB57D4-4FC4-49C3-B456-FB7666EAA712";
paths = (
{
closed = 1;
nodes = (
"0 800 LINE",
"1000 800 LINE",
"1000 -200 LINE",
"0 -200 LINE"
);
}
);
width = 1000;
},
{
layerId = "42B3044F-4D5A-45CA-9EB7-C1889731596B";
paths = (
{
closed = 1;
nodes = (
"0 800 LINE",
"1000 800 LINE",
"1000 -200 LINE",
"0 -200 LINE"
);
}
);
width = 1000;
}
);
unicode = 0753;
},
{
color = 0;
glyphname = "behTwodotsbelowDotabove-ar";
layers = (
{
layerId = master01;
paths = (
{
closed = 1;
nodes = (
"0 800 LINE",
"1000 800 LINE",
"1000 -200 LINE",
"0 -200 LINE"
);
}
);
width = 1000;
},
{
layerId = "0CAB57D4-4FC4-49C3-B456-FB7666EAA712";
paths = (
{
closed = 1;
nodes = (
"0 800 LINE",
"1000 800 LINE",
"1000 -200 LINE",
"0 -200 LINE"
);
}
);
width = 1000;
},
{
layerId = "42B3044F-4D5A-45CA-9EB7-C1889731596B";
paths = (
{
closed = 1;
nodes = (
"0 800 LINE",
"1000 800 LINE",
"1000 -200 LINE",
"0 -200 LINE"
);
}
);
width = 1000;
}
);
unicode = 0754;
},
{
color = 0;
glyphname = "behVinvertedbelow-ar";
layers = (
{
layerId = master01;
paths = (
{
closed = 1;
nodes = (
"0 800 LINE",
"1000 800 LINE",
"1000 -200 LINE",
"0 -200 LINE"
);
}
);
width = 1000;
},
{
layerId = "0CAB57D4-4FC4-49C3-B456-FB7666EAA712";
paths = (
{
closed = 1;
nodes = (
"0 800 LINE",
"1000 800 LINE",
"1000 -200 LINE",
"0 -200 LINE"
);
}
);
width = 1000;
},
{
layerId = "42B3044F-4D5A-45CA-9EB7-C1889731596B";
paths = (
{
closed = 1;
nodes = (
"0 800 LINE",
"1000 800 LINE",
"1000 -200 LINE",
"0 -200 LINE"
);
}
);
width = 1000;
}
);
unicode = 0755;
},
{
color = 0;
glyphname = "behVabove-ar";
layers = (
{
layerId = master01;
paths = (
{
closed = 1;
nodes = (
"0 800 LINE",
"1000 800 LINE",
"1000 -200 LINE",
"0 -200 LINE"
);
}
);
width = 1000;
},
{
layerId = "0CAB57D4-4FC4-49C3-B456-FB7666EAA712";
paths = (
{
closed = 1;
nodes = (
"0 800 LINE",
"1000 800 LINE",
"1000 -200 LINE",
"0 -200 LINE"
);
}
);
width = 1000;
},
{
layerId = "42B3044F-4D5A-45CA-9EB7-C1889731596B";
paths = (
{
closed = 1;
nodes = (
"0 800 LINE",
"1000 800 LINE",
"1000 -200 LINE",
"0 -200 LINE"
);
}
);
width = 1000;
}
);
unicode = 0756;
},
{
color = 0;
glyphname = "behVbelow-ar";
layers = (
{
layerId = master01;
paths = (
{
closed = 1;
nodes = (
"0 800 LINE",
"1000 800 LINE",
"1000 -200 LINE",
"0 -200 LINE"
);
}
);
width = 1000;
},
{
layerId = "0CAB57D4-4FC4-49C3-B456-FB7666EAA712";
paths = (
{
closed = 1;
nodes = (
"0 800 LINE",
"1000 800 LINE",
"1000 -200 LINE",
"0 -200 LINE"
);
}
);
width = 1000;
},
{
layerId = "42B3044F-4D5A-45CA-9EB7-C1889731596B";
paths = (
{
closed = 1;
nodes = (
"0 800 LINE",
"1000 800 LINE",
"1000 -200 LINE",
"0 -200 LINE"
);
}
);
width = 1000;
}
);
unicode = 08A0;
},
{
color = 0;
glyphname = "behhamzaabove-ar";
layers = (
{
layerId = master01;
paths = (
{
closed = 1;
nodes = (
"0 800 LINE",
"1000 800 LINE",
"1000 -200 LINE",
"0 -200 LINE"
);
}
);
width = 1000;
},
{
layerId = "0CAB57D4-4FC4-49C3-B456-FB7666EAA712";
paths = (
{
closed = 1;
nodes = (
"0 800 LINE",
"1000 800 LINE",
"1000 -200 LINE",
"0 -200 LINE"
);
}
);
width = 1000;
},
{
layerId = "42B3044F-4D5A-45CA-9EB7-C1889731596B";
paths = (
{
closed = 1;
nodes = (
"0 800 LINE",
"1000 800 LINE",
"1000 -200 LINE",
"0 -200 LINE"
);
}
);
width = 1000;
}
);
unicode = 08A1;
},
{
color = 0;
glyphname = "jeem-ar";
layers = (
{
layerId = master01;
paths = (
{
closed = 1;
nodes = (
"0 800 LINE",
"1000 800 LINE",
"1000 -200 LINE",
"0 -200 LINE"
);
}
);
width = 1000;
},
{
layerId = "0CAB57D4-4FC4-49C3-B456-FB7666EAA712";
paths = (
{
closed = 1;
nodes = (
"0 800 LINE",
"1000 800 LINE",
"1000 -200 LINE",
"0 -200 LINE"
);
}
);
width = 1000;
},
{
layerId = "42B3044F-4D5A-45CA-9EB7-C1889731596B";
paths = (
{
closed = 1;
nodes = (
"0 800 LINE",
"1000 800 LINE",
"1000 -200 LINE",
"0 -200 LINE"
);
}
);
width = 1000;
}
);
unicode = 062C;
},
{
color = 0;
glyphname = "tcheh-ar";
layers = (
{
layerId = master01;
paths = (
{
closed = 1;
nodes = (
"0 800 LINE",
"1000 800 LINE",
"1000 -200 LINE",
"0 -200 LINE"
);
}
);
width = 1000;
},
{
layerId = "0CAB57D4-4FC4-49C3-B456-FB7666EAA712";
paths = (
{
closed = 1;
nodes = (
"0 800 LINE",
"1000 800 LINE",
"1000 -200 LINE",
"0 -200 LINE"
);
}
);
width = 1000;
},
{
layerId = "42B3044F-4D5A-45CA-9EB7-C1889731596B";
paths = (
{
closed = 1;
nodes = (
"0 800 LINE",
"1000 800 LINE",
"1000 -200 LINE",
"0 -200 LINE"
);
}
);
width = 1000;
}
);
unicode = 0686;
},
{
color = 0;
glyphname = "tcheheh-ar";
layers = (
{
layerId = master01;
paths = (
{
closed = 1;
nodes = (
"0 800 LINE",
"1000 800 LINE",
"1000 -200 LINE",
"0 -200 LINE"
);
}
);
width = 1000;
},
{
layerId = "0CAB57D4-4FC4-49C3-B456-FB7666EAA712";
paths = (
{
closed = 1;
nodes = (
"0 800 LINE",
"1000 800 LINE",
"1000 -200 LINE",
"0 -200 LINE"
);
}
);
width = 1000;
},
{
layerId = "42B3044F-4D5A-45CA-9EB7-C1889731596B";
paths = (
{
closed = 1;
nodes = (
"0 800 LINE",
"1000 800 LINE",
"1000 -200 LINE",
"0 -200 LINE"
);
}
);
width = 1000;
}
);
unicode = 0687;
},
{
color = 0;
glyphname = "tchehDotabove-ar";
layers = (
{
layerId = master01;
paths = (
{
closed = 1;
nodes = (
"0 800 LINE",
"1000 800 LINE",
"1000 -200 LINE",
"0 -200 LINE"
);
}
);
width = 1000;
},
{
layerId = "0CAB57D4-4FC4-49C3-B456-FB7666EAA712";
paths = (
{
closed = 1;
nodes = (
"0 800 LINE",
"1000 800 LINE",
"1000 -200 LINE",
"0 -200 LINE"
);
}
);
width = 1000;
},
{
layerId = "42B3044F-4D5A-45CA-9EB7-C1889731596B";
paths = (
{
closed = 1;
nodes = (
"0 800 LINE",
"1000 800 LINE",
"1000 -200 LINE",
"0 -200 LINE"
);
}
);
width = 1000;
}
);
unicode = 06BF;
},
{
color = 0;
glyphname = "nyeh-ar";
layers = (
{
layerId = master01;
paths = (
{
closed = 1;
nodes = (
"0 800 LINE",
"1000 800 LINE",
"1000 -200 LINE",
"0 -200 LINE"
);
}
);
width = 1000;
},
{
layerId = "0CAB57D4-4FC4-49C3-B456-FB7666EAA712";
paths = (
{
closed = 1;
nodes = (
"0 800 LINE",
"1000 800 LINE",
"1000 -200 LINE",
"0 -200 LINE"
);
}
);
width = 1000;
},
{
layerId = "42B3044F-4D5A-45CA-9EB7-C1889731596B";
paths = (
{
closed = 1;
nodes = (
"0 800 LINE",
"1000 800 LINE",
"1000 -200 LINE",
"0 -200 LINE"
);
}
);
width = 1000;
}
);
unicode = 0683;
},
{
color = 0;
glyphname = "dyeh-ar";
layers = (
{
layerId = master01;
paths = (
{
closed = 1;
nodes = (
"0 800 LINE",
"1000 800 LINE",
"1000 -200 LINE",
"0 -200 LINE"
);
}
);
width = 1000;
},
{
layerId = "0CAB57D4-4FC4-49C3-B456-FB7666EAA712";
paths = (
{
closed = 1;
nodes = (
"0 800 LINE",
"1000 800 LINE",
"1000 -200 LINE",
"0 -200 LINE"
);
}
);
width = 1000;
},
{
layerId = "42B3044F-4D5A-45CA-9EB7-C1889731596B";
paths = (
{
closed = 1;
nodes = (
"0 800 LINE",
"1000 800 LINE",
"1000 -200 LINE",
"0 -200 LINE"
);
}
);
width = 1000;
}
);
unicode = 0684;
},
{
glyphname = "hah-ar";
layers = (
{
anchors = (
{
name = dotAbove;
position = "{219, 511}";
},
{
name = dotBelow;
position = "{264, -17}";
},
{
name = hamzaAbove;
position = "{219, 511}";
},
{
name = markAbove;
position = "{219, 549}";
},
{
name = markBelow;
position = "{264, -243}";
}
);
layerId = master01;
paths = (
{
closed = 1;
nodes = (
"410 -200 LINE",
"169 -200 LINE SMOOTH",
"99 -200 OFFCURVE",
"46 -148 OFFCURVE",
"46 -80 CURVE SMOOTH",
"46 41 LINE SMOOTH",
"46 106 OFFCURVE",
"98 170 OFFCURVE",
"175 170 CURVE SMOOTH",
"354 170 LINE",
"337 175 OFFCURVE",
"324 187 OFFCURVE",
"313 199 CURVE SMOOTH",
"269 248 OFFCURVE",
"233 313 OFFCURVE",
"134 351 CURVE",
"163 424 LINE",
"286 378 OFFCURVE",
"338 289 OFFCURVE",
"372 252 CURVE SMOOTH",
"416 204 OFFCURVE",
"427 200 OFFCURVE",
"488 200 CURVE",
"488 161 LINE SMOOTH",
"488 141 OFFCURVE",
"473 91 OFFCURVE",
"422 91 CURVE SMOOTH",
"174 91 LINE SMOOTH",
"148 91 OFFCURVE",
"124 68 OFFCURVE",
"124 41 CURVE SMOOTH",
"124 -80 LINE SMOOTH",
"124 -105 OFFCURVE",
"140 -121 OFFCURVE",
"169 -121 CURVE SMOOTH",
"410 -121 LINE"
);
}
);
width = 535;
},
{
anchors = (
{
name = dotAbove;
position = "{158, 447}";
},
{
name = dotBelow;
position = "{248, -40}";
},
{
name = hamzaAbove;
position = "{158, 447}";
},
{
name = markAbove;
position = "{158, 484}";
},
{
name = markBelow;
position = "{248, -240}";
}
);
layerId = "0CAB57D4-4FC4-49C3-B456-FB7666EAA712";
paths = (
{
closed = 1;
nodes = (
"381 -200 LINE",
"140 -200 LINE SMOOTH",
"82.991 -200 OFFCURVE",
"40 -159 OFFCURVE",
"40 -104 CURVE SMOOTH",
"40 11 LINE SMOOTH",
"40 65 OFFCURVE",
"87 123 OFFCURVE",
"148 123 CURVE SMOOTH",
"401 123 LINE",
"359 132 OFFCURVE",
"328 162 OFFCURVE",
"301 191 CURVE SMOOTH",
"260 236 OFFCURVE",
"219 309 OFFCURVE",
"113 349 CURVE",
"125 379 LINE",
"241 335 OFFCURVE",
"288 254 OFFCURVE",
"325 213 CURVE SMOOTH",
"362 173 OFFCURVE",
"387 153 OFFCURVE",
"436 153 CURVE",
"436 137 LINE SMOOTH",
"436 124 OFFCURVE",
"424 91 OFFCURVE",
"393 91 CURVE SMOOTH",
"148 91 LINE SMOOTH",
"107 91 OFFCURVE",
"72 49 OFFCURVE",
"72 11 CURVE SMOOTH",
"72 -104 LINE SMOOTH",
"72 -141 OFFCURVE",
"99 -169 OFFCURVE",
"140 -168 CURVE SMOOTH",
"381 -168 LINE"
);
}
);
width = 476;
},
{
anchors = (
{
name = dotAbove;
position = "{348, 738}";
},
{
name = dotBelow;
position = "{338, 36}";
},
{
name = hamzaAbove;
position = "{348, 738}";
},
{
name = markAbove;
position = "{348, 786}";
},
{
name = markBelow;
position = "{338, -279}";
}
);
layerId = "42B3044F-4D5A-45CA-9EB7-C1889731596B";
paths = (
{
closed = 1;
nodes = (
"471 -230 LINE",
"231 -230 LINE SMOOTH",
"137 -230 OFFCURVE",
"60 -156 OFFCURVE",
"60 -63 CURVE SMOOTH",
"60 122 LINE SMOOTH",
"60 211 OFFCURVE",
"129 304 OFFCURVE",
"238 304 CURVE SMOOTH",
"332 304 LINE",
"326 311 OFFCURVE",
"320 318 OFFCURVE",
"314 325 CURVE SMOOTH",
"278 369 OFFCURVE",
"249 409 OFFCURVE",
"179 435 CURVE",
"239 595 LINE",
"376 543 OFFCURVE",
"440 441 OFFCURVE",
"467 411 CURVE SMOOTH",
"511 363 OFFCURVE",
"558 374 OFFCURVE",
"596 374 CURVE",
"596 288 LINE",
"596 288 OFFCURVE",
"612 132 OFFCURVE",
"463 132 CURVE SMOOTH",
"212 132 LINE",
"219 139 OFFCURVE",
"225 145 OFFCURVE",
"232 152 CURVE",
"232 -78 LINE",
"225 -71 OFFCURVE",
"219 -65 OFFCURVE",
"212 -58 CURVE",
"471 -58 LINE"
);
}
);
width = 656;
}
);
unicode = 062D;
},
{
glyphname = "hah-ar.2";
layers = (
{
anchors = (
{
name = dotAbove;
position = "{219, 511}";
},
{
name = dotBelow;
position = "{302, -9}";
},
{
name = hamzaAbove;
position = "{219, 511}";
},
{
name = markAbove;
position = "{219, 549}";
},
{
name = markBelow;
position = "{303, -43}";
}
);
layerId = master01;
paths = (
{
closed = 1;
nodes = (
"46 41 LINE SMOOTH",
"46 106 OFFCURVE",
"98 170 OFFCURVE",
"175 170 CURVE SMOOTH",
"354 170 LINE",
"336 175 OFFCURVE",
"324 187 OFFCURVE",
"313 199 CURVE SMOOTH",
"269 248 OFFCURVE",
"233 313 OFFCURVE",
"134 351 CURVE",
"163 424 LINE",
"286 378 OFFCURVE",
"338 289 OFFCURVE",
"372 252 CURVE SMOOTH",
"416 204 OFFCURVE",
"427 200 OFFCURVE",
"488 200 CURVE",
"488 161 LINE SMOOTH",
"488 141 OFFCURVE",
"473 91 OFFCURVE",
"422 91 CURVE SMOOTH",
"175 91 LINE SMOOTH",
"150 91 OFFCURVE",
"126 68 OFFCURVE",
"126 41 CURVE SMOOTH",
"126 -185 LINE",
"76 -185 OFFCURVE",
"46 -149 OFFCURVE",
"46 -104 CURVE SMOOTH"
);
}
);
width = 535;
},
{
anchors = (
{
name = dotAbove;
position = "{158, 447}";
},
{
name = dotBelow;
position = "{248, -20}";
},
{
name = hamzaAbove;
position = "{158, 447}";
},
{
name = markAbove;
position = "{158, 484}";
},
{
name = markBelow;
position = "{248, -60}";
}
);
layerId = "0CAB57D4-4FC4-49C3-B456-FB7666EAA712";
paths = (
{
closed = 1;
nodes = (
"40 11 LINE SMOOTH",
"40 65 OFFCURVE",
"87 123 OFFCURVE",
"148 123 CURVE SMOOTH",
"401 123 LINE",
"359 132 OFFCURVE",
"328 162 OFFCURVE",
"301 191 CURVE SMOOTH",
"260 236 OFFCURVE",
"219 309 OFFCURVE",
"113 349 CURVE",
"125 379 LINE",
"241 335 OFFCURVE",
"288 254 OFFCURVE",
"325 213 CURVE SMOOTH",
"362 173 OFFCURVE",
"387 153 OFFCURVE",
"436 153 CURVE",
"436 137 LINE SMOOTH",
"436 124 OFFCURVE",
"424 91 OFFCURVE",
"393 91 CURVE SMOOTH",
"148 91 LINE SMOOTH",
"107 91 OFFCURVE",
"71.998 49 OFFCURVE",
"72 11 CURVE SMOOTH",
"72.013 -200.045 LINE",
"52.152 -199.831 OFFCURVE",
"40 -183.455 OFFCURVE",
"40 -168 CURVE SMOOTH"
);
}
);
width = 476;
},
{
anchors = (
{
name = dotAbove;
position = "{348, 738}";
},
{
name = dotBelow;
position = "{458, -3}";
},
{
name = hamzaAbove;
position = "{348, 738}";
},
{
name = markAbove;
position = "{348, 786}";
},
{
name = markBelow;
position = "{338, 1}";
}
);
layerId = "42B3044F-4D5A-45CA-9EB7-C1889731596B";
paths = (
{
closed = 1;
nodes = (
"60 122 LINE SMOOTH",
"60 211 OFFCURVE",
"129 304 OFFCURVE",
"238 304 CURVE SMOOTH",
"332 304 LINE",
"326 311 OFFCURVE",
"320 318 OFFCURVE",
"314 325 CURVE SMOOTH",
"278 369 OFFCURVE",
"249 409 OFFCURVE",
"179 435 CURVE",
"239 595 LINE",
"376 543 OFFCURVE",
"440 441 OFFCURVE",
"467 411 CURVE SMOOTH",
"511 363 OFFCURVE",
"558 374 OFFCURVE",
"596 374 CURVE",
"596 288 LINE",
"596 288 OFFCURVE",
"612 132 OFFCURVE",
"463 132 CURVE SMOOTH",
"212 132 LINE",
"219 139 OFFCURVE",
"225 145 OFFCURVE",
"232 152 CURVE",
"232 -230 LINE",
"137 -230 OFFCURVE",
"60 -157 OFFCURVE",
"60 -63 CURVE SMOOTH"
);
}
);
width = 656;
}
);
},
{
glyphname = "hah-ar.init";
production = uni062D.init;
layers = (
{
anchors = (
{
name = dotAbove;
position = "{172, 450}";
},
{
name = dotBelow;
position = "{246, -150}";
},
{
name = hamzaAbove;
position = "{172, 450}";
},
{
name = markAbove;
position = "{172, 488}";
},
{
name = markBelow;
position = "{246, -176}";
}
);
layerId = master01;
paths = (
{
closed = 1;
nodes = (
"0 79 LINE",
"422 79 LINE",
"421.65 77.25 OFFCURVE",
"421.35 75.75 OFFCURVE",
"421 74 CURVE",
"401 81 OFFCURVE",
"382 96 OFFCURVE",
"366 111 CURVE SMOOTH",
"323 150 OFFCURVE",
"277 202 OFFCURVE",
"236 231 CURVE SMOOTH",
"187 266 OFFCURVE",
"139 277 OFFCURVE",
"98 287 CURVE",
"116 364 LINE",
"157 354 OFFCURVE",
"219 339 OFFCURVE",
"280 296 CURVE SMOOTH",
"338 255 OFFCURVE",
"385 199 OFFCURVE",
"425 164 CURVE SMOOTH",
"473 122 OFFCURVE",
"486 117 OFFCURVE",
"547 117 CURVE",
"549 81 LINE SMOOTH",
"551 50 OFFCURVE",
"534 0 OFFCURVE",
"483 0 CURVE SMOOTH",
"0 0 LINE"
);
}
);
width = 595;
},
{
anchors = (
{
name = dotAbove;
position = "{144, 386}";
},
{
name = dotBelow;
position = "{233, -150}";
},
{
name = hamzaAbove;
position = "{144, 386}";
},
{
name = markAbove;
position = "{144, 423}";
},
{
name = markBelow;
position = "{233, -170}";
}
);
layerId = "0CAB57D4-4FC4-49C3-B456-FB7666EAA712";
paths = (
{
closed = 1;
nodes = (
"0 32 LINE",
"483 32 LINE SMOOTH",
"486 32 OFFCURVE",
"489 34 OFFCURVE",
"492 40 CURVE",
"451 47 OFFCURVE",
"417 73 OFFCURVE",
"388 99 CURVE SMOOTH",
"344 138 OFFCURVE",
"299 192 OFFCURVE",
"249 227 CURVE SMOOTH",
"197 264 OFFCURVE",
"144 276 OFFCURVE",
"103 286 CURVE",
"111 318 LINE",
"152 308 OFFCURVE",
"209 294 OFFCURVE",
"267 253 CURVE SMOOTH",
"321 214 OFFCURVE",
"368 160 OFFCURVE",
"410 123 CURVE SMOOTH",
"449 88 OFFCURVE",
"476 70 OFFCURVE",
"525 70 CURVE",
"526 55 LINE SMOOTH",
"528 31 OFFCURVE",
"514 0 OFFCURVE",
"483 0 CURVE SMOOTH",
"0 0 LINE"
);
}
);
width = 566;
},
{
anchors = (
{
name = dotAbove;
position = "{268, 626}";
},
{
name = dotBelow;
position = "{293, -161}";
},
{
name = hamzaAbove;
position = "{268, 626}";
},
{
name = markAbove;
position = "{268, 670}";
},
{
name = markBelow;
position = "{293, -196}";
}
);
layerId = "42B3044F-4D5A-45CA-9EB7-C1889731596B";
paths = (
{
closed = 1;
nodes = (
"0 172 LINE",
"365 172 LINE",
"363.6 166.4 OFFCURVE",
"362.4 161.6 OFFCURVE",
"361 156 CURVE",
"351 166 OFFCURVE",
"339 177 OFFCURVE",
"328 188 CURVE SMOOTH",
"296 219 OFFCURVE",
"262 253 OFFCURVE",
"238 270 CURVE SMOOTH",
"198 298 OFFCURVE",
"158 308 OFFCURVE",
"117 318 CURVE",
"157 486 LINE",
"198 476 OFFCURVE",
"268 460 OFFCURVE",
"338 410 CURVE SMOOTH",
"402 364 OFFCURVE",
"450 308 OFFCURVE",
"486 276 CURVE SMOOTH",
"543 226 OFFCURVE",
"562 237 OFFCURVE",
"620 240 CURVE",
"626 160 LINE SMOOTH",
"628 133 OFFCURVE",
"621 0 OFFCURVE",
"493 0 CURVE SMOOTH",
"0 0 LINE"
);
}
);
width = 686;
}
);
},
{
color = 0;
glyphname = "hahHamzaabove-ar";
layers = (
{
layerId = master01;
paths = (
{
closed = 1;
nodes = (
"0 800 LINE",
"1000 800 LINE",
"1000 -200 LINE",
"0 -200 LINE"
);
}
);
width = 1000;
},
{
layerId = "0CAB57D4-4FC4-49C3-B456-FB7666EAA712";
paths = (
{
closed = 1;
nodes = (
"0 800 LINE",
"1000 800 LINE",
"1000 -200 LINE",
"0 -200 LINE"
);
}
);
width = 1000;
},
{
layerId = "42B3044F-4D5A-45CA-9EB7-C1889731596B";
paths = (
{
closed = 1;
nodes = (
"0 800 LINE",
"1000 800 LINE",
"1000 -200 LINE",
"0 -200 LINE"
);
}
);
width = 1000;
}
);
unicode = 0681;
},
{
color = 0;
glyphname = "hahTwodotsverticalabove-ar";
layers = (
{
layerId = master01;
paths = (
{
closed = 1;
nodes = (
"0 800 LINE",
"1000 800 LINE",
"1000 -200 LINE",
"0 -200 LINE"
);
}
);
width = 1000;
},
{
layerId = "0CAB57D4-4FC4-49C3-B456-FB7666EAA712";
paths = (
{
closed = 1;
nodes = (
"0 800 LINE",
"1000 800 LINE",
"1000 -200 LINE",
"0 -200 LINE"
);
}
);
width = 1000;
},
{
layerId = "42B3044F-4D5A-45CA-9EB7-C1889731596B";
paths = (
{
closed = 1;
nodes = (
"0 800 LINE",
"1000 800 LINE",
"1000 -200 LINE",
"0 -200 LINE"
);
}
);
width = 1000;
}
);
unicode = 0682;
},
{
color = 0;
glyphname = "hahTwodotshorizontalabove-ar";
layers = (
{
layerId = master01;
paths = (
{
closed = 1;
nodes = (
"0 800 LINE",
"1000 800 LINE",
"1000 -200 LINE",
"0 -200 LINE"
);
}
);
width = 1000;
},
{
layerId = "0CAB57D4-4FC4-49C3-B456-FB7666EAA712";
paths = (
{
closed = 1;
nodes = (
"0 800 LINE",
"1000 800 LINE",
"1000 -200 LINE",
"0 -200 LINE"
);
}
);
width = 1000;
},
{
layerId = "42B3044F-4D5A-45CA-9EB7-C1889731596B";
paths = (
{
closed = 1;
nodes = (
"0 800 LINE",
"1000 800 LINE",
"1000 -200 LINE",
"0 -200 LINE"
);
}
);
width = 1000;
}
);
unicode = 0757;
},
{
color = 0;
glyphname = "hahThreedotsabove-ar";
layers = (
{
layerId = master01;
paths = (
{
closed = 1;
nodes = (
"0 800 LINE",
"1000 800 LINE",
"1000 -200 LINE",
"0 -200 LINE"
);
}
);
width = 1000;
},
{
layerId = "0CAB57D4-4FC4-49C3-B456-FB7666EAA712";
paths = (
{
closed = 1;
nodes = (
"0 800 LINE",
"1000 800 LINE",
"1000 -200 LINE",
"0 -200 LINE"
);
}
);
width = 1000;
},
{
layerId = "42B3044F-4D5A-45CA-9EB7-C1889731596B";
paths = (
{
closed = 1;
nodes = (
"0 800 LINE",
"1000 800 LINE",
"1000 -200 LINE",
"0 -200 LINE"
);
}
);
width = 1000;
}
);
unicode = 0685;
},
{
color = 0;
glyphname = "hahThreedotsupbelow-ar";
layers = (
{
layerId = master01;
paths = (
{
closed = 1;
nodes = (
"0 800 LINE",
"1000 800 LINE",
"1000 -200 LINE",
"0 -200 LINE"
);
}
);
width = 1000;
},
{
layerId = "0CAB57D4-4FC4-49C3-B456-FB7666EAA712";
paths = (
{
closed = 1;
nodes = (
"0 800 LINE",
"1000 800 LINE",
"1000 -200 LINE",
"0 -200 LINE"
);
}
);
width = 1000;
},
{
layerId = "42B3044F-4D5A-45CA-9EB7-C1889731596B";
paths = (
{
closed = 1;
nodes = (
"0 800 LINE",
"1000 800 LINE",
"1000 -200 LINE",
"0 -200 LINE"
);
}
);
width = 1000;
}
);
unicode = 0758;
},
{
color = 0;
glyphname = "khah-ar";
layers = (
{
layerId = master01;
paths = (
{
closed = 1;
nodes = (
"0 800 LINE",
"1000 800 LINE",
"1000 -200 LINE",
"0 -200 LINE"
);
}
);
width = 1000;
},
{
layerId = "0CAB57D4-4FC4-49C3-B456-FB7666EAA712";
paths = (
{
closed = 1;
nodes = (
"0 800 LINE",
"1000 800 LINE",
"1000 -200 LINE",
"0 -200 LINE"
);
}
);
width = 1000;
},
{
layerId = "42B3044F-4D5A-45CA-9EB7-C1889731596B";
paths = (
{
closed = 1;
nodes = (
"0 800 LINE",
"1000 800 LINE",
"1000 -200 LINE",
"0 -200 LINE"
);
}
);
width = 1000;
}
);
unicode = 062E;
},
{
color = 0;
glyphname = "jeemTwodotsabove-ar";
layers = (
{
layerId = master01;
paths = (
{
closed = 1;
nodes = (
"0 800 LINE",
"1000 800 LINE",
"1000 -200 LINE",
"0 -200 LINE"
);
}
);
width = 1000;
},
{
layerId = "0CAB57D4-4FC4-49C3-B456-FB7666EAA712";
paths = (
{
closed = 1;
nodes = (
"0 800 LINE",
"1000 800 LINE",
"1000 -200 LINE",
"0 -200 LINE"
);
}
);
width = 1000;
},
{
layerId = "42B3044F-4D5A-45CA-9EB7-C1889731596B";
paths = (
{
closed = 1;
nodes = (
"0 800 LINE",
"1000 800 LINE",
"1000 -200 LINE",
"0 -200 LINE"
);
}
);
width = 1000;
}
);
unicode = 08A2;
},
{
glyphname = "dal-ar";
layers = (
{
anchors = (
{
name = dotAbove;
position = "{195, 444}";
},
{
name = dotBelow;
position = "{204, -98}";
},
{
name = markAbove;
position = "{195, 481}";
},
{
name = markBelow;
position = "{204, -125}";
},
{
name = ringBelow;
position = "{204, 0}";
}
);
layerId = master01;
paths = (
{
closed = 1;
nodes = (
"194 352 LINE",
"262 318 OFFCURVE",
"401 244 OFFCURVE",
"402 91 CURVE SMOOTH",
"402 43 OFFCURVE",
"366 0 OFFCURVE",
"310 0 CURVE SMOOTH",
"46 0 LINE",
"46 79 LINE",
"333 79 LINE",
"329.5 78.65 OFFCURVE",
"326.5 78.35 OFFCURVE",
"323 78 CURVE",
"323 192 OFFCURVE",
"232 246 OFFCURVE",
"159 282 CURVE"
);
}
);
width = 468;
},
{
anchors = (
{
name = dotAbove;
position = "{198, 380}";
},
{
name = dotBelow;
position = "{194, -92}";
},
{
name = markAbove;
position = "{198, 418}";
},
{
name = markBelow;
position = "{194, -112}";
},
{
name = ringBelow;
position = "{194, 0}";
}
);
layerId = "0CAB57D4-4FC4-49C3-B456-FB7666EAA712";
paths = (
{
closed = 1;
nodes = (
"177 308 LINE",
"245 274 OFFCURVE",
"369 205 OFFCURVE",
"372 68 CURVE SMOOTH",
"373 39 OFFCURVE",
"353 0 OFFCURVE",
"304 0 CURVE SMOOTH",
"40 0 LINE",
"40 32 LINE",
"304 32 LINE SMOOTH",
"331 32 OFFCURVE",
"340 51 OFFCURVE",
"340 68 CURVE SMOOTH",
"334 186 OFFCURVE",
"236 244 OFFCURVE",
"163 280 CURVE"
);
}
);
width = 412;
},
{
anchors = (
{
name = dotAbove;
position = "{198, 600}";
},
{
name = dotBelow;
position = "{214, -142}";
},
{
name = markAbove;
position = "{198, 644}";
},
{
name = markBelow;
position = "{214, -177}";
},
{
name = ringBelow;
position = "{214, 0}";
}
);
layerId = "42B3044F-4D5A-45CA-9EB7-C1889731596B";
paths = (
{
closed = 1;
nodes = (
"228 441 LINE",
"299 405 OFFCURVE",
"453 325 OFFCURVE",
"462 142 CURVE SMOOTH",
"466 62 OFFCURVE",
"404 0 OFFCURVE",
"324 0 CURVE SMOOTH",
"60 0 LINE",
"60 172 LINE",
"260 172 LINE SMOOTH",
"283 172 OFFCURVE",
"275 190 OFFCURVE",
"268 200 CURVE SMOOTH",
"243 236 OFFCURVE",
"199 264 OFFCURVE",
"152 287 CURVE"
);
}
);
width = 522;
}
);
unicode = 062F;
},
{
color = 0;
glyphname = "thal-ar";
layers = (
{
layerId = master01;
paths = (
{
closed = 1;
nodes = (
"0 800 LINE",
"1000 800 LINE",
"1000 -200 LINE",
"0 -200 LINE"
);
}
);
width = 1000;
},
{
layerId = "0CAB57D4-4FC4-49C3-B456-FB7666EAA712";
paths = (
{
closed = 1;
nodes = (
"0 800 LINE",
"1000 800 LINE",
"1000 -200 LINE",
"0 -200 LINE"
);
}
);
width = 1000;
},
{
layerId = "42B3044F-4D5A-45CA-9EB7-C1889731596B";
paths = (
{
closed = 1;
nodes = (
"0 800 LINE",
"1000 800 LINE",
"1000 -200 LINE",
"0 -200 LINE"
);
}
);
width = 1000;
}
);
unicode = 0630;
},
{
color = 0;
glyphname = "ddal-ar";
layers = (
{
layerId = master01;
paths = (
{
closed = 1;
nodes = (
"0 800 LINE",
"1000 800 LINE",
"1000 -200 LINE",
"0 -200 LINE"
);
}
);
width = 1000;
},
{
layerId = "0CAB57D4-4FC4-49C3-B456-FB7666EAA712";
paths = (
{
closed = 1;
nodes = (
"0 800 LINE",
"1000 800 LINE",
"1000 -200 LINE",
"0 -200 LINE"
);
}
);
width = 1000;
},
{
layerId = "42B3044F-4D5A-45CA-9EB7-C1889731596B";
paths = (
{
closed = 1;
nodes = (
"0 800 LINE",
"1000 800 LINE",
"1000 -200 LINE",
"0 -200 LINE"
);
}
);
width = 1000;
}
);
unicode = 0688;
},
{
color = 0;
glyphname = "dahal-ar";
layers = (
{
layerId = master01;
paths = (
{
closed = 1;
nodes = (
"0 800 LINE",
"1000 800 LINE",
"1000 -200 LINE",
"0 -200 LINE"
);
}
);
width = 1000;
},
{
layerId = "0CAB57D4-4FC4-49C3-B456-FB7666EAA712";
paths = (
{
closed = 1;
nodes = (
"0 800 LINE",
"1000 800 LINE",
"1000 -200 LINE",
"0 -200 LINE"
);
}
);
width = 1000;
},
{
layerId = "42B3044F-4D5A-45CA-9EB7-C1889731596B";
paths = (
{
closed = 1;
nodes = (
"0 800 LINE",
"1000 800 LINE",
"1000 -200 LINE",
"0 -200 LINE"
);
}
);
width = 1000;
}
);
unicode = 068C;
},
{
color = 0;
glyphname = "ddahal-ar";
layers = (
{
layerId = master01;
paths = (
{
closed = 1;
nodes = (
"0 800 LINE",
"1000 800 LINE",
"1000 -200 LINE",
"0 -200 LINE"
);
}
);
width = 1000;
},
{
layerId = "0CAB57D4-4FC4-49C3-B456-FB7666EAA712";
paths = (
{
closed = 1;
nodes = (
"0 800 LINE",
"1000 800 LINE",
"1000 -200 LINE",
"0 -200 LINE"
);
}
);
width = 1000;
},
{
layerId = "42B3044F-4D5A-45CA-9EB7-C1889731596B";
paths = (
{
closed = 1;
nodes = (
"0 800 LINE",
"1000 800 LINE",
"1000 -200 LINE",
"0 -200 LINE"
);
}
);
width = 1000;
}
);
unicode = 068D;
},
{
color = 0;
glyphname = "dalRing-ar";
layers = (
{
layerId = master01;
paths = (
{
closed = 1;
nodes = (
"0 800 LINE",
"1000 800 LINE",
"1000 -200 LINE",
"0 -200 LINE"
);
}
);
width = 1000;
},
{
layerId = "0CAB57D4-4FC4-49C3-B456-FB7666EAA712";
paths = (
{
closed = 1;
nodes = (
"0 800 LINE",
"1000 800 LINE",
"1000 -200 LINE",
"0 -200 LINE"
);
}
);
width = 1000;
},
{
layerId = "42B3044F-4D5A-45CA-9EB7-C1889731596B";
paths = (
{
closed = 1;
nodes = (
"0 800 LINE",
"1000 800 LINE",
"1000 -200 LINE",
"0 -200 LINE"
);
}
);
width = 1000;
}
);
unicode = 0689;
},
{
color = 0;
glyphname = "dalDotbelow-ar";
layers = (
{
layerId = master01;
paths = (
{
closed = 1;
nodes = (
"0 800 LINE",
"1000 800 LINE",
"1000 -200 LINE",
"0 -200 LINE"
);
}
);
width = 1000;
},
{
layerId = "0CAB57D4-4FC4-49C3-B456-FB7666EAA712";
paths = (
{
closed = 1;
nodes = (
"0 800 LINE",
"1000 800 LINE",
"1000 -200 LINE",
"0 -200 LINE"
);
}
);
width = 1000;
},
{
layerId = "42B3044F-4D5A-45CA-9EB7-C1889731596B";
paths = (
{
closed = 1;
nodes = (
"0 800 LINE",
"1000 800 LINE",
"1000 -200 LINE",
"0 -200 LINE"
);
}
);
width = 1000;
}
);
unicode = 068A;
},
{
color = 0;
glyphname = "dalDotbelowTah-ar";
layers = (
{
layerId = master01;
paths = (
{
closed = 1;
nodes = (
"0 800 LINE",
"1000 800 LINE",
"1000 -200 LINE",
"0 -200 LINE"
);
}
);
width = 1000;
},
{
layerId = "0CAB57D4-4FC4-49C3-B456-FB7666EAA712";
paths = (
{
closed = 1;
nodes = (
"0 800 LINE",
"1000 800 LINE",
"1000 -200 LINE",
"0 -200 LINE"
);
}
);
width = 1000;
},
{
layerId = "42B3044F-4D5A-45CA-9EB7-C1889731596B";
paths = (
{
closed = 1;
nodes = (
"0 800 LINE",
"1000 800 LINE",
"1000 -200 LINE",
"0 -200 LINE"
);
}
);
width = 1000;
}
);
unicode = 068B;
},
{
color = 0;
glyphname = "dul-ar";
layers = (
{
layerId = master01;
paths = (
{
closed = 1;
nodes = (
"0 800 LINE",
"1000 800 LINE",
"1000 -200 LINE",
"0 -200 LINE"
);
}
);
width = 1000;
},
{
layerId = "0CAB57D4-4FC4-49C3-B456-FB7666EAA712";
paths = (
{
closed = 1;
nodes = (
"0 800 LINE",
"1000 800 LINE",
"1000 -200 LINE",
"0 -200 LINE"
);
}
);
width = 1000;
},
{
layerId = "42B3044F-4D5A-45CA-9EB7-C1889731596B";
paths = (
{
closed = 1;
nodes = (
"0 800 LINE",
"1000 800 LINE",
"1000 -200 LINE",
"0 -200 LINE"
);
}
);
width = 1000;
}
);
unicode = 068E;
},
{
color = 0;
glyphname = "dalThreedotsdown-ar";
layers = (
{
layerId = master01;
paths = (
{
closed = 1;
nodes = (
"0 800 LINE",
"1000 800 LINE",
"1000 -200 LINE",
"0 -200 LINE"
);
}
);
width = 1000;
},
{
layerId = "0CAB57D4-4FC4-49C3-B456-FB7666EAA712";
paths = (
{
closed = 1;
nodes = (
"0 800 LINE",
"1000 800 LINE",
"1000 -200 LINE",
"0 -200 LINE"
);
}
);
width = 1000;
},
{
layerId = "42B3044F-4D5A-45CA-9EB7-C1889731596B";
paths = (
{
closed = 1;
nodes = (
"0 800 LINE",
"1000 800 LINE",
"1000 -200 LINE",
"0 -200 LINE"
);
}
);
width = 1000;
}
);
unicode = 068F;
},
{
color = 0;
glyphname = "dalFourdots-ar";
layers = (
{
layerId = master01;
paths = (
{
closed = 1;
nodes = (
"0 800 LINE",
"1000 800 LINE",
"1000 -200 LINE",
"0 -200 LINE"
);
}
);
width = 1000;
},
{
layerId = "0CAB57D4-4FC4-49C3-B456-FB7666EAA712";
paths = (
{
closed = 1;
nodes = (
"0 800 LINE",
"1000 800 LINE",
"1000 -200 LINE",
"0 -200 LINE"
);
}
);
width = 1000;
},
{
layerId = "42B3044F-4D5A-45CA-9EB7-C1889731596B";
paths = (
{
closed = 1;
nodes = (
"0 800 LINE",
"1000 800 LINE",
"1000 -200 LINE",
"0 -200 LINE"
);
}
);
width = 1000;
}
);
unicode = 0690;
},
{
color = 0;
glyphname = "dalVinvertedabove-ar";
layers = (
{
layerId = master01;
paths = (
{
closed = 1;
nodes = (
"0 800 LINE",
"1000 800 LINE",
"1000 -200 LINE",
"0 -200 LINE"
);
}
);
width = 1000;
},
{
layerId = "0CAB57D4-4FC4-49C3-B456-FB7666EAA712";
paths = (
{
closed = 1;
nodes = (
"0 800 LINE",
"1000 800 LINE",
"1000 -200 LINE",
"0 -200 LINE"
);
}
);
width = 1000;
},
{
layerId = "42B3044F-4D5A-45CA-9EB7-C1889731596B";
paths = (
{
closed = 1;
nodes = (
"0 800 LINE",
"1000 800 LINE",
"1000 -200 LINE",
"0 -200 LINE"
);
}
);
width = 1000;
}
);
unicode = 06EE;
},
{
color = 0;
glyphname = "dalTwodotsverticalbelowTah-ar";
layers = (
{
layerId = master01;
paths = (
{
closed = 1;
nodes = (
"0 800 LINE",
"1000 800 LINE",
"1000 -200 LINE",
"0 -200 LINE"
);
}
);
width = 1000;
},
{
layerId = "0CAB57D4-4FC4-49C3-B456-FB7666EAA712";
paths = (
{
closed = 1;
nodes = (
"0 800 LINE",
"1000 800 LINE",
"1000 -200 LINE",
"0 -200 LINE"
);
}
);
width = 1000;
},
{
layerId = "42B3044F-4D5A-45CA-9EB7-C1889731596B";
paths = (
{
closed = 1;
nodes = (
"0 800 LINE",
"1000 800 LINE",
"1000 -200 LINE",
"0 -200 LINE"
);
}
);
width = 1000;
}
);
unicode = 0759;
},
{
color = 0;
glyphname = "dalVinvertedbelow-ar";
layers = (
{
layerId = master01;
paths = (
{
closed = 1;
nodes = (
"0 800 LINE",
"1000 800 LINE",
"1000 -200 LINE",
"0 -200 LINE"
);
}
);
width = 1000;
},
{
layerId = "0CAB57D4-4FC4-49C3-B456-FB7666EAA712";
paths = (
{
closed = 1;
nodes = (
"0 800 LINE",
"1000 800 LINE",
"1000 -200 LINE",
"0 -200 LINE"
);
}
);
width = 1000;
},
{
layerId = "42B3044F-4D5A-45CA-9EB7-C1889731596B";
paths = (
{
closed = 1;
nodes = (
"0 800 LINE",
"1000 800 LINE",
"1000 -200 LINE",
"0 -200 LINE"
);
}
);
width = 1000;
}
);
unicode = 075A;
},
{
glyphname = "reh-ar";
layers = (
{
anchors = (
{
name = dash;
position = "{210, -50}";
},
{
name = dotAbove;
position = "{212, 329}";
},
{
name = dotBelow;
position = "{122, -312}";
},
{
name = dotMiddle;
position = "{70, 0}";
},
{
name = hamzaAbove;
position = "{212, 329}";
},
{
name = markAbove;
position = "{151, 366}";
},
{
name = markBelow;
position = "{122, -338}";
},
{
name = ringBelow;
position = "{122, -197}";
}
);
layerId = master01;
paths = (
{
closed = 1;
nodes = (
"176 177 OFFCURVE",
"209.471 174 OFFCURVE",
"255 174 CURVE",
"255 -14 LINE SMOOTH",
"255 -112 OFFCURVE",
"197 -200 OFFCURVE",
"91 -200 CURVE SMOOTH",
"0 -200 LINE",
"0 -122 LINE",
"91 -122 LINE SMOOTH",
"147 -122 OFFCURVE",
"176 -80 OFFCURVE",
"176 -14 CURVE SMOOTH",
"176 136.669 LINE SMOOTH"
);
}
);
width = 302;
},
{
anchors = (
{
name = dash;
position = "{169, -76}";
},
{
name = dotAbove;
position = "{171, 291}";
},
{
name = dotBelow;
position = "{93, -280}";
},
{
name = dotMiddle;
position = "{70, 0}";
},
{
name = hamzaAbove;
position = "{171, 291}";
},
{
name = markAbove;
position = "{113, 329}";
},
{
name = markBelow;
position = "{93, -300}";
},
{
name = ringBelow;
position = "{93, -199}";
}
);
layerId = "0CAB57D4-4FC4-49C3-B456-FB7666EAA712";
paths = (
{
closed = 1;
nodes = (
"155 152.761 OFFCURVE",
"172.8 151 OFFCURVE",
"187 151 CURVE",
"187 -37 LINE SMOOTH",
"187 -119 OFFCURVE",
"167 -200 OFFCURVE",
"72 -200 CURVE SMOOTH",
"0 -200 LINE",
"0 -168 LINE",
"72 -168 LINE SMOOTH",
"139 -168 OFFCURVE",
"155 -119 OFFCURVE",
"155 -37 CURVE SMOOTH",
"155 134 LINE SMOOTH"
);
}
);
width = 227;
},
{
anchors = (
{
name = dash;
position = "{240, 40}";
},
{
name = dotAbove;
position = "{241, 441}";
},
{
name = dotBelow;
position = "{123, -380}";
},
{
name = dotMiddle;
position = "{60, 60}";
},
{
name = hamzaAbove;
position = "{241, 441}";
},
{
name = markAbove;
position = "{193, 489}";
},
{
name = markBelow;
position = "{123, -415}";
},
{
name = ringBelow;
position = "{123, -229}";
}
);
layerId = "42B3044F-4D5A-45CA-9EB7-C1889731596B";
paths = (
{
closed = 1;
nodes = (
"155 211 OFFCURVE",
"227 221 OFFCURVE",
"327 221 CURVE",
"327 3 LINE SMOOTH",
"327 -120 OFFCURVE",
"265 -230 OFFCURVE",
"102 -230 CURVE SMOOTH",
"0 -230 LINE",
"0 -58 LINE",
"102 -58 LINE SMOOTH",
"131 -58 OFFCURVE",
"155 -38 OFFCURVE",
"155 3 CURVE SMOOTH",
"155 111 LINE SMOOTH"
);
}
);
width = 387;
}
);
unicode = 0631;
},
{
color = (255,0,255,255);
glyphname = "reh-ar.fina";
production = uni0631.fina;
layers = (
{
components = (
{
name = "reh-ar";
}
);
layerId = master01;
paths = (
{
closed = 1;
nodes = (
"377 0 LINE",
"238 0 LINE",
"238 79 LINE",
"377 79 LINE"
);
}
);
width = 361;
},
{
components = (
{
name = "reh-ar";
transform = "{1, 0, 0, 1, 0, -1}";
}
);
layerId = "0CAB57D4-4FC4-49C3-B456-FB7666EAA712";
paths = (
{
closed = 1;
nodes = (
"310 0 LINE",
"179 0 LINE",
"179 32 LINE",
"310 32 LINE"
);
}
);
width = 300;
},
{
components = (
{
name = "reh-ar";
}
);
layerId = "42B3044F-4D5A-45CA-9EB7-C1889731596B";
paths = (
{
closed = 1;
nodes = (
"436 0 LINE",
"271 0 LINE",
"271 172 LINE",
"436 172 LINE"
);
}
);
width = 416;
}
);
},
{
color = 0;
glyphname = "zain-ar";
layers = (
{
layerId = master01;
paths = (
{
closed = 1;
nodes = (
"0 800 LINE",
"1000 800 LINE",
"1000 -200 LINE",
"0 -200 LINE"
);
}
);
width = 1000;
},
{
layerId = "0CAB57D4-4FC4-49C3-B456-FB7666EAA712";
paths = (
{
closed = 1;
nodes = (
"0 800 LINE",
"1000 800 LINE",
"1000 -200 LINE",
"0 -200 LINE"
);
}
);
width = 1000;
},
{
layerId = "42B3044F-4D5A-45CA-9EB7-C1889731596B";
paths = (
{
closed = 1;
nodes = (
"0 800 LINE",
"1000 800 LINE",
"1000 -200 LINE",
"0 -200 LINE"
);
}
);
width = 1000;
}
);
unicode = 0632;
},
{
color = 0;
glyphname = "zainVinvertedabove-ar";
layers = (
{
layerId = master01;
paths = (
{
closed = 1;
nodes = (
"0 800 LINE",
"1000 800 LINE",
"1000 -200 LINE",
"0 -200 LINE"
);
}
);
width = 1000;
},
{
layerId = "0CAB57D4-4FC4-49C3-B456-FB7666EAA712";
paths = (
{
closed = 1;
nodes = (
"0 800 LINE",
"1000 800 LINE",
"1000 -200 LINE",
"0 -200 LINE"
);
}
);
width = 1000;
},
{
layerId = "42B3044F-4D5A-45CA-9EB7-C1889731596B";
paths = (
{
closed = 1;
nodes = (
"0 800 LINE",
"1000 800 LINE",
"1000 -200 LINE",
"0 -200 LINE"
);
}
);
width = 1000;
}
);
unicode = 08B2;
},
{
color = 0;
glyphname = "rreh-ar";
layers = (
{
layerId = master01;
paths = (
{
closed = 1;
nodes = (
"0 800 LINE",
"1000 800 LINE",
"1000 -200 LINE",
"0 -200 LINE"
);
}
);
width = 1000;
},
{
layerId = "0CAB57D4-4FC4-49C3-B456-FB7666EAA712";
paths = (
{
closed = 1;
nodes = (
"0 800 LINE",
"1000 800 LINE",
"1000 -200 LINE",
"0 -200 LINE"
);
}
);
width = 1000;
},
{
layerId = "42B3044F-4D5A-45CA-9EB7-C1889731596B";
paths = (
{
closed = 1;
nodes = (
"0 800 LINE",
"1000 800 LINE",
"1000 -200 LINE",
"0 -200 LINE"
);
}
);
width = 1000;
}
);
unicode = 0691;
},
{
color = 0;
glyphname = "rehv-ar";
layers = (
{
layerId = master01;
paths = (
{
closed = 1;
nodes = (
"0 800 LINE",
"1000 800 LINE",
"1000 -200 LINE",
"0 -200 LINE"
);
}
);
width = 1000;
},
{
layerId = "0CAB57D4-4FC4-49C3-B456-FB7666EAA712";
paths = (
{
closed = 1;
nodes = (
"0 800 LINE",
"1000 800 LINE",
"1000 -200 LINE",
"0 -200 LINE"
);
}
);
width = 1000;
},
{
layerId = "42B3044F-4D5A-45CA-9EB7-C1889731596B";
paths = (
{
closed = 1;
nodes = (
"0 800 LINE",
"1000 800 LINE",
"1000 -200 LINE",
"0 -200 LINE"
);
}
);
width = 1000;
}
);
unicode = 0692;
},
{
color = 0;
glyphname = "rehRing-ar";
layers = (
{
layerId = master01;
paths = (
{
closed = 1;
nodes = (
"0 800 LINE",
"1000 800 LINE",
"1000 -200 LINE",
"0 -200 LINE"
);
}
);
width = 1000;
},
{
layerId = "0CAB57D4-4FC4-49C3-B456-FB7666EAA712";
paths = (
{
closed = 1;
nodes = (
"0 800 LINE",
"1000 800 LINE",
"1000 -200 LINE",
"0 -200 LINE"
);
}
);
width = 1000;
},
{
layerId = "42B3044F-4D5A-45CA-9EB7-C1889731596B";
paths = (
{
closed = 1;
nodes = (
"0 800 LINE",
"1000 800 LINE",
"1000 -200 LINE",
"0 -200 LINE"
);
}
);
width = 1000;
}
);
unicode = 0693;
},
{
color = 0;
glyphname = "rehDotbelow-ar";
layers = (
{
layerId = master01;
paths = (
{
closed = 1;
nodes = (
"0 800 LINE",
"1000 800 LINE",
"1000 -200 LINE",
"0 -200 LINE"
);
}
);
width = 1000;
},
{
layerId = "0CAB57D4-4FC4-49C3-B456-FB7666EAA712";
paths = (
{
closed = 1;
nodes = (
"0 800 LINE",
"1000 800 LINE",
"1000 -200 LINE",
"0 -200 LINE"
);
}
);
width = 1000;
},
{
layerId = "42B3044F-4D5A-45CA-9EB7-C1889731596B";
paths = (
{
closed = 1;
nodes = (
"0 800 LINE",
"1000 800 LINE",
"1000 -200 LINE",
"0 -200 LINE"
);
}
);
width = 1000;
}
);
unicode = 0694;
},
{
color = 0;
glyphname = "rehVbelow-ar";
layers = (
{
layerId = master01;
paths = (
{
closed = 1;
nodes = (
"0 800 LINE",
"1000 800 LINE",
"1000 -200 LINE",
"0 -200 LINE"
);
}
);
width = 1000;
},
{
layerId = "0CAB57D4-4FC4-49C3-B456-FB7666EAA712";
paths = (
{
closed = 1;
nodes = (
"0 800 LINE",
"1000 800 LINE",
"1000 -200 LINE",
"0 -200 LINE"
);
}
);
width = 1000;
},
{
layerId = "42B3044F-4D5A-45CA-9EB7-C1889731596B";
paths = (
{
closed = 1;
nodes = (
"0 800 LINE",
"1000 800 LINE",
"1000 -200 LINE",
"0 -200 LINE"
);
}
);
width = 1000;
}
);
unicode = 0695;
},
{
color = 0;
glyphname = "rehDotbelowdotabove-ar";
layers = (
{
layerId = master01;
paths = (
{
closed = 1;
nodes = (
"0 800 LINE",
"1000 800 LINE",
"1000 -200 LINE",
"0 -200 LINE"
);
}
);
width = 1000;
},
{
layerId = "0CAB57D4-4FC4-49C3-B456-FB7666EAA712";
paths = (
{
closed = 1;
nodes = (
"0 800 LINE",
"1000 800 LINE",
"1000 -200 LINE",
"0 -200 LINE"
);
}
);
width = 1000;
},
{
layerId = "42B3044F-4D5A-45CA-9EB7-C1889731596B";
paths = (
{
closed = 1;
nodes = (
"0 800 LINE",
"1000 800 LINE",
"1000 -200 LINE",
"0 -200 LINE"
);
}
);
width = 1000;
}
);
unicode = 0696;
},
{
color = 0;
glyphname = "rehTwodots-ar";
layers = (
{
layerId = master01;
paths = (
{
closed = 1;
nodes = (
"0 800 LINE",
"1000 800 LINE",
"1000 -200 LINE",
"0 -200 LINE"
);
}
);
width = 1000;
},
{
layerId = "0CAB57D4-4FC4-49C3-B456-FB7666EAA712";
paths = (
{
closed = 1;
nodes = (
"0 800 LINE",
"1000 800 LINE",
"1000 -200 LINE",
"0 -200 LINE"
);
}
);
width = 1000;
},
{
layerId = "42B3044F-4D5A-45CA-9EB7-C1889731596B";
paths = (
{
closed = 1;
nodes = (
"0 800 LINE",
"1000 800 LINE",
"1000 -200 LINE",
"0 -200 LINE"
);
}
);
width = 1000;
}
);
unicode = 0697;
},
{
color = 0;
glyphname = "jeh-ar";
layers = (
{
layerId = master01;
paths = (
{
closed = 1;
nodes = (
"0 800 LINE",
"1000 800 LINE",
"1000 -200 LINE",
"0 -200 LINE"
);
}
);
width = 1000;
},
{
layerId = "0CAB57D4-4FC4-49C3-B456-FB7666EAA712";
paths = (
{
closed = 1;
nodes = (
"0 800 LINE",
"1000 800 LINE",
"1000 -200 LINE",
"0 -200 LINE"
);
}
);
width = 1000;
},
{
layerId = "42B3044F-4D5A-45CA-9EB7-C1889731596B";
paths = (
{
closed = 1;
nodes = (
"0 800 LINE",
"1000 800 LINE",
"1000 -200 LINE",
"0 -200 LINE"
);
}
);
width = 1000;
}
);
unicode = 0698;
},
{
color = 0;
glyphname = "rehFourdots-ar";
layers = (
{
layerId = master01;
paths = (
{
closed = 1;
nodes = (
"0 800 LINE",
"1000 800 LINE",
"1000 -200 LINE",
"0 -200 LINE"
);
}
);
width = 1000;
},
{
layerId = "0CAB57D4-4FC4-49C3-B456-FB7666EAA712";
paths = (
{
closed = 1;
nodes = (
"0 800 LINE",
"1000 800 LINE",
"1000 -200 LINE",
"0 -200 LINE"
);
}
);
width = 1000;
},
{
layerId = "42B3044F-4D5A-45CA-9EB7-C1889731596B";
paths = (
{
closed = 1;
nodes = (
"0 800 LINE",
"1000 800 LINE",
"1000 -200 LINE",
"0 -200 LINE"
);
}
);
width = 1000;
}
);
unicode = 0699;
},
{
color = 0;
glyphname = "rehVinvertedabove-ar";
layers = (
{
layerId = master01;
paths = (
{
closed = 1;
nodes = (
"0 800 LINE",
"1000 800 LINE",
"1000 -200 LINE",
"0 -200 LINE"
);
}
);
width = 1000;
},
{
layerId = "0CAB57D4-4FC4-49C3-B456-FB7666EAA712";
paths = (
{
closed = 1;
nodes = (
"0 800 LINE",
"1000 800 LINE",
"1000 -200 LINE",
"0 -200 LINE"
);
}
);
width = 1000;
},
{
layerId = "42B3044F-4D5A-45CA-9EB7-C1889731596B";
paths = (
{
closed = 1;
nodes = (
"0 800 LINE",
"1000 800 LINE",
"1000 -200 LINE",
"0 -200 LINE"
);
}
);
width = 1000;
}
);
unicode = 06EF;
},
{
color = 0;
glyphname = "rehStroke-ar";
layers = (
{
layerId = master01;
paths = (
{
closed = 1;
nodes = (
"0 800 LINE",
"1000 800 LINE",
"1000 -200 LINE",
"0 -200 LINE"
);
}
);
width = 1000;
},
{
layerId = "0CAB57D4-4FC4-49C3-B456-FB7666EAA712";
paths = (
{
closed = 1;
nodes = (
"0 800 LINE",
"1000 800 LINE",
"1000 -200 LINE",
"0 -200 LINE"
);
}
);
width = 1000;
},
{
layerId = "42B3044F-4D5A-45CA-9EB7-C1889731596B";
paths = (
{
closed = 1;
nodes = (
"0 800 LINE",
"1000 800 LINE",
"1000 -200 LINE",
"0 -200 LINE"
);
}
);
width = 1000;
}
);
unicode = 075B;
},
{
color = 0;
glyphname = "rehTwodotsverticalabove-ar";
layers = (
{
layerId = master01;
paths = (
{
closed = 1;
nodes = (
"0 800 LINE",
"1000 800 LINE",
"1000 -200 LINE",
"0 -200 LINE"
);
}
);
width = 1000;
},
{
layerId = "0CAB57D4-4FC4-49C3-B456-FB7666EAA712";
paths = (
{
closed = 1;
nodes = (
"0 800 LINE",
"1000 800 LINE",
"1000 -200 LINE",
"0 -200 LINE"
);
}
);
width = 1000;
},
{
layerId = "42B3044F-4D5A-45CA-9EB7-C1889731596B";
paths = (
{
closed = 1;
nodes = (
"0 800 LINE",
"1000 800 LINE",
"1000 -200 LINE",
"0 -200 LINE"
);
}
);
width = 1000;
}
);
unicode = 076B;
},
{
color = 0;
glyphname = "rehHamzaabove-ar";
layers = (
{
layerId = master01;
paths = (
{
closed = 1;
nodes = (
"0 800 LINE",
"1000 800 LINE",
"1000 -200 LINE",
"0 -200 LINE"
);
}
);
width = 1000;
},
{
layerId = "0CAB57D4-4FC4-49C3-B456-FB7666EAA712";
paths = (
{
closed = 1;
nodes = (
"0 800 LINE",
"1000 800 LINE",
"1000 -200 LINE",
"0 -200 LINE"
);
}
);
width = 1000;
},
{
layerId = "42B3044F-4D5A-45CA-9EB7-C1889731596B";
paths = (
{
closed = 1;
nodes = (
"0 800 LINE",
"1000 800 LINE",
"1000 -200 LINE",
"0 -200 LINE"
);
}
);
width = 1000;
}
);
unicode = 076C;
},
{
glyphname = "seen-ar";
layers = (
{
anchors = (
{
name = dotAbove;
position = "{627, 512}";
},
{
name = dotBelow;
position = "{670, -111}";
},
{
name = markAbove;
position = "{627, 549}";
},
{
name = markBelow;
position = "{258, -337}";
}
);
layerId = master01;
paths = (
{
closed = 1;
nodes = (
"494 365 LINE",
"494 -110 LINE SMOOTH",
"494 -161 OFFCURVE",
"453 -202 OFFCURVE",
"402 -202 CURVE SMOOTH",
"135 -202 LINE SMOOTH",
"82 -202 OFFCURVE",
"46 -153 OFFCURVE",
"46 -106 CURVE SMOOTH",
"46 172 LINE",
"125 172 LINE",
"125 -133 LINE",
"121.5 -129.5 OFFCURVE",
"118.5 -126.5 OFFCURVE",
"115 -123 CURVE",
"425 -123 LINE",
"421.5 -126.5 OFFCURVE",
"418.5 -129.5 OFFCURVE",
"415 -133 CURVE",
"415 365 LINE"
);
},
{
closed = 1;
nodes = (
"674 363 LINE",
"674 91 LINE SMOOTH",
"674 39 OFFCURVE",
"632 0 OFFCURVE",
"581 0 CURVE SMOOTH",
"489 0 LINE",
"489 79 LINE",
"605 79 LINE",
"601.5 75.5 OFFCURVE",
"598.5 72.5 OFFCURVE",
"595 69 CURVE",
"595 363 LINE"
);
},
{
closed = 1;
nodes = (
"854 363 LINE",
"854 91 LINE SMOOTH",
"854 39 OFFCURVE",
"812 0 OFFCURVE",
"761 0 CURVE SMOOTH",
"667 0 LINE",
"667 79 LINE",
"786 79 LINE",
"782.5 75.5 OFFCURVE",
"779.5 72.5 OFFCURVE",
"776 69 CURVE",
"776 363 LINE"
);
}
);
width = 901;
},
{
anchors = (
{
name = dotAbove;
position = "{598, 512}";
},
{
name = dotBelow;
position = "{609, -111}";
},
{
name = markAbove;
position = "{598, 550}";
},
{
name = markBelow;
position = "{229, -331}";
}
);
layerId = "0CAB57D4-4FC4-49C3-B456-FB7666EAA712";
paths = (
{
closed = 1;
nodes = (
"441 342 LINE",
"441 -133 LINE SMOOTH",
"441 -171 OFFCURVE",
"412 -201 OFFCURVE",
"372 -201 CURVE SMOOTH",
"105 -201 LINE SMOOTH",
"67 -201 OFFCURVE",
"40 -165 OFFCURVE",
"40 -129 CURVE SMOOTH",
"40 149 LINE",
"72 149 LINE",
"72 -129 LINE SMOOTH",
"72 -151 OFFCURVE",
"89 -169 OFFCURVE",
"105 -169 CURVE SMOOTH",
"372 -169 LINE SMOOTH",
"394 -169 OFFCURVE",
"409 -153 OFFCURVE",
"409 -133 CURVE SMOOTH",
"409 342 LINE"
);
},
{
closed = 1;
nodes = (
"614 340 LINE",
"614 68 LINE SMOOTH",
"614 30 OFFCURVE",
"585 0 OFFCURVE",
"545 0 CURVE SMOOTH",
"433 0 LINE",
"433 32 LINE",
"545 32 LINE SMOOTH",
"567 32 OFFCURVE",
"582 48 OFFCURVE",
"582 68 CURVE SMOOTH",
"582 340 LINE"
);
},
{
closed = 1;
nodes = (
"788 340 LINE",
"788 68 LINE SMOOTH",
"788 30 OFFCURVE",
"757 0 OFFCURVE",
"718 0 CURVE SMOOTH",
"603 0 LINE",
"603 32 LINE",
"718 32 LINE SMOOTH",
"741 32 OFFCURVE",
"756 48 OFFCURVE",
"756 68 CURVE SMOOTH",
"756 340 LINE"
);
}
);
width = 828;
},
{
anchors = (
{
name = dotAbove;
position = "{734, 562}";
},
{
name = dotBelow;
position = "{809, -131}";
},
{
name = markAbove;
position = "{734, 610}";
},
{
name = markBelow;
position = "{339, -396}";
}
);
layerId = "42B3044F-4D5A-45CA-9EB7-C1889731596B";
paths = (
{
closed = 1;
nodes = (
"601 412 LINE",
"601 -93 LINE SMOOTH",
"601 -170 OFFCURVE",
"538 -231 OFFCURVE",
"462 -231 CURVE SMOOTH",
"195 -231 LINE SMOOTH",
"116 -231 OFFCURVE",
"60 -163 OFFCURVE",
"60 -89 CURVE SMOOTH",
"60 219 LINE",
"232 219 LINE",
"232 -79 LINE",
"225 -72 OFFCURVE",
"219 -66 OFFCURVE",
"212 -59 CURVE",
"449 -59 LINE",
"442 -66 OFFCURVE",
"436 -72 OFFCURVE",
"429 -79 CURVE",
"429 412 LINE"
);
},
{
closed = 1;
nodes = (
"824 410 LINE",
"824 138 LINE SMOOTH",
"824 62 OFFCURVE",
"761 0 OFFCURVE",
"685 0 CURVE SMOOTH",
"593 0 LINE",
"593 172 LINE",
"672 172 LINE",
"665 165 OFFCURVE",
"659 159 OFFCURVE",
"652 152 CURVE",
"652 410 LINE"
);
},
{
closed = 1;
nodes = (
"1048 410 LINE",
"1048 138 LINE SMOOTH",
"1048 61 OFFCURVE",
"984 0 OFFCURVE",
"908 0 CURVE SMOOTH",
"806 0 LINE",
"806 172 LINE",
"896 172 LINE",
"889 165 OFFCURVE",
"883 159 OFFCURVE",
"876 152 CURVE",
"876 410 LINE"
);
}
);
width = 1108;
}
);
unicode = 0633;
},
{
glyphname = "seen-ar.init";
production = uni0633.init;
layers = (
{
anchors = (
{
name = dotAbove;
position = "{405, 513}";
},
{
name = dotBelow;
position = "{405, -149}";
},
{
name = markAbove;
position = "{405, 549}";
},
{
name = markBelow;
position = "{405, -176}";
}
);
layerId = master01;
paths = (
{
closed = 1;
nodes = (
"272 363 LINE",
"272 91 LINE SMOOTH",
"272 39 OFFCURVE",
"230 0 OFFCURVE",
"179 0 CURVE SMOOTH",
"0 0 LINE",
"0 79 LINE",
"203 79 LINE",
"199.5 75.5 OFFCURVE",
"196.5 72.5 OFFCURVE",
"193 69 CURVE",
"193 363 LINE"
);
},
{
closed = 1;
nodes = (
"450 363 LINE",
"450 91 LINE SMOOTH",
"450 39 OFFCURVE",
"408 0 OFFCURVE",
"358 0 CURVE SMOOTH",
"265 0 LINE",
"265 79 LINE",
"382 79 LINE",
"378.5 75.5 OFFCURVE",
"375.5 72.5 OFFCURVE",
"372 69 CURVE",
"372 363 LINE"
);
},
{
closed = 1;
nodes = (
"629 363 LINE",
"629 91 LINE SMOOTH",
"629 39 OFFCURVE",
"588 0 OFFCURVE",
"537 0 CURVE SMOOTH",
"443 0 LINE",
"443 79 LINE",
"561 79 LINE",
"557.5 75.5 OFFCURVE",
"554.5 72.5 OFFCURVE",
"551 69 CURVE",
"551 363 LINE"
);
}
);
width = 676;
},
{
anchors = (
{
name = dotAbove;
position = "{405, 512}";
},
{
name = dotBelow;
position = "{405, -150}";
},
{
name = markAbove;
position = "{405, 550}";
},
{
name = markBelow;
position = "{405, -170}";
}
);
layerId = "0CAB57D4-4FC4-49C3-B456-FB7666EAA712";
paths = (
{
closed = 1;
nodes = (
"248 340 LINE",
"248 68 LINE SMOOTH",
"248 30 OFFCURVE",
"219 0 OFFCURVE",
"179 0 CURVE SMOOTH",
"0 0 LINE",
"0 32 LINE",
"179 32 LINE SMOOTH",
"201 32 OFFCURVE",
"216 48 OFFCURVE",
"216 68 CURVE SMOOTH",
"216 340 LINE"
);
},
{
closed = 1;
nodes = (
"421 340 LINE",
"421 67 LINE SMOOTH",
"421 29 OFFCURVE",
"391 0 OFFCURVE",
"352 0 CURVE SMOOTH",
"240 0 LINE",
"240 32 LINE",
"352 32 LINE SMOOTH",
"375 32 OFFCURVE",
"389 47 OFFCURVE",
"389 67 CURVE SMOOTH",
"389 340 LINE"
);
},
{
closed = 1;
nodes = (
"595 340 LINE",
"595 68 LINE SMOOTH",
"595 30 OFFCURVE",
"566 0 OFFCURVE",
"526 0 CURVE SMOOTH",
"410 0 LINE",
"410 32 LINE",
"526 32 LINE SMOOTH",
"548 32 OFFCURVE",
"563 48 OFFCURVE",
"563 68 CURVE SMOOTH",
"563 340 LINE"
);
}
);
width = 635;
},
{
anchors = (
{
name = dotAbove;
position = "{450, 561}";
},
{
name = dotBelow;
position = "{405, -149}";
},
{
name = markAbove;
position = "{450, 609}";
},
{
name = markBelow;
position = "{405, -184}";
}
);
layerId = "42B3044F-4D5A-45CA-9EB7-C1889731596B";
paths = (
{
closed = 1;
nodes = (
"318 410 LINE",
"318 138 LINE SMOOTH",
"318 62 OFFCURVE",
"255 0 OFFCURVE",
"179 0 CURVE SMOOTH",
"0 0 LINE",
"0 172 LINE",
"166 172 LINE",
"159 165 OFFCURVE",
"153 159 OFFCURVE",
"146 152 CURVE",
"146 410 LINE"
);
},
{
closed = 1;
nodes = (
"539 410 LINE",
"539 138 LINE SMOOTH",
"539 62 OFFCURVE",
"476 0 OFFCURVE",
"400 0 CURVE SMOOTH",
"279 0 LINE",
"279 172 LINE",
"387 172 LINE",
"380 165 OFFCURVE",
"374 159 OFFCURVE",
"367 152 CURVE",
"367 410 LINE"
);
},
{
closed = 1;
nodes = (
"763 410 LINE",
"763 138 LINE SMOOTH",
"763 61 OFFCURVE",
"699 0 OFFCURVE",
"623 0 CURVE SMOOTH",
"521 0 LINE",
"521 172 LINE",
"611 172 LINE",
"604 165 OFFCURVE",
"598 159 OFFCURVE",
"591 152 CURVE",
"591 410 LINE"
);
}
);
width = 823;
}
);
},
{
color = 0;
glyphname = "seenDotbelowDotabove-ar";
layers = (
{
layerId = master01;
paths = (
{
closed = 1;
nodes = (
"0 800 LINE",
"1000 800 LINE",
"1000 -200 LINE",
"0 -200 LINE"
);
}
);
width = 1000;
},
{
layerId = "0CAB57D4-4FC4-49C3-B456-FB7666EAA712";
paths = (
{
closed = 1;
nodes = (
"0 800 LINE",
"1000 800 LINE",
"1000 -200 LINE",
"0 -200 LINE"
);
}
);
width = 1000;
},
{
layerId = "42B3044F-4D5A-45CA-9EB7-C1889731596B";
paths = (
{
closed = 1;
nodes = (
"0 800 LINE",
"1000 800 LINE",
"1000 -200 LINE",
"0 -200 LINE"
);
}
);
width = 1000;
}
);
unicode = 069A;
},
{
color = 0;
glyphname = "seenThreedotsbelow-ar";
layers = (
{
layerId = master01;
paths = (
{
closed = 1;
nodes = (
"0 800 LINE",
"1000 800 LINE",
"1000 -200 LINE",
"0 -200 LINE"
);
}
);
width = 1000;
},
{
layerId = "0CAB57D4-4FC4-49C3-B456-FB7666EAA712";
paths = (
{
closed = 1;
nodes = (
"0 800 LINE",
"1000 800 LINE",
"1000 -200 LINE",
"0 -200 LINE"
);
}
);
width = 1000;
},
{
layerId = "42B3044F-4D5A-45CA-9EB7-C1889731596B";
paths = (
{
closed = 1;
nodes = (
"0 800 LINE",
"1000 800 LINE",
"1000 -200 LINE",
"0 -200 LINE"
);
}
);
width = 1000;
}
);
unicode = 069B;
},
{
color = 0;
glyphname = "sheen-ar";
layers = (
{
layerId = master01;
paths = (
{
closed = 1;
nodes = (
"0 800 LINE",
"1000 800 LINE",
"1000 -200 LINE",
"0 -200 LINE"
);
}
);
width = 1000;
},
{
layerId = "0CAB57D4-4FC4-49C3-B456-FB7666EAA712";
paths = (
{
closed = 1;
nodes = (
"0 800 LINE",
"1000 800 LINE",
"1000 -200 LINE",
"0 -200 LINE"
);
}
);
width = 1000;
},
{
layerId = "42B3044F-4D5A-45CA-9EB7-C1889731596B";
paths = (
{
closed = 1;
nodes = (
"0 800 LINE",
"1000 800 LINE",
"1000 -200 LINE",
"0 -200 LINE"
);
}
);
width = 1000;
}
);
unicode = 0634;
},
{
color = 0;
glyphname = "sheenDotbelow-ar";
layers = (
{
layerId = master01;
paths = (
{
closed = 1;
nodes = (
"0 800 LINE",
"1000 800 LINE",
"1000 -200 LINE",
"0 -200 LINE"
);
}
);
width = 1000;
},
{
layerId = "0CAB57D4-4FC4-49C3-B456-FB7666EAA712";
paths = (
{
closed = 1;
nodes = (
"0 800 LINE",
"1000 800 LINE",
"1000 -200 LINE",
"0 -200 LINE"
);
}
);
width = 1000;
},
{
layerId = "42B3044F-4D5A-45CA-9EB7-C1889731596B";
paths = (
{
closed = 1;
nodes = (
"0 800 LINE",
"1000 800 LINE",
"1000 -200 LINE",
"0 -200 LINE"
);
}
);
width = 1000;
}
);
unicode = 06FA;
},
{
color = 0;
glyphname = "sheenThreedotsbelow-ar";
layers = (
{
layerId = master01;
paths = (
{
closed = 1;
nodes = (
"0 800 LINE",
"1000 800 LINE",
"1000 -200 LINE",
"0 -200 LINE"
);
}
);
width = 1000;
},
{
layerId = "0CAB57D4-4FC4-49C3-B456-FB7666EAA712";
paths = (
{
closed = 1;
nodes = (
"0 800 LINE",
"1000 800 LINE",
"1000 -200 LINE",
"0 -200 LINE"
);
}
);
width = 1000;
},
{
layerId = "42B3044F-4D5A-45CA-9EB7-C1889731596B";
paths = (
{
closed = 1;
nodes = (
"0 800 LINE",
"1000 800 LINE",
"1000 -200 LINE",
"0 -200 LINE"
);
}
);
width = 1000;
}
);
unicode = 069C;
},
{
glyphname = "sad-ar";
layers = (
{
anchors = (
{
name = dotAbove;
position = "{617, 440}";
},
{
name = dotBelow;
position = "{725, -111}";
},
{
name = markAbove;
position = "{617, 476}";
},
{
name = markBelow;
position = "{258, -337}";
}
);
components = (
{
name = "_sad-ar.head";
transform = "{1, 0, 0, 1, 722, 0}";
}
);
layerId = master01;
paths = (
{
closed = 1;
nodes = (
"494 264 LINE",
"494 -110 LINE SMOOTH",
"494 -161 OFFCURVE",
"453 -202 OFFCURVE",
"402 -202 CURVE SMOOTH",
"135 -202 LINE SMOOTH",
"82 -202 OFFCURVE",
"46 -153 OFFCURVE",
"46 -106 CURVE SMOOTH",
"46 172 LINE",
"125 172 LINE",
"125 -133 LINE",
"121.5 -129.5 OFFCURVE",
"118.5 -126.5 OFFCURVE",
"115 -123 CURVE",
"425 -123 LINE",
"421.5 -126.5 OFFCURVE",
"418.5 -129.5 OFFCURVE",
"415 -133 CURVE",
"415 264 LINE"
);
}
);
width = 1010;
},
{
anchors = (
{
name = dotAbove;
position = "{572, 427}";
},
{
name = dotBelow;
position = "{668, -111}";
},
{
name = markAbove;
position = "{572, 465}";
},
{
name = markBelow;
position = "{229, -331}";
}
);
components = (
{
name = "_sad-ar.head";
transform = "{1, 0, 0, 1, 655, 0}";
}
);
layerId = "0CAB57D4-4FC4-49C3-B456-FB7666EAA712";
paths = (
{
closed = 1;
nodes = (
"441 241 LINE",
"441 -133 LINE SMOOTH",
"441 -171 OFFCURVE",
"412 -201 OFFCURVE",
"372 -201 CURVE SMOOTH",
"105 -201 LINE SMOOTH",
"67 -201 OFFCURVE",
"40 -165 OFFCURVE",
"40 -129 CURVE SMOOTH",
"40 149 LINE",
"72 149 LINE",
"72 -129 LINE SMOOTH",
"72 -151 OFFCURVE",
"89 -169 OFFCURVE",
"105 -169 CURVE SMOOTH",
"372 -169 LINE SMOOTH",
"394 -169 OFFCURVE",
"409 -153 OFFCURVE",
"409 -133 CURVE SMOOTH",
"409 241 LINE"
);
}
);
width = 915;
},
{
anchors = (
{
name = dotAbove;
position = "{669, 562}";
},
{
name = dotBelow;
position = "{894, -131}";
},
{
name = markAbove;
position = "{669, 610}";
},
{
name = markBelow;
position = "{339, -396}";
}
);
components = (
{
name = "_sad-ar.head";
transform = "{1, 0, 0, 1, 856, 0}";
}
);
layerId = "42B3044F-4D5A-45CA-9EB7-C1889731596B";
paths = (
{
closed = 1;
nodes = (
"601 311 LINE",
"601 -93 LINE SMOOTH",
"601 -170 OFFCURVE",
"538 -231 OFFCURVE",
"462 -231 CURVE SMOOTH",
"195 -231 LINE SMOOTH",
"116 -231 OFFCURVE",
"60 -163 OFFCURVE",
"60 -89 CURVE SMOOTH",
"60 219 LINE",
"232 219 LINE",
"232 -79 LINE",
"225 -72 OFFCURVE",
"219 -66 OFFCURVE",
"212 -59 CURVE",
"449 -59 LINE",
"442 -66 OFFCURVE",
"436 -72 OFFCURVE",
"429 -79 CURVE",
"429 311 LINE"
);
}
);
width = 1202;
}
);
unicode = 0635;
},
{
glyphname = "sad-ar.init";
production = uni0635.init;
layers = (
{
anchors = (
{
name = dotAbove;
position = "{302, 427}";
},
{
name = dotBelow;
position = "{390, -149}";
},
{
name = markAbove;
position = "{302, 465}";
},
{
name = markBelow;
position = "{390, -175}";
}
);
components = (
{
name = "_sad-ar.head";
transform = "{1, 0, 0, 1, 406, 0}";
}
);
layerId = master01;
paths = (
{
closed = 1;
nodes = (
"0 79 LINE",
"174 79 LINE",
"174 0 LINE",
"0 0 LINE"
);
},
{
closed = 1;
nodes = (
"177 264 LINE",
"177 70 LINE",
"99 70 LINE",
"99 264 LINE"
);
}
);
width = 694;
},
{
anchors = (
{
name = dotAbove;
position = "{286, 427}";
},
{
name = dotBelow;
position = "{374, -149}";
},
{
name = markAbove;
position = "{286, 464}";
},
{
name = markBelow;
position = "{374, -169}";
}
);
components = (
{
name = "_sad-ar.head";
transform = "{1, 0, 0, 1, 369, 0}";
}
);
layerId = "0CAB57D4-4FC4-49C3-B456-FB7666EAA712";
paths = (
{
closed = 1;
nodes = (
"0 32 LINE",
"157 32 LINE",
"157 0 LINE",
"0 0 LINE"
);
},
{
closed = 1;
nodes = (
"155 241 LINE",
"155 22 LINE",
"123 22 LINE",
"123 241 LINE"
);
}
);
width = 629.02353;
},
{
anchors = (
{
name = dotAbove;
position = "{293, 562}";
},
{
name = dotBelow;
position = "{400, -149}";
},
{
name = markAbove;
position = "{293, 606}";
},
{
name = markBelow;
position = "{400, -184}";
}
);
components = (
{
name = "_sad-ar.head";
transform = "{1, 0, 0, 1, 479, 0}";
}
);
layerId = "42B3044F-4D5A-45CA-9EB7-C1889731596B";
paths = (
{
closed = 1;
nodes = (
"0 172 LINE",
"246 172 LINE",
"246 0 LINE",
"0 0 LINE"
);
},
{
closed = 1;
nodes = (
"224 311 LINE SMOOTH",
"224 92 LINE",
"52 92 LINE",
"52 311 LINE"
);
}
);
width = 824;
}
);
},
{
color = 0;
glyphname = "sadTwodotsbelow-ar";
layers = (
{
layerId = master01;
paths = (
{
closed = 1;
nodes = (
"0 800 LINE",
"1000 800 LINE",
"1000 -200 LINE",
"0 -200 LINE"
);
}
);
width = 1000;
},
{
layerId = "0CAB57D4-4FC4-49C3-B456-FB7666EAA712";
paths = (
{
closed = 1;
nodes = (
"0 800 LINE",
"1000 800 LINE",
"1000 -200 LINE",
"0 -200 LINE"
);
}
);
width = 1000;
},
{
layerId = "42B3044F-4D5A-45CA-9EB7-C1889731596B";
paths = (
{
closed = 1;
nodes = (
"0 800 LINE",
"1000 800 LINE",
"1000 -200 LINE",
"0 -200 LINE"
);
}
);
width = 1000;
}
);
unicode = 069D;
},
{
color = 0;
glyphname = "sadThreedots-ar";
layers = (
{
layerId = master01;
paths = (
{
closed = 1;
nodes = (
"0 800 LINE",
"1000 800 LINE",
"1000 -200 LINE",
"0 -200 LINE"
);
}
);
width = 1000;
},
{
layerId = "0CAB57D4-4FC4-49C3-B456-FB7666EAA712";
paths = (
{
closed = 1;
nodes = (
"0 800 LINE",
"1000 800 LINE",
"1000 -200 LINE",
"0 -200 LINE"
);
}
);
width = 1000;
},
{
layerId = "42B3044F-4D5A-45CA-9EB7-C1889731596B";
paths = (
{
closed = 1;
nodes = (
"0 800 LINE",
"1000 800 LINE",
"1000 -200 LINE",
"0 -200 LINE"
);
}
);
width = 1000;
}
);
unicode = 069E;
},
{
color = 0;
glyphname = "dad-ar";
layers = (
{
layerId = master01;
paths = (
{
closed = 1;
nodes = (
"0 800 LINE",
"1000 800 LINE",
"1000 -200 LINE",
"0 -200 LINE"
);
}
);
width = 1000;
},
{
layerId = "0CAB57D4-4FC4-49C3-B456-FB7666EAA712";
paths = (
{
closed = 1;
nodes = (
"0 800 LINE",
"1000 800 LINE",
"1000 -200 LINE",
"0 -200 LINE"
);
}
);
width = 1000;
},
{
layerId = "42B3044F-4D5A-45CA-9EB7-C1889731596B";
paths = (
{
closed = 1;
nodes = (
"0 800 LINE",
"1000 800 LINE",
"1000 -200 LINE",
"0 -200 LINE"
);
}
);
width = 1000;
}
);
unicode = 0636;
},
{
color = 0;
glyphname = "dadDotbelow-ar";
layers = (
{
layerId = master01;
paths = (
{
closed = 1;
nodes = (
"0 800 LINE",
"1000 800 LINE",
"1000 -200 LINE",
"0 -200 LINE"
);
}
);
width = 1000;
},
{
layerId = "0CAB57D4-4FC4-49C3-B456-FB7666EAA712";
paths = (
{
closed = 1;
nodes = (
"0 800 LINE",
"1000 800 LINE",
"1000 -200 LINE",
"0 -200 LINE"
);
}
);
width = 1000;
},
{
layerId = "42B3044F-4D5A-45CA-9EB7-C1889731596B";
paths = (
{
closed = 1;
nodes = (
"0 800 LINE",
"1000 800 LINE",
"1000 -200 LINE",
"0 -200 LINE"
);
}
);
width = 1000;
}
);
unicode = 06FB;
},
{
glyphname = "tah-ar";
layers = (
{
anchors = (
{
name = dotAbove;
position = "{382, 485}";
},
{
name = dotBelow;
position = "{345, -110}";
},
{
name = markAbove;
position = "{382, 522}";
},
{
name = markBelow;
position = "{345, -136}";
}
);
layerId = master01;
paths = (
{
closed = 1;
nodes = (
"231 624 LINE",
"231 259.089 LINE SMOOTH",
"231 163.743 OFFCURVE",
"213 97 OFFCURVE",
"207 64 CURVE",
"141 64 LINE",
"151 121.291 OFFCURVE",
"151 176.19 OFFCURVE",
"151 230.095 CURVE SMOOTH",
"151 624 LINE"
);
},
{
closed = 1;
nodes = (
"45.825 78.824 LINE",
"521.825 78.824 LINE",
"518.325 75.324 OFFCURVE",
"515.325 72.324 OFFCURVE",
"511.825 68.824 CURVE",
"510.825 156.824 LINE SMOOTH",
"509.973 231.826 OFFCURVE",
"490.825 255.824 OFFCURVE",
"458.825 268.824 CURVE SMOOTH",
"388.825 294.824 OFFCURVE",
"309 208 OFFCURVE",
"191 33 CURVE",
"140 63 LINE",
"223 211 OFFCURVE",
"329.825 401.824 OFFCURVE",
"487.825 342.824 CURVE SMOOTH",
"556.825 313.824 OFFCURVE",
"587.159 246.806 OFFCURVE",
"589.825 158.824 CURVE SMOOTH",
"591.825 92.824 LINE SMOOTH",
"593.401 40.838 OFFCURVE",
"549.825 -0.176 OFFCURVE",
"498.825 -0.176 CURVE SMOOTH",
"45.825 -0.176 LINE"
);
}
);
width = 637.86685;
},
{
anchors = (
{
name = dotAbove;
position = "{399, 485}";
},
{
name = dotBelow;
position = "{362, -110}";
},
{
name = markAbove;
position = "{399, 523}";
},
{
name = markBelow;
position = "{362, -130}";
}
);
layerId = "0CAB57D4-4FC4-49C3-B456-FB7666EAA712";
paths = (
{
closed = 1;
nodes = (
"180 624 LINE",
"180 128.476 LINE SMOOTH",
"180 91.21 OFFCURVE",
"180 59.267 OFFCURVE",
"173 22 CURVE",
"144 22 LINE",
"148 53.559 OFFCURVE",
"148 80.61 OFFCURVE",
"148 112.17 CURVE SMOOTH",
"148 624 LINE"
);
},
{
closed = 1;
nodes = (
"39.637 31.906 LINE",
"506.637 31.906 LINE SMOOTH",
"529.637 31.906 OFFCURVE",
"544.196 47.888 OFFCURVE",
"543.637 66.906 CURVE SMOOTH",
"541.637 134.906 LINE SMOOTH",
"539.313 213.897 OFFCURVE",
"518.232 251.399 OFFCURVE",
"475.637 267.906 CURVE SMOOTH",
"372.942 307.704 OFFCURVE",
"264 157 OFFCURVE",
"162 15 CURVE",
"141 28 LINE",
"240 167 OFFCURVE",
"352.943 349.689 OFFCURVE",
"486.637 297.906 CURVE SMOOTH",
"544.3 275.572 OFFCURVE",
"571.061 219.891 OFFCURVE",
"573.637 134.906 CURVE SMOOTH",
"575.637 68.906 LINE SMOOTH",
"576.788 30.911 OFFCURVE",
"545.637 -0.094 OFFCURVE",
"506.637 -0.094 CURVE SMOOTH",
"39.637 -0.094 LINE"
);
}
);
width = 615.6675;
},
{
anchors = (
{
name = dotAbove;
position = "{458, 562}";
},
{
name = dotBelow;
position = "{313, -110}";
},
{
name = markAbove;
position = "{458, 610}";
},
{
name = markBelow;
position = "{313, -145}";
}
);
layerId = "42B3044F-4D5A-45CA-9EB7-C1889731596B";
paths = (
{
closed = 1;
nodes = (
"333 624 LINE",
"333 409.204 LINE SMOOTH",
"333 308.683 OFFCURVE",
"335 222.522 OFFCURVE",
"323 122 CURVE",
"151 122 LINE",
"164 207.785 OFFCURVE",
"161 281.315 OFFCURVE",
"161 367.099 CURVE SMOOTH",
"161 624 LINE"
);
},
{
closed = 1;
nodes = (
"60.147 171.551 LINE",
"544.147 171.551 LINE",
"537.147 164.551 OFFCURVE",
"531.147 158.551 OFFCURVE",
"524.147 151.551 CURVE",
"525.147 202.551 LINE",
"523.147 267.551 OFFCURVE",
"509.147 268.551 OFFCURVE",
"501.147 272.551 CURVE SMOOTH",
"458.147 286.551 OFFCURVE",
"333 198 OFFCURVE",
"259 86 CURVE",
"202 136 LINE",
"232 248 OFFCURVE",
"366.147 505.551 OFFCURVE",
"564.147 432.551 CURVE SMOOTH",
"657.147 393.551 OFFCURVE",
"692.208 303.527 OFFCURVE",
"695.147 206.551 CURVE SMOOTH",
"697.147 140.551 LINE SMOOTH",
"699.511 62.529 OFFCURVE",
"635.147 -0.449 OFFCURVE",
"558.147 -0.449 CURVE SMOOTH",
"60.147 -0.449 LINE"
);
}
);
width = 757.21015;
}
);
unicode = 0637;
},
{
color = 0;
glyphname = "tahThreedots-ar";
layers = (
{
layerId = master01;
paths = (
{
closed = 1;
nodes = (
"0 800 LINE",
"1000 800 LINE",
"1000 -200 LINE",
"0 -200 LINE"
);
}
);
width = 1000;
},
{
layerId = "0CAB57D4-4FC4-49C3-B456-FB7666EAA712";
paths = (
{
closed = 1;
nodes = (
"0 800 LINE",
"1000 800 LINE",
"1000 -200 LINE",
"0 -200 LINE"
);
}
);
width = 1000;
},
{
layerId = "42B3044F-4D5A-45CA-9EB7-C1889731596B";
paths = (
{
closed = 1;
nodes = (
"0 800 LINE",
"1000 800 LINE",
"1000 -200 LINE",
"0 -200 LINE"
);
}
);
width = 1000;
}
);
unicode = 069F;
},
{
color = 0;
glyphname = "zah-ar";
layers = (
{
layerId = master01;
paths = (
{
closed = 1;
nodes = (
"0 800 LINE",
"1000 800 LINE",
"1000 -200 LINE",
"0 -200 LINE"
);
}
);
width = 1000;
},
{
layerId = "0CAB57D4-4FC4-49C3-B456-FB7666EAA712";
paths = (
{
closed = 1;
nodes = (
"0 800 LINE",
"1000 800 LINE",
"1000 -200 LINE",
"0 -200 LINE"
);
}
);
width = 1000;
},
{
layerId = "42B3044F-4D5A-45CA-9EB7-C1889731596B";
paths = (
{
closed = 1;
nodes = (
"0 800 LINE",
"1000 800 LINE",
"1000 -200 LINE",
"0 -200 LINE"
);
}
);
width = 1000;
}
);
unicode = 0638;
},
{
glyphname = "ain-ar";
layers = (
{
anchors = (
{
name = dotAbove;
position = "{242, 517}";
},
{
name = dotBelow;
position = "{265, -22}";
},
{
name = markAbove;
position = "{242, 555}";
},
{
name = markBelow;
position = "{265, -242}";
}
);
layerId = master01;
paths = (
{
closed = 1;
nodes = (
"415 -200 LINE",
"127 -200 LINE SMOOTH",
"80 -200 OFFCURVE",
"46 -160 OFFCURVE",
"46 -114 CURVE SMOOTH",
"46 64 LINE SMOOTH",
"46 109 OFFCURVE",
"78 151 OFFCURVE",
"129 151 CURVE SMOOTH",
"415 151 LINE",
"415 72 LINE",
"115 72 LINE",
"118.5 75.5 OFFCURVE",
"121.5 78.5 OFFCURVE",
"125 82 CURVE",
"125 -132 LINE",
"121.5 -128.5 OFFCURVE",
"118.5 -125.5 OFFCURVE",
"115 -122 CURVE",
"415 -122 LINE"
);
},
{
closed = 1;
nodes = (
"361 278 LINE",
"345 285 OFFCURVE",
"331 290 OFFCURVE",
"318 293 CURVE SMOOTH",
"259 310 OFFCURVE",
"224 300 OFFCURVE",
"213 290 CURVE SMOOTH",
"203 280 OFFCURVE",
"188 235 OFFCURVE",
"277 139 CURVE",
"218 85 LINE",
"128 182 OFFCURVE",
"93 286 OFFCURVE",
"160 347 CURVE SMOOTH",
"203 387 OFFCURVE",
"269 389 OFFCURVE",
"339 369 CURVE SMOOTH",
"356 365 OFFCURVE",
"374 358 OFFCURVE",
"391 351 CURVE"
);
}
);
width = 462;
},
{
anchors = (
{
name = dotAbove;
position = "{213, 484}";
},
{
name = dotBelow;
position = "{236, -46}";
},
{
name = markAbove;
position = "{213, 521}";
},
{
name = markBelow;
position = "{236, -246}";
}
);
layerId = "0CAB57D4-4FC4-49C3-B456-FB7666EAA712";
paths = (
{
closed = 1;
nodes = (
"386 -201 LINE",
"98 -201 LINE SMOOTH",
"64 -201 OFFCURVE",
"40 -172 OFFCURVE",
"40 -138 CURVE SMOOTH",
"40 39 LINE SMOOTH",
"40 70.016 OFFCURVE",
"58 103 OFFCURVE",
"100 103 CURVE SMOOTH",
"386 103 LINE",
"386 71 LINE",
"100 71 LINE SMOOTH",
"80 71 OFFCURVE",
"73 61 OFFCURVE",
"72 39 CURVE",
"72 -138 LINE SMOOTH",
"72 -158 OFFCURVE",
"84 -169 OFFCURVE",
"98 -169 CURVE SMOOTH",
"386 -169 LINE"
);
},
{
closed = 1;
nodes = (
"341 275 LINE",
"324 282 OFFCURVE",
"309 288 OFFCURVE",
"295 292 CURVE SMOOTH",
"233 309 OFFCURVE",
"188 302 OFFCURVE",
"168 283 CURVE SMOOTH",
"141 258 OFFCURVE",
"141 195 OFFCURVE",
"230 99 CURVE",
"206 77 LINE",
"117 174 OFFCURVE",
"97 260 OFFCURVE",
"147 306 CURVE SMOOTH",
"180 337 OFFCURVE",
"237 341 OFFCURVE",
"303 322 CURVE SMOOTH",
"319 318 OFFCURVE",
"336 312 OFFCURVE",
"353 305 CURVE"
);
}
);
width = 426;
},
{
anchors = (
{
name = dotAbove;
position = "{273, 596}";
},
{
name = dotBelow;
position = "{338, -52}";
},
{
name = markAbove;
position = "{273, 640}";
},
{
name = markBelow;
position = "{338, -277}";
}
);
layerId = "42B3044F-4D5A-45CA-9EB7-C1889731596B";
paths = (
{
closed = 1;
nodes = (
"476 -229 LINE",
"188 -229 LINE SMOOTH",
"115 -229 OFFCURVE",
"60 -166 OFFCURVE",
"60 -96 CURVE SMOOTH",
"60 83 LINE SMOOTH",
"60 155 OFFCURVE",
"116 215 OFFCURVE",
"190 215 CURVE SMOOTH",
"476 215 LINE",
"476 43 LINE",
"212 43 LINE",
"219 50 OFFCURVE",
"225 56 OFFCURVE",
"232 63 CURVE",
"232 -77 LINE",
"225 -70 OFFCURVE",
"219 -64 OFFCURVE",
"212 -57 CURVE",
"476 -57 LINE"
);
},
{
closed = 1;
nodes = (
"404 278 LINE",
"388 285 OFFCURVE",
"376 289 OFFCURVE",
"366 292 CURVE SMOOTH",
"342 299 OFFCURVE",
"325 300 OFFCURVE",
"314 299 CURVE",
"319 282 OFFCURVE",
"336 252 OFFCURVE",
"371 214 CURVE",
"245 98 LINE",
"157 194 OFFCURVE",
"93 321 OFFCURVE",
"180 416 CURVE SMOOTH",
"238 479 OFFCURVE",
"331 481 OFFCURVE",
"412 458 CURVE SMOOTH",
"432 453 OFFCURVE",
"452 446 OFFCURVE",
"470 438 CURVE"
);
}
);
width = 536;
}
);
unicode = 0639;
},
{
glyphname = "ain-ar.init";
production = uni0639.init;
layers = (
{
anchors = (
{
name = dotAbove;
position = "{253, 482}";
},
{
name = dotBelow;
position = "{254, -149}";
},
{
name = markAbove;
position = "{253, 519}";
},
{
name = markBelow;
position = "{254, -176}";
}
);
layerId = master01;
paths = (
{
closed = 1;
nodes = (
"0 79 LINE",
"468 79 LINE",
"468 0 LINE",
"305.863 0 LINE",
"288.578 0 OFFCURVE",
"276.423 13.317 OFFCURVE",
"249.49 13 CURVE SMOOTH",
"222.182 12.679 OFFCURVE",
"209 0 OFFCURVE",
"192.05 0 CURVE",
"0 0 LINE"
);
},
{
closed = 1;
nodes = (
"407 256 LINE",
"277 295 OFFCURVE",
"205 278 OFFCURVE",
"185 258 CURVE SMOOTH",
"168 241 OFFCURVE",
"163 181 OFFCURVE",
"269 79 CURVE",
"213 22 LINE",
"108 124 OFFCURVE",
"57 238 OFFCURVE",
"128 312 CURVE SMOOTH",
"186 372 OFFCURVE",
"295 372 OFFCURVE",
"429 331 CURVE"
);
}
);
width = 514;
},
{
anchors = (
{
name = dotAbove;
position = "{253, 462}";
},
{
name = dotBelow;
position = "{254, -150}";
},
{
name = markAbove;
position = "{253, 499}";
},
{
name = markBelow;
position = "{254, -170}";
}
);
layerId = "0CAB57D4-4FC4-49C3-B456-FB7666EAA712";
paths = (
{
closed = 1;
nodes = (
"0 32 LINE",
"468 32 LINE",
"468 0 LINE",
"275.863 0 LINE",
"262.578 0 OFFCURVE",
"260.429 8 OFFCURVE",
"248.49 8 CURVE SMOOTH",
"237 8 OFFCURVE",
"235 0 OFFCURVE",
"222.05 0 CURVE",
"0 0 LINE"
);
},
{
closed = 1;
nodes = (
"413 249 LINE",
"282 288 OFFCURVE",
"199 276 OFFCURVE",
"168 244 CURVE SMOOTH",
"135 210 OFFCURVE",
"146 134 OFFCURVE",
"252 32 CURVE",
"230 10 LINE",
"125 112 OFFCURVE",
"90 209 OFFCURVE",
"145 266 CURVE SMOOTH",
"191 314 OFFCURVE",
"290 319 OFFCURVE",
"423 279 CURVE"
);
}
);
width = 508;
},
{
anchors = (
{
name = dotAbove;
position = "{237, 617}";
},
{
name = dotBelow;
position = "{274, -150}";
},
{
name = markAbove;
position = "{237, 661}";
},
{
name = markBelow;
position = "{274, -185}";
}
);
layerId = "42B3044F-4D5A-45CA-9EB7-C1889731596B";
paths = (
{
closed = 1;
nodes = (
"0 172 LINE",
"488 172 LINE",
"488 0 LINE",
"375.863 0 LINE",
"328.578 0 OFFCURVE",
"321.424 16.232 OFFCURVE",
"284.49 16 CURVE SMOOTH",
"247.181 15.766 OFFCURVE",
"239 0 OFFCURVE",
"192.05 0 CURVE",
"0 0 LINE"
);
},
{
closed = 1;
nodes = (
"413 298 LINE",
"318 327 OFFCURVE",
"258 319 OFFCURVE",
"242 312 CURVE",
"244 296 OFFCURVE",
"273 237 OFFCURVE",
"344 172 CURVE",
"223 54 LINE",
"104 164 OFFCURVE",
"6 313 OFFCURVE",
"113 428 CURVE SMOOTH",
"193 514 OFFCURVE",
"327 503 OFFCURVE",
"463 462 CURVE"
);
}
);
width = 548;
}
);
},
{
color = 0;
glyphname = "ainThreedots-ar";
layers = (
{
layerId = master01;
paths = (
{
closed = 1;
nodes = (
"0 800 LINE",
"1000 800 LINE",
"1000 -200 LINE",
"0 -200 LINE"
);
}
);
width = 1000;
},
{
layerId = "0CAB57D4-4FC4-49C3-B456-FB7666EAA712";
paths = (
{
closed = 1;
nodes = (
"0 800 LINE",
"1000 800 LINE",
"1000 -200 LINE",
"0 -200 LINE"
);
}
);
width = 1000;
},
{
layerId = "42B3044F-4D5A-45CA-9EB7-C1889731596B";
paths = (
{
closed = 1;
nodes = (
"0 800 LINE",
"1000 800 LINE",
"1000 -200 LINE",
"0 -200 LINE"
);
}
);
width = 1000;
}
);
unicode = 06A0;
},
{
color = 0;
glyphname = "ghain-ar";
layers = (
{
layerId = master01;
paths = (
{
closed = 1;
nodes = (
"0 800 LINE",
"1000 800 LINE",
"1000 -200 LINE",
"0 -200 LINE"
);
}
);
width = 1000;
},
{
layerId = "0CAB57D4-4FC4-49C3-B456-FB7666EAA712";
paths = (
{
closed = 1;
nodes = (
"0 800 LINE",
"1000 800 LINE",
"1000 -200 LINE",
"0 -200 LINE"
);
}
);
width = 1000;
},
{
layerId = "42B3044F-4D5A-45CA-9EB7-C1889731596B";
paths = (
{
closed = 1;
nodes = (
"0 800 LINE",
"1000 800 LINE",
"1000 -200 LINE",
"0 -200 LINE"
);
}
);
width = 1000;
}
);
unicode = 063A;
},
{
color = 0;
glyphname = "ghainDotbelow-ar";
layers = (
{
layerId = master01;
paths = (
{
closed = 1;
nodes = (
"0 800 LINE",
"1000 800 LINE",
"1000 -200 LINE",
"0 -200 LINE"
);
}
);
width = 1000;
},
{
layerId = "0CAB57D4-4FC4-49C3-B456-FB7666EAA712";
paths = (
{
closed = 1;
nodes = (
"0 800 LINE",
"1000 800 LINE",
"1000 -200 LINE",
"0 -200 LINE"
);
}
);
width = 1000;
},
{
layerId = "42B3044F-4D5A-45CA-9EB7-C1889731596B";
paths = (
{
closed = 1;
nodes = (
"0 800 LINE",
"1000 800 LINE",
"1000 -200 LINE",
"0 -200 LINE"
);
}
);
width = 1000;
}
);
unicode = 06FC;
},
{
color = 0;
glyphname = "feh-ar";
layers = (
{
layerId = master01;
paths = (
{
closed = 1;
nodes = (
"0 800 LINE",
"1000 800 LINE",
"1000 -200 LINE",
"0 -200 LINE"
);
}
);
width = 1000;
},
{
layerId = "0CAB57D4-4FC4-49C3-B456-FB7666EAA712";
paths = (
{
closed = 1;
nodes = (
"0 800 LINE",
"1000 800 LINE",
"1000 -200 LINE",
"0 -200 LINE"
);
}
);
width = 1000;
},
{
layerId = "42B3044F-4D5A-45CA-9EB7-C1889731596B";
paths = (
{
closed = 1;
nodes = (
"0 800 LINE",
"1000 800 LINE",
"1000 -200 LINE",
"0 -200 LINE"
);
}
);
width = 1000;
}
);
unicode = 0641;
},
{
color = 0;
glyphname = "veh-ar";
layers = (
{
layerId = master01;
paths = (
{
closed = 1;
nodes = (
"0 800 LINE",
"1000 800 LINE",
"1000 -200 LINE",
"0 -200 LINE"
);
}
);
width = 1000;
},
{
layerId = "0CAB57D4-4FC4-49C3-B456-FB7666EAA712";
paths = (
{
closed = 1;
nodes = (
"0 800 LINE",
"1000 800 LINE",
"1000 -200 LINE",
"0 -200 LINE"
);
}
);
width = 1000;
},
{
layerId = "42B3044F-4D5A-45CA-9EB7-C1889731596B";
paths = (
{
closed = 1;
nodes = (
"0 800 LINE",
"1000 800 LINE",
"1000 -200 LINE",
"0 -200 LINE"
);
}
);
width = 1000;
}
);
unicode = 06A4;
},
{
glyphname = "fehDotless-ar";
layers = (
{
anchors = (
{
name = dotAbove;
position = "{591, 609}";
},
{
name = dotBelow;
position = "{401, -99}";
},
{
name = markAbove;
position = "{591, 645}";
},
{
name = markBelow;
position = "{401, -125}";
}
);
layerId = master01;
paths = (
{
closed = 1;
nodes = (
"629 147 OFFCURVE",
"501 123 OFFCURVE",
"440 223 CURVE SMOOTH",
"387 312 OFFCURVE",
"432 415 OFFCURVE",
"496 457 CURVE SMOOTH",
"568 503 OFFCURVE",
"690 497 OFFCURVE",
"746 409 CURVE SMOOTH",
"762 384 OFFCURVE",
"771 352 OFFCURVE",
"771 317 CURVE SMOOTH",
"771 94 LINE SMOOTH",
"771 46 OFFCURVE",
"732 0 OFFCURVE",
"676 0 CURVE SMOOTH",
"184 0 LINE SMOOTH",
"110 0 OFFCURVE",
"46 53 OFFCURVE",
"46 134 CURVE SMOOTH",
"46 286 LINE",
"125 286 LINE",
"125 134 LINE SMOOTH",
"125 99 OFFCURVE",
"145 80 OFFCURVE",
"184 80 CURVE SMOOTH",
"702 80 LINE",
"698.5 76.5 OFFCURVE",
"695.5 73.5 OFFCURVE",
"692 70 CURVE",
"692 317 LINE SMOOTH",
"692 350 OFFCURVE",
"674 375 OFFCURVE",
"649 387 CURVE SMOOTH",
"622 411 OFFCURVE",
"573 413 OFFCURVE",
"539 392 CURVE SMOOTH",
"505 369 OFFCURVE",
"480 307 OFFCURVE",
"507 263 CURVE SMOOTH",
"540 208 OFFCURVE",
"584 205 OFFCURVE",
"731 214 CURVE",
"731 154 LINE"
);
}
);
width = 817;
},
{
anchors = (
{
name = dotAbove;
position = "{569, 549}";
},
{
name = dotBelow;
position = "{379, -100}";
},
{
name = markAbove;
position = "{569, 587}";
},
{
name = markBelow;
position = "{379, -120}";
}
);
layerId = "0CAB57D4-4FC4-49C3-B456-FB7666EAA712";
paths = (
{
closed = 1;
nodes = (
"607 93 OFFCURVE",
"487 78 OFFCURVE",
"430 172 CURVE SMOOTH",
"385 247 OFFCURVE",
"424 338 OFFCURVE",
"479 374 CURVE SMOOTH",
"541 414 OFFCURVE",
"650 407 OFFCURVE",
"697 333 CURVE SMOOTH",
"710 312 OFFCURVE",
"718 285 OFFCURVE",
"718 254 CURVE SMOOTH",
"718 70 LINE SMOOTH",
"718 35 OFFCURVE",
"690 0 OFFCURVE",
"647 0 CURVE SMOOTH",
"155 0 LINE SMOOTH",
"91 0 OFFCURVE",
"40 43 OFFCURVE",
"40 110 CURVE SMOOTH",
"40 262 LINE",
"72 262 LINE",
"72 110 LINE SMOOTH",
"72 61 OFFCURVE",
"105 32 OFFCURVE",
"155 32 CURVE SMOOTH",
"647 32 LINE SMOOTH",
"672 32 OFFCURVE",
"686 51 OFFCURVE",
"686 70 CURVE SMOOTH",
"686 254 LINE SMOOTH",
"686 280 OFFCURVE",
"680 300 OFFCURVE",
"670 316 CURVE SMOOTH",
"635 372 OFFCURVE",
"547 380 OFFCURVE",
"497 348 CURVE SMOOTH",
"454 320 OFFCURVE",
"423 245 OFFCURVE",
"458 188 CURVE SMOOTH",
"502 115 OFFCURVE",
"585 125 OFFCURVE",
"700 137 CURVE",
"700 105 LINE"
);
}
);
width = 758;
},
{
anchors = (
{
name = dotAbove;
position = "{649, 758}";
},
{
name = dotBelow;
position = "{499, -140}";
},
{
name = markAbove;
position = "{649, 806}";
},
{
name = markBelow;
position = "{499, -175}";
}
);
layerId = "42B3044F-4D5A-45CA-9EB7-C1889731596B";
paths = (
{
closed = 1;
nodes = (
"646 215 OFFCURVE",
"524 200 OFFCURVE",
"460 306 CURVE SMOOTH",
"390 421 OFFCURVE",
"449 549 OFFCURVE",
"531 603 CURVE SMOOTH",
"621 661 OFFCURVE",
"773 657 OFFCURVE",
"846 541 CURVE SMOOTH",
"867 508 OFFCURVE",
"878 467 OFFCURVE",
"878 424 CURVE SMOOTH",
"878 140 LINE SMOOTH",
"878 63 OFFCURVE",
"815 0 OFFCURVE",
"737 0 CURVE SMOOTH",
"245 0 LINE SMOOTH",
"148 0 OFFCURVE",
"60 73 OFFCURVE",
"60 180 CURVE SMOOTH",
"60 332 LINE",
"232 332 LINE",
"232 152 LINE",
"225 159 OFFCURVE",
"219 165 OFFCURVE",
"212 172 CURVE",
"726 172 LINE",
"719 165 OFFCURVE",
"713 159 OFFCURVE",
"706 152 CURVE",
"706 414 LINE SMOOTH",
"706 446 OFFCURVE",
"691 460 OFFCURVE",
"672 466 CURVE SMOOTH",
"652 473 OFFCURVE",
"630 466 OFFCURVE",
"617 452 CURVE SMOOTH",
"600 433 OFFCURVE",
"599 409 OFFCURVE",
"608 394 CURVE SMOOTH",
"622 370 OFFCURVE",
"639 346 OFFCURVE",
"746 357 CURVE",
"746 220 LINE"
);
}
);
width = 938;
}
);
unicode = 06A1;
},
{
glyphname = "fehDotless-ar.init";
layers = (
{
anchors = (
{
name = dotAbove;
position = "{267, 609}";
},
{
name = dotBelow;
position = "{258, -143}";
},
{
name = markAbove;
position = "{267, 647}";
},
{
name = markBelow;
position = "{258, -169}";
}
);
layerId = master01;
paths = (
{
closed = 1;
nodes = (
"377 79 LINE",
"373.5 75.5 OFFCURVE",
"370.5 72.5 OFFCURVE",
"367 69 CURVE",
"367 318 LINE SMOOTH",
"367 351 OFFCURVE",
"349 376 OFFCURVE",
"324 388 CURVE SMOOTH",
"297 412 OFFCURVE",
"248 413 OFFCURVE",
"214 392 CURVE SMOOTH",
"180 370 OFFCURVE",
"156 308 OFFCURVE",
"183 264 CURVE SMOOTH",
"216 209 OFFCURVE",
"260 206 OFFCURVE",
"407 215 CURVE",
"407 155 LINE",
"304 148 OFFCURVE",
"176 123 OFFCURVE",
"115 224 CURVE SMOOTH",
"62 312 OFFCURVE",
"108 416 OFFCURVE",
"172 458 CURVE SMOOTH",
"243 503 OFFCURVE",
"366 498 OFFCURVE",
"422 410 CURVE SMOOTH",
"437 384 OFFCURVE",
"447 353 OFFCURVE",
"447 318 CURVE SMOOTH",
"447 94 LINE SMOOTH",
"447 46 OFFCURVE",
"408 0 OFFCURVE",
"352 0 CURVE SMOOTH",
"0 0 LINE",
"0 79 LINE"
);
}
);
width = 493;
},
{
anchors = (
{
name = dotAbove;
position = "{274, 590}";
},
{
name = dotBelow;
position = "{231, -150}";
},
{
name = markAbove;
position = "{274, 628}";
},
{
name = markBelow;
position = "{231, -170}";
}
);
layerId = "0CAB57D4-4FC4-49C3-B456-FB7666EAA712";
paths = (
{
closed = 1;
nodes = (
"352 32 LINE SMOOTH",
"377 32 OFFCURVE",
"391 51 OFFCURVE",
"391 70 CURVE SMOOTH",
"391 295 LINE SMOOTH",
"391 321 OFFCURVE",
"385 341 OFFCURVE",
"375 357 CURVE SMOOTH",
"340 413 OFFCURVE",
"252 421 OFFCURVE",
"202 389 CURVE SMOOTH",
"159 361 OFFCURVE",
"128 286 OFFCURVE",
"163 229 CURVE SMOOTH",
"207 156 OFFCURVE",
"290 166 OFFCURVE",
"405 178 CURVE",
"405 146 LINE",
"312 134 OFFCURVE",
"192 119 OFFCURVE",
"135 213 CURVE SMOOTH",
"90 288 OFFCURVE",
"129 379 OFFCURVE",
"184 415 CURVE SMOOTH",
"246 455 OFFCURVE",
"355 448 OFFCURVE",
"402 374 CURVE SMOOTH",
"415 353 OFFCURVE",
"423 326 OFFCURVE",
"423 295 CURVE SMOOTH",
"423 70 LINE SMOOTH",
"423 35 OFFCURVE",
"395 0 OFFCURVE",
"352 0 CURVE SMOOTH",
"0 0 LINE",
"0 32 LINE"
);
}
);
width = 463;
},
{
anchors = (
{
name = dotAbove;
position = "{264, 759}";
},
{
name = dotBelow;
position = "{273, -160}";
},
{
name = markAbove;
position = "{264, 803}";
},
{
name = markBelow;
position = "{273, -195}";
}
);
layerId = "42B3044F-4D5A-45CA-9EB7-C1889731596B";
paths = (
{
closed = 1;
nodes = (
"341 172 LINE",
"334 165 OFFCURVE",
"328 159 OFFCURVE",
"321 152 CURVE",
"321 414 LINE SMOOTH",
"321 446 OFFCURVE",
"306 460 OFFCURVE",
"287 466 CURVE SMOOTH",
"267 473 OFFCURVE",
"245 466 OFFCURVE",
"232 452 CURVE SMOOTH",
"215 433 OFFCURVE",
"214 409 OFFCURVE",
"223 394 CURVE SMOOTH",
"237 370 OFFCURVE",
"254 346 OFFCURVE",
"361 357 CURVE",
"361 220 LINE",
"261 215 OFFCURVE",
"139 200 OFFCURVE",
"75 306 CURVE SMOOTH",
"5 421 OFFCURVE",
"64 549 OFFCURVE",
"146 603 CURVE SMOOTH",
"236 661 OFFCURVE",
"388 657 OFFCURVE",
"461 541 CURVE SMOOTH",
"482 508 OFFCURVE",
"493 467 OFFCURVE",
"493 424 CURVE SMOOTH",
"493 140 LINE SMOOTH",
"493 63 OFFCURVE",
"430 0 OFFCURVE",
"352 0 CURVE SMOOTH",
"0 0 LINE",
"0 172 LINE"
);
}
);
width = 553;
}
);
},
{
color = 0;
glyphname = "fehDotmovedbelow-ar";
layers = (
{
layerId = master01;
paths = (
{
closed = 1;
nodes = (
"0 800 LINE",
"1000 800 LINE",
"1000 -200 LINE",
"0 -200 LINE"
);
}
);
width = 1000;
},
{
layerId = "0CAB57D4-4FC4-49C3-B456-FB7666EAA712";
paths = (
{
closed = 1;
nodes = (
"0 800 LINE",
"1000 800 LINE",
"1000 -200 LINE",
"0 -200 LINE"
);
}
);
width = 1000;
},
{
layerId = "42B3044F-4D5A-45CA-9EB7-C1889731596B";
paths = (
{
closed = 1;
nodes = (
"0 800 LINE",
"1000 800 LINE",
"1000 -200 LINE",
"0 -200 LINE"
);
}
);
width = 1000;
}
);
unicode = 06A2;
},
{
color = 0;
glyphname = "fehDotbelow-ar";
layers = (
{
layerId = master01;
paths = (
{
closed = 1;
nodes = (
"0 800 LINE",
"1000 800 LINE",
"1000 -200 LINE",
"0 -200 LINE"
);
}
);
width = 1000;
},
{
layerId = "0CAB57D4-4FC4-49C3-B456-FB7666EAA712";
paths = (
{
closed = 1;
nodes = (
"0 800 LINE",
"1000 800 LINE",
"1000 -200 LINE",
"0 -200 LINE"
);
}
);
width = 1000;
},
{
layerId = "42B3044F-4D5A-45CA-9EB7-C1889731596B";
paths = (
{
closed = 1;
nodes = (
"0 800 LINE",
"1000 800 LINE",
"1000 -200 LINE",
"0 -200 LINE"
);
}
);
width = 1000;
}
);
unicode = 06A3;
},
{
color = 0;
glyphname = "fehThreedotsbelow-ar";
layers = (
{
layerId = master01;
paths = (
{
closed = 1;
nodes = (
"0 800 LINE",
"1000 800 LINE",
"1000 -200 LINE",
"0 -200 LINE"
);
}
);
width = 1000;
},
{
layerId = "0CAB57D4-4FC4-49C3-B456-FB7666EAA712";
paths = (
{
closed = 1;
nodes = (
"0 800 LINE",
"1000 800 LINE",
"1000 -200 LINE",
"0 -200 LINE"
);
}
);
width = 1000;
},
{
layerId = "42B3044F-4D5A-45CA-9EB7-C1889731596B";
paths = (
{
closed = 1;
nodes = (
"0 800 LINE",
"1000 800 LINE",
"1000 -200 LINE",
"0 -200 LINE"
);
}
);
width = 1000;
}
);
unicode = 06A5;
},
{
color = 0;
glyphname = "peheh-ar";
layers = (
{
layerId = master01;
paths = (
{
closed = 1;
nodes = (
"0 800 LINE",
"1000 800 LINE",
"1000 -200 LINE",
"0 -200 LINE"
);
}
);
width = 1000;
},
{
layerId = "0CAB57D4-4FC4-49C3-B456-FB7666EAA712";
paths = (
{
closed = 1;
nodes = (
"0 800 LINE",
"1000 800 LINE",
"1000 -200 LINE",
"0 -200 LINE"
);
}
);
width = 1000;
},
{
layerId = "42B3044F-4D5A-45CA-9EB7-C1889731596B";
paths = (
{
closed = 1;
nodes = (
"0 800 LINE",
"1000 800 LINE",
"1000 -200 LINE",
"0 -200 LINE"
);
}
);
width = 1000;
}
);
unicode = 06A6;
},
{
glyphname = "qafDotless-ar";
layers = (
{
anchors = (
{
name = dotAbove;
position = "{521, 469}";
},
{
name = dotBelow;
position = "{400, -299}";
},
{
name = markAbove;
position = "{521, 505}";
},
{
name = markBelow;
position = "{400, -325}";
}
);
layerId = master01;
paths = (
{
closed = 1;
nodes = (
"559 8 OFFCURVE",
"431 -17 OFFCURVE",
"370 84 CURVE SMOOTH",
"317 172 OFFCURVE",
"362 276 OFFCURVE",
"426 318 CURVE SMOOTH",
"498 363 OFFCURVE",
"620 358 OFFCURVE",
"676 270 CURVE SMOOTH",
"692 244 OFFCURVE",
"701 213 OFFCURVE",
"701 178 CURVE SMOOTH",
"701 -106 LINE SMOOTH",
"701 -154 OFFCURVE",
"662 -200 OFFCURVE",
"606 -200 CURVE SMOOTH",
"184 -200 LINE SMOOTH",
"110 -200 OFFCURVE",
"46 -147 OFFCURVE",
"46 -66 CURVE SMOOTH",
"46 176 LINE",
"125 176 LINE",
"125 -66 LINE SMOOTH",
"125 -101 OFFCURVE",
"145 -120 OFFCURVE",
"184 -120 CURVE SMOOTH",
"632 -120 LINE",
"628.5 -123.5 OFFCURVE",
"625.5 -126.5 OFFCURVE",
"622 -130 CURVE",
"622 178 LINE SMOOTH",
"622 211 OFFCURVE",
"604 236 OFFCURVE",
"579 248 CURVE SMOOTH",
"552 272 OFFCURVE",
"503 273 OFFCURVE",
"469 252 CURVE SMOOTH",
"435 230 OFFCURVE",
"410 168 OFFCURVE",
"437 124 CURVE SMOOTH",
"470 69 OFFCURVE",
"514 66 OFFCURVE",
"661 75 CURVE",
"661 15 LINE"
);
}
);
width = 747;
},
{
anchors = (
{
name = dotAbove;
position = "{499, 450}";
},
{
name = dotBelow;
position = "{374, -299}";
},
{
name = markAbove;
position = "{499, 488}";
},
{
name = markBelow;
position = "{374, -319}";
}
);
layerId = "0CAB57D4-4FC4-49C3-B456-FB7666EAA712";
paths = (
{
closed = 1;
nodes = (
"537 -6 OFFCURVE",
"417 -21 OFFCURVE",
"360 73 CURVE SMOOTH",
"315 148 OFFCURVE",
"354 239 OFFCURVE",
"409 275 CURVE SMOOTH",
"471 315 OFFCURVE",
"580 308 OFFCURVE",
"627 234 CURVE SMOOTH",
"640 213 OFFCURVE",
"648 186 OFFCURVE",
"648 155 CURVE SMOOTH",
"648 -129 LINE SMOOTH",
"648 -164 OFFCURVE",
"620 -199 OFFCURVE",
"577 -199 CURVE SMOOTH",
"155 -199 LINE SMOOTH",
"91 -199 OFFCURVE",
"40 -156 OFFCURVE",
"40 -89 CURVE SMOOTH",
"40 153 LINE",
"72 153 LINE",
"72 -89 LINE SMOOTH",
"72 -138 OFFCURVE",
"105 -167 OFFCURVE",
"155 -167 CURVE SMOOTH",
"577 -167 LINE SMOOTH",
"602 -167 OFFCURVE",
"616 -148 OFFCURVE",
"616 -129 CURVE SMOOTH",
"616 155 LINE SMOOTH",
"616 181 OFFCURVE",
"610 201 OFFCURVE",
"600 217 CURVE SMOOTH",
"565 273 OFFCURVE",
"477 281 OFFCURVE",
"427 249 CURVE SMOOTH",
"384 221 OFFCURVE",
"353 146 OFFCURVE",
"388 89 CURVE SMOOTH",
"432 16 OFFCURVE",
"515 26 OFFCURVE",
"630 38 CURVE",
"630 6 LINE"
);
}
);
width = 688;
},
{
anchors = (
{
name = dotAbove;
position = "{579, 560}";
},
{
name = dotBelow;
position = "{429, -338}";
},
{
name = markAbove;
position = "{579, 608}";
},
{
name = markBelow;
position = "{429, -373}";
}
);
layerId = "42B3044F-4D5A-45CA-9EB7-C1889731596B";
paths = (
{
closed = 1;
nodes = (
"576 16 OFFCURVE",
"454 1 OFFCURVE",
"390 107 CURVE SMOOTH",
"320 222 OFFCURVE",
"379 350 OFFCURVE",
"461 404 CURVE SMOOTH",
"551 462 OFFCURVE",
"703 458 OFFCURVE",
"776 342 CURVE SMOOTH",
"797 309 OFFCURVE",
"808 268 OFFCURVE",
"808 225 CURVE SMOOTH",
"808 -59 LINE SMOOTH",
"808 -136 OFFCURVE",
"745 -199 OFFCURVE",
"667 -199 CURVE SMOOTH",
"245 -199 LINE SMOOTH",
"148 -199 OFFCURVE",
"60 -126 OFFCURVE",
"60 -19 CURVE SMOOTH",
"60 223 LINE",
"232 223 LINE",
"232 -47 LINE",
"225 -40 OFFCURVE",
"219 -34 OFFCURVE",
"212 -27 CURVE",
"656 -27 LINE",
"649 -34 OFFCURVE",
"643 -40 OFFCURVE",
"636 -47 CURVE",
"636 215 LINE SMOOTH",
"636 247 OFFCURVE",
"621 261 OFFCURVE",
"602 267 CURVE SMOOTH",
"582 274 OFFCURVE",
"560 267 OFFCURVE",
"547 253 CURVE SMOOTH",
"530 234 OFFCURVE",
"529 210 OFFCURVE",
"538 195 CURVE SMOOTH",
"552 171 OFFCURVE",
"569 147 OFFCURVE",
"676 158 CURVE",
"676 21 LINE"
);
}
);
width = 868;
}
);
unicode = 066F;
},
{
glyphname = "qafDotless-ar.fina";
layers = (
{
anchors = (
{
name = dotAbove;
position = "{521, 469}";
},
{
name = dotBelow;
position = "{400, -299}";
},
{
name = markAbove;
position = "{521, 505}";
},
{
name = markBelow;
position = "{400, -325}";
}
);
layerId = master01;
paths = (
{
closed = 1;
nodes = (
"805 0 LINE",
"627 0 LINE SMOOTH",
"516 0 OFFCURVE",
"426 -10 OFFCURVE",
"370 84 CURVE SMOOTH",
"316 172 OFFCURVE",
"362 276 OFFCURVE",
"426 318 CURVE SMOOTH",
"498 363 OFFCURVE",
"620 358 OFFCURVE",
"676 270 CURVE SMOOTH",
"692 244 OFFCURVE",
"700 213 OFFCURVE",
"700 178 CURVE SMOOTH",
"700 -106 LINE SMOOTH",
"700 -154 OFFCURVE",
"662 -200 OFFCURVE",
"606 -200 CURVE SMOOTH",
"184 -200 LINE SMOOTH",
"110 -200 OFFCURVE",
"46 -147 OFFCURVE",
"46 -66 CURVE SMOOTH",
"46 176 LINE",
"124 176 LINE",
"124 -66 LINE SMOOTH",
"124 -101 OFFCURVE",
"145 -120 OFFCURVE",
"184 -120 CURVE SMOOTH",
"632 -120 LINE",
"628.5 -123.5 OFFCURVE",
"625.5 -126.5 OFFCURVE",
"622 -130 CURVE",
"622 178 LINE SMOOTH",
"622 207 OFFCURVE",
"610 228 OFFCURVE",
"592 242 CURVE SMOOTH",
"561 272 OFFCURVE",
"505 275 OFFCURVE",
"468 252 CURVE SMOOTH",
"434 230 OFFCURVE",
"410 168 OFFCURVE",
"437 124 CURVE SMOOTH",
"467 74 OFFCURVE",
"502 77 OFFCURVE",
"625 79 CURVE SMOOTH",
"805 79 LINE"
);
}
);
width = 789;
},
{
anchors = (
{
name = dotAbove;
position = "{499, 450}";
},
{
name = dotBelow;
position = "{374, -299}";
},
{
name = markAbove;
position = "{499, 488}";
},
{
name = markBelow;
position = "{374, -319}";
}
);
layerId = "0CAB57D4-4FC4-49C3-B456-FB7666EAA712";
paths = (
{
closed = 1;
nodes = (
"770 0 LINE",
"628 0 LINE SMOOTH",
"469 0 OFFCURVE",
"406 -4 OFFCURVE",
"360 73 CURVE SMOOTH",
"315 148 OFFCURVE",
"354 239 OFFCURVE",
"409 275 CURVE SMOOTH",
"471 315 OFFCURVE",
"580 308 OFFCURVE",
"627 234 CURVE SMOOTH",
"640 213 OFFCURVE",
"648 186 OFFCURVE",
"648 155 CURVE SMOOTH",
"648 -129 LINE SMOOTH",
"648 -164 OFFCURVE",
"620 -199 OFFCURVE",
"577 -199 CURVE SMOOTH",
"155 -199 LINE SMOOTH",
"91 -199 OFFCURVE",
"40 -156 OFFCURVE",
"40 -89 CURVE SMOOTH",
"40 153 LINE",
"72 153 LINE",
"72 -89 LINE SMOOTH",
"72 -138 OFFCURVE",
"105 -167 OFFCURVE",
"155 -167 CURVE SMOOTH",
"577 -167 LINE SMOOTH",
"602 -167 OFFCURVE",
"616 -148 OFFCURVE",
"616 -129 CURVE SMOOTH",
"616 155 LINE SMOOTH",
"616 181 OFFCURVE",
"610 201 OFFCURVE",
"600 217 CURVE SMOOTH",
"565 273 OFFCURVE",
"477 281 OFFCURVE",
"427 249 CURVE SMOOTH",
"384 221 OFFCURVE",
"353 146 OFFCURVE",
"388 89 CURVE SMOOTH",
"424 29 OFFCURVE",
"468 29 OFFCURVE",
"623 32 CURVE SMOOTH",
"770 32 LINE"
);
}
);
width = 760;
},
{
anchors = (
{
name = dotAbove;
position = "{579, 560}";
},
{
name = dotBelow;
position = "{429, -338}";
},
{
name = markAbove;
position = "{579, 608}";
},
{
name = markBelow;
position = "{429, -373}";
}
);
layerId = "42B3044F-4D5A-45CA-9EB7-C1889731596B";
paths = (
{
closed = 1;
nodes = (
"904 0 LINE",
"646 0 LINE SMOOTH",
"555 0 OFFCURVE",
"454 0 OFFCURVE",
"390 106 CURVE SMOOTH",
"320 221 OFFCURVE",
"379 349 OFFCURVE",
"461 403 CURVE SMOOTH",
"551 461 OFFCURVE",
"703 457 OFFCURVE",
"776 341 CURVE SMOOTH",
"797 308 OFFCURVE",
"808 267 OFFCURVE",
"808 224 CURVE SMOOTH",
"808 -60 LINE SMOOTH",
"808 -137 OFFCURVE",
"745 -200 OFFCURVE",
"667 -200 CURVE SMOOTH",
"245 -200 LINE SMOOTH",
"148 -200 OFFCURVE",
"60 -127 OFFCURVE",
"60 -20 CURVE SMOOTH",
"60 222 LINE",
"232 222 LINE",
"232 -48 LINE",
"225 -41 OFFCURVE",
"219 -35 OFFCURVE",
"212 -28 CURVE",
"656 -28 LINE",
"649 -35 OFFCURVE",
"643 -41 OFFCURVE",
"636 -48 CURVE",
"636 214 LINE SMOOTH",
"636 246 OFFCURVE",
"621 260 OFFCURVE",
"602 266 CURVE SMOOTH",
"582 273 OFFCURVE",
"560 266 OFFCURVE",
"547 252 CURVE SMOOTH",
"530 233 OFFCURVE",
"529 209 OFFCURVE",
"538 194 CURVE SMOOTH",
"552 170 OFFCURVE",
"559 172 OFFCURVE",
"646 172 CURVE SMOOTH",
"904 172 LINE"
);
}
);
width = 884;
}
);
},
{
color = 0;
glyphname = "qaf-ar";
layers = (
{
layerId = master01;
paths = (
{
closed = 1;
nodes = (
"0 800 LINE",
"1000 800 LINE",
"1000 -200 LINE",
"0 -200 LINE"
);
}
);
width = 1000;
},
{
layerId = "0CAB57D4-4FC4-49C3-B456-FB7666EAA712";
paths = (
{
closed = 1;
nodes = (
"0 800 LINE",
"1000 800 LINE",
"1000 -200 LINE",
"0 -200 LINE"
);
}
);
width = 1000;
},
{
layerId = "42B3044F-4D5A-45CA-9EB7-C1889731596B";
paths = (
{
closed = 1;
nodes = (
"0 800 LINE",
"1000 800 LINE",
"1000 -200 LINE",
"0 -200 LINE"
);
}
);
width = 1000;
}
);
unicode = 0642;
},
{
color = 0;
glyphname = "qafDotabove-ar";
layers = (
{
layerId = master01;
paths = (
{
closed = 1;
nodes = (
"0 800 LINE",
"1000 800 LINE",
"1000 -200 LINE",
"0 -200 LINE"
);
}
);
width = 1000;
},
{
layerId = "0CAB57D4-4FC4-49C3-B456-FB7666EAA712";
paths = (
{
closed = 1;
nodes = (
"0 800 LINE",
"1000 800 LINE",
"1000 -200 LINE",
"0 -200 LINE"
);
}
);
width = 1000;
},
{
layerId = "42B3044F-4D5A-45CA-9EB7-C1889731596B";
paths = (
{
closed = 1;
nodes = (
"0 800 LINE",
"1000 800 LINE",
"1000 -200 LINE",
"0 -200 LINE"
);
}
);
width = 1000;
}
);
unicode = 06A7;
},
{
color = 0;
glyphname = "qafThreedotsabove-ar";
layers = (
{
layerId = master01;
paths = (
{
closed = 1;
nodes = (
"0 800 LINE",
"1000 800 LINE",
"1000 -200 LINE",
"0 -200 LINE"
);
}
);
width = 1000;
},
{
layerId = "0CAB57D4-4FC4-49C3-B456-FB7666EAA712";
paths = (
{
closed = 1;
nodes = (
"0 800 LINE",
"1000 800 LINE",
"1000 -200 LINE",
"0 -200 LINE"
);
}
);
width = 1000;
},
{
layerId = "42B3044F-4D5A-45CA-9EB7-C1889731596B";
paths = (
{
closed = 1;
nodes = (
"0 800 LINE",
"1000 800 LINE",
"1000 -200 LINE",
"0 -200 LINE"
);
}
);
width = 1000;
}
);
unicode = 06A8;
},
{
glyphname = "kafDotless-ar";
layers = (
{
anchors = (
{
name = dotAbove;
position = "{488, 673}";
},
{
name = dotBelow;
position = "{287, -109}";
},
{
name = hamzaAbove;
position = "{252, 271}";
},
{
name = kafAbove;
position = "{252, 271}";
},
{
name = markAbove;
position = "{488, 710}";
},
{
name = markBelow;
position = "{287, -136}";
}
);
layerId = master01;
paths = (
{
closed = 1;
nodes = (
"191 0 LINE",
"111 0 LINE",
"46 79 LINE",
"127 79 LINE"
);
},
{
closed = 1;
nodes = (
"526 624 LINE",
"526 92 LINE SMOOTH",
"526 41 OFFCURVE",
"485 0 OFFCURVE",
"433 0 CURVE SMOOTH",
"111 0 LINE",
"111 79 LINE",
"457 79 LINE",
"453.5 75.5 OFFCURVE",
"450.5 72.5 OFFCURVE",
"447 69 CURVE",
"447 624 LINE"
);
}
);
width = 572;
},
{
anchors = (
{
name = dotAbove;
position = "{440, 673}";
},
{
name = dotBelow;
position = "{239, -110}";
},
{
name = hamzaAbove;
position = "{230, 270}";
},
{
name = kafAbove;
position = "{230, 270}";
},
{
name = markAbove;
position = "{440, 711}";
},
{
name = markBelow;
position = "{239, -130}";
}
);
layerId = "0CAB57D4-4FC4-49C3-B456-FB7666EAA712";
paths = (
{
closed = 1;
nodes = (
"106 0 LINE",
"64 0 LINE",
"40 32 LINE",
"82 32 LINE"
);
},
{
closed = 1;
nodes = (
"456 624 LINE",
"456 70 LINE SMOOTH",
"456 35 OFFCURVE",
"430 0 OFFCURVE",
"386 0 CURVE SMOOTH",
"64 0 LINE",
"64 32 LINE",
"386 32 LINE SMOOTH",
"410 32 OFFCURVE",
"424 51 OFFCURVE",
"424 70 CURVE SMOOTH",
"424 624 LINE"
);
}
);
width = 496;
},
{
anchors = (
{
name = dotAbove;
position = "{573, 673}";
},
{
name = dotBelow;
position = "{362, -109}";
},
{
name = hamzaAbove;
position = "{300, 311}";
},
{
name = kafAbove;
position = "{300, 311}";
},
{
name = markAbove;
position = "{573, 721}";
},
{
name = markBelow;
position = "{362, -144}";
}
);
layerId = "42B3044F-4D5A-45CA-9EB7-C1889731596B";
paths = (
{
closed = 1;
nodes = (
"366 0 LINE",
"204 0 LINE",
"60 172 LINE",
"222 172 LINE"
);
},
{
closed = 1;
nodes = (
"666 624 LINE",
"666 138 LINE SMOOTH",
"666 62 OFFCURVE",
"603 0 OFFCURVE",
"527 0 CURVE SMOOTH",
"204 0 LINE",
"204 172 LINE",
"514 172 LINE",
"507 165 OFFCURVE",
"501 159 OFFCURVE",
"494 152 CURVE",
"494 624 LINE"
);
}
);
width = 726;
}
);
},
{
color = 0;
glyphname = "kaf-ar";
layers = (
{
layerId = master01;
paths = (
{
closed = 1;
nodes = (
"0 800 LINE",
"1000 800 LINE",
"1000 -200 LINE",
"0 -200 LINE"
);
}
);
width = 1000;
},
{
layerId = "0CAB57D4-4FC4-49C3-B456-FB7666EAA712";
paths = (
{
closed = 1;
nodes = (
"0 800 LINE",
"1000 800 LINE",
"1000 -200 LINE",
"0 -200 LINE"
);
}
);
width = 1000;
},
{
layerId = "42B3044F-4D5A-45CA-9EB7-C1889731596B";
paths = (
{
closed = 1;
nodes = (
"0 800 LINE",
"1000 800 LINE",
"1000 -200 LINE",
"0 -200 LINE"
);
}
);
width = 1000;
}
);
unicode = 0643;
},
{
glyphname = "kaf-ar.init";
production = uni0643.init;
layers = (
{
anchors = (
{
name = dotAbove;
position = "{82, 639}";
},
{
name = dotBelow;
position = "{206, -149}";
},
{
name = gafAbove;
position = "{330, 649}";
},
{
name = markAbove;
position = "{273, 688}";
},
{
name = markBelow;
position = "{206, -173}";
},
{
name = ringBelow;
position = "{373, 535}";
}
);
layerId = master01;
paths = (
{
closed = 1;
nodes = (
"0 79 LINE",
"446 79 LINE",
"446.35 76.2 OFFCURVE",
"446.65 73.8 OFFCURVE",
"447 71 CURVE",
"182.265 341.67 LINE SMOOTH",
"179.756 344.235 OFFCURVE",
"177 345 OFFCURVE",
"173.412 345 CURVE SMOOTH",
"163.301 345 LINE SMOOTH",
"159.766 345 OFFCURVE",
"157.115 345.904 OFFCURVE",
"154.642 348.429 CURVE SMOOTH",
"121.391 382.383 LINE SMOOTH",
"78.845 425.827 OFFCURVE",
"79.326 488.091 OFFCURVE",
"150 531 CURVE SMOOTH",
"262 599 OFFCURVE",
"465 645 OFFCURVE",
"514 646 CURVE",
"515 568 LINE",
"490 567 OFFCURVE",
"275 519 OFFCURVE",
"183 460 CURVE SMOOTH",
"179 457 OFFCURVE",
"183.02 454.04 OFFCURVE",
"186 451 CURVE SMOOTH",
"482 149 LINE SMOOTH",
"535 95 OFFCURVE",
"497 0 OFFCURVE",
"419 0 CURVE SMOOTH",
"0 0 LINE"
);
}
);
width = 564;
},
{
anchors = (
{
name = dotAbove;
position = "{69, 619}";
},
{
name = dotBelow;
position = "{129, -150}";
},
{
name = gafAbove;
position = "{257, 597}";
},
{
name = markAbove;
position = "{209, 657}";
},
{
name = markBelow;
position = "{129, -179}";
},
{
name = ringBelow;
position = "{287, 532}";
}
);
layerId = "0CAB57D4-4FC4-49C3-B456-FB7666EAA712";
paths = (
{
closed = 1;
nodes = (
"0 32 LINE",
"342 32 LINE SMOOTH",
"372 32 OFFCURVE",
"384.798 67.8 OFFCURVE",
"366 87 CURVE SMOOTH",
"108.708 349.806 LINE SMOOTH",
"106.66 351.898 OFFCURVE",
"104.476 352.697 OFFCURVE",
"101.549 352.751 CURVE SMOOTH",
"91.9 352.928 LINE SMOOTH",
"89.052 352.981 OFFCURVE",
"87.029 353.992 OFFCURVE",
"85.036 356.028 CURVE SMOOTH",
"51.896 389.877 LINE SMOOTH",
"24.686 417.671 OFFCURVE",
"28.383 455.271 OFFCURVE",
"86 486 CURVE SMOOTH",
"191 542 OFFCURVE",
"326 581 OFFCURVE",
"438 599 CURVE",
"438 567 LINE",
"334 556 OFFCURVE",
"127 484 OFFCURVE",
"82 443 CURVE SMOOTH",
"77.904 439.268 OFFCURVE",
"70.407 433.399 OFFCURVE",
"82.279 421.273 CURVE SMOOTH",
"388 109 LINE SMOOTH",
"424 72 OFFCURVE",
"402 0 OFFCURVE",
"342 0 CURVE SMOOTH",
"0 0 LINE"
);
}
);
width = 478;
},
{
anchors = (
{
name = dotAbove;
position = "{89, 749}";
},
{
name = dotBelow;
position = "{249, -150}";
},
{
name = gafAbove;
position = "{371, 767}";
},
{
name = markAbove;
position = "{279, 817}";
},
{
name = markBelow;
position = "{249, -175}";
},
{
name = ringBelow;
position = "{441, 538}";
}
);
layerId = "42B3044F-4D5A-45CA-9EB7-C1889731596B";
paths = (
{
closed = 1;
nodes = (
"0 172 LINE",
"393 172 LINE",
"390.2 167.8 OFFCURVE",
"387.8 164.2 OFFCURVE",
"385 160 CURVE",
"217.993 329.903 LINE SMOOTH",
"213.312 334.665 OFFCURVE",
"208.148 335.981 OFFCURVE",
"201.47 335.949 CURVE SMOOTH",
"187.862 335.882 LINE SMOOTH",
"180.05 335.844 OFFCURVE",
"174.616 338.805 OFFCURVE",
"169.19 344.426 CURVE SMOOTH",
"123.067 392.215 LINE SMOOTH",
"61.747 455.75 OFFCURVE",
"89 569 OFFCURVE",
"170 618 CURVE SMOOTH",
"293 693 OFFCURVE",
"493 737 OFFCURVE",
"556 739 CURVE",
"560 567 LINE",
"541 565 OFFCURVE",
"368 527 OFFCURVE",
"279 482 CURVE",
"281.1 491.1 OFFCURVE",
"282.9 498.9 OFFCURVE",
"285 508 CURVE",
"558 228 LINE SMOOTH",
"643 141 OFFCURVE",
"583 0 OFFCURVE",
"462 0 CURVE SMOOTH",
"0 0 LINE"
);
}
);
width = 657;
}
);
},
{
glyphname = "keheh-ar";
layers = (
{
anchors = (
{
name = dotAbove;
position = "{192, 639}";
},
{
name = dotBelow;
position = "{279, -149}";
},
{
name = gafAbove;
position = "{440, 649}";
},
{
name = markAbove;
position = "{243, 676}";
},
{
name = markBelow;
position = "{279, -170}";
},
{
name = ringBelow;
position = "{483, 535}";
}
);
components = (
{
name = "kaf-ar.medi";
transform = "{1, 0, 0, 1, 111, 0}";
}
);
layerId = master01;
paths = (
{
closed = 1;
nodes = (
"191 0 LINE",
"111 0 LINE",
"46 79 LINE",
"127 79 LINE"
);
}
);
width = 675;
},
{
anchors = (
{
name = dotAbove;
position = "{133, 619}";
},
{
name = dotBelow;
position = "{313, -149}";
},
{
name = gafAbove;
position = "{321, 597}";
},
{
name = markAbove;
position = "{273, 657}";
},
{
name = markBelow;
position = "{313, -169}";
},
{
name = ringBelow;
position = "{351, 533}";
}
);
components = (
{
name = "kaf-ar.medi";
transform = "{1, 0, 0, 1, 64, 0}";
}
);
layerId = "0CAB57D4-4FC4-49C3-B456-FB7666EAA712";
paths = (
{
closed = 1;
nodes = (
"106 0 LINE",
"64 0 LINE",
"40 32 LINE",
"82 32 LINE"
);
}
);
width = 542;
},
{
anchors = (
{
name = dotAbove;
position = "{293, 750}";
},
{
name = dotBelow;
position = "{423, -149}";
},
{
name = gafAbove;
position = "{575, 768}";
},
{
name = markAbove;
position = "{293, 798}";
},
{
name = markBelow;
position = "{423, -174}";
},
{
name = ringBelow;
position = "{645, 538}";
}
);
components = (
{
name = "kaf-ar.medi";
transform = "{1, 0, 0, 1, 204, 0}";
}
);
layerId = "42B3044F-4D5A-45CA-9EB7-C1889731596B";
paths = (
{
closed = 1;
nodes = (
"366 0 LINE",
"204 0 LINE",
"60 172 LINE",
"222 172 LINE"
);
}
);
width = 861;
}
);
unicode = 06A9;
},
{
color = 0;
glyphname = "kehehTwodotshorizontalabove-ar";
layers = (
{
layerId = master01;
paths = (
{
closed = 1;
nodes = (
"0 800 LINE",
"1000 800 LINE",
"1000 -200 LINE",
"0 -200 LINE"
);
}
);
width = 1000;
},
{
layerId = "0CAB57D4-4FC4-49C3-B456-FB7666EAA712";
paths = (
{
closed = 1;
nodes = (
"0 800 LINE",
"1000 800 LINE",
"1000 -200 LINE",
"0 -200 LINE"
);
}
);
width = 1000;
},
{
layerId = "42B3044F-4D5A-45CA-9EB7-C1889731596B";
paths = (
{
closed = 1;
nodes = (
"0 800 LINE",
"1000 800 LINE",
"1000 -200 LINE",
"0 -200 LINE"
);
}
);
width = 1000;
}
);
unicode = 063B;
},
{
color = 0;
glyphname = "kehehThreedotsbelow-ar";
layers = (
{
layerId = master01;
paths = (
{
closed = 1;
nodes = (
"0 800 LINE",
"1000 800 LINE",
"1000 -200 LINE",
"0 -200 LINE"
);
}
);
width = 1000;
},
{
layerId = "0CAB57D4-4FC4-49C3-B456-FB7666EAA712";
paths = (
{
closed = 1;
nodes = (
"0 800 LINE",
"1000 800 LINE",
"1000 -200 LINE",
"0 -200 LINE"
);
}
);
width = 1000;
},
{
layerId = "42B3044F-4D5A-45CA-9EB7-C1889731596B";
paths = (
{
closed = 1;
nodes = (
"0 800 LINE",
"1000 800 LINE",
"1000 -200 LINE",
"0 -200 LINE"
);
}
);
width = 1000;
}
);
unicode = 063C;
},
{
color = 0;
glyphname = "kehehDotabove-ar";
layers = (
{
layerId = master01;
paths = (
{
closed = 1;
nodes = (
"0 800 LINE",
"1000 800 LINE",
"1000 -200 LINE",
"0 -200 LINE"
);
}
);
width = 1000;
},
{
layerId = "0CAB57D4-4FC4-49C3-B456-FB7666EAA712";
paths = (
{
closed = 1;
nodes = (
"0 800 LINE",
"1000 800 LINE",
"1000 -200 LINE",
"0 -200 LINE"
);
}
);
width = 1000;
},
{
layerId = "42B3044F-4D5A-45CA-9EB7-C1889731596B";
paths = (
{
closed = 1;
nodes = (
"0 800 LINE",
"1000 800 LINE",
"1000 -200 LINE",
"0 -200 LINE"
);
}
);
width = 1000;
}
);
unicode = 0762;
},
{
color = 0;
glyphname = "kehehThreedotsabove-ar";
layers = (
{
layerId = master01;
paths = (
{
closed = 1;
nodes = (
"0 800 LINE",
"1000 800 LINE",
"1000 -200 LINE",
"0 -200 LINE"
);
}
);
width = 1000;
},
{
layerId = "0CAB57D4-4FC4-49C3-B456-FB7666EAA712";
paths = (
{
closed = 1;
nodes = (
"0 800 LINE",
"1000 800 LINE",
"1000 -200 LINE",
"0 -200 LINE"
);
}
);
width = 1000;
},
{
layerId = "42B3044F-4D5A-45CA-9EB7-C1889731596B";
paths = (
{
closed = 1;
nodes = (
"0 800 LINE",
"1000 800 LINE",
"1000 -200 LINE",
"0 -200 LINE"
);
}
);
width = 1000;
}
);
unicode = 0763;
},
{
color = 0;
glyphname = "kehehThreedotsupbelow-ar";
layers = (
{
layerId = master01;
paths = (
{
closed = 1;
nodes = (
"0 800 LINE",
"1000 800 LINE",
"1000 -200 LINE",
"0 -200 LINE"
);
}
);
width = 1000;
},
{
layerId = "0CAB57D4-4FC4-49C3-B456-FB7666EAA712";
paths = (
{
closed = 1;
nodes = (
"0 800 LINE",
"1000 800 LINE",
"1000 -200 LINE",
"0 -200 LINE"
);
}
);
width = 1000;
},
{
layerId = "42B3044F-4D5A-45CA-9EB7-C1889731596B";
paths = (
{
closed = 1;
nodes = (
"0 800 LINE",
"1000 800 LINE",
"1000 -200 LINE",
"0 -200 LINE"
);
}
);
width = 1000;
}
);
unicode = 0764;
},
{
color = 0;
glyphname = "gaf-ar";
layers = (
{
layerId = master01;
paths = (
{
closed = 1;
nodes = (
"0 800 LINE",
"1000 800 LINE",
"1000 -200 LINE",
"0 -200 LINE"
);
}
);
width = 1000;
},
{
layerId = "0CAB57D4-4FC4-49C3-B456-FB7666EAA712";
paths = (
{
closed = 1;
nodes = (
"0 800 LINE",
"1000 800 LINE",
"1000 -200 LINE",
"0 -200 LINE"
);
}
);
width = 1000;
},
{
layerId = "42B3044F-4D5A-45CA-9EB7-C1889731596B";
paths = (
{
closed = 1;
nodes = (
"0 800 LINE",
"1000 800 LINE",
"1000 -200 LINE",
"0 -200 LINE"
);
}
);
width = 1000;
}
);
unicode = 06AF;
},
{
color = 0;
glyphname = "gafRing-ar";
layers = (
{
layerId = master01;
paths = (
{
closed = 1;
nodes = (
"0 800 LINE",
"1000 800 LINE",
"1000 -200 LINE",
"0 -200 LINE"
);
}
);
width = 1000;
},
{
layerId = "0CAB57D4-4FC4-49C3-B456-FB7666EAA712";
paths = (
{
closed = 1;
nodes = (
"0 800 LINE",
"1000 800 LINE",
"1000 -200 LINE",
"0 -200 LINE"
);
}
);
width = 1000;
},
{
layerId = "42B3044F-4D5A-45CA-9EB7-C1889731596B";
paths = (
{
closed = 1;
nodes = (
"0 800 LINE",
"1000 800 LINE",
"1000 -200 LINE",
"0 -200 LINE"
);
}
);
width = 1000;
}
);
unicode = 06B0;
},
{
color = 0;
glyphname = "gafThreedots-ar";
layers = (
{
layerId = master01;
paths = (
{
closed = 1;
nodes = (
"0 800 LINE",
"1000 800 LINE",
"1000 -200 LINE",
"0 -200 LINE"
);
}
);
width = 1000;
},
{
layerId = "0CAB57D4-4FC4-49C3-B456-FB7666EAA712";
paths = (
{
closed = 1;
nodes = (
"0 800 LINE",
"1000 800 LINE",
"1000 -200 LINE",
"0 -200 LINE"
);
}
);
width = 1000;
},
{
layerId = "42B3044F-4D5A-45CA-9EB7-C1889731596B";
paths = (
{
closed = 1;
nodes = (
"0 800 LINE",
"1000 800 LINE",
"1000 -200 LINE",
"0 -200 LINE"
);
}
);
width = 1000;
}
);
unicode = 06B4;
},
{
color = (255,0,255,255);
glyphname = "kafswash-ar";
layers = (
{
components = (
{
name = "kafswash-ar.init";
transform = "{1, 0, 0, 1, 111, 0}";
}
);
layerId = master01;
paths = (
{
closed = 1;
nodes = (
"191 0 LINE",
"111 0 LINE",
"46 79 LINE",
"127 79 LINE"
);
}
);
width = 960;
},
{
components = (
{
name = "kafswash-ar.init";
transform = "{1, 0, 0, 1, 64, 0}";
}
);
layerId = "0CAB57D4-4FC4-49C3-B456-FB7666EAA712";
paths = (
{
closed = 1;
nodes = (
"106 0 LINE",
"64 0 LINE",
"40 32 LINE",
"82 32 LINE"
);
}
);
width = 850.63476;
},
{
components = (
{
name = "kafswash-ar.init";
transform = "{1, 0, 0, 1, 204, 0}";
}
);
layerId = "42B3044F-4D5A-45CA-9EB7-C1889731596B";
paths = (
{
closed = 1;
nodes = (
"366 0 LINE",
"204 0 LINE",
"60 172 LINE",
"222 172 LINE"
);
}
);
width = 1178.43372;
}
);
unicode = 06AA;
},
{
glyphname = "kafswash-ar.init";
layers = (
{
anchors = (
{
name = markAbove;
position = "{141, 515}";
},
{
name = markBelow;
position = "{395, -173}";
}
);
layerId = master01;
paths = (
{
closed = 1;
nodes = (
"0 79 LINE",
"737 79 LINE",
"737 76.2 OFFCURVE",
"737 73.8 OFFCURVE",
"737 71 CURVE",
"705 134 OFFCURVE",
"670 201 OFFCURVE",
"566 201 CURVE SMOOTH",
"127 201 LINE SMOOTH",
"8 201 OFFCURVE",
"49.839 302.134 OFFCURVE",
"95 356 CURVE SMOOTH",
"177.718 454.661 OFFCURVE",
"327 511 OFFCURVE",
"437 530 CURVE",
"452 452 LINE",
"361 434 OFFCURVE",
"195 371 OFFCURVE",
"124 269 CURVE",
"121.2 272.5 OFFCURVE",
"118.8 275.5 OFFCURVE",
"116 279 CURVE",
"566 279 LINE SMOOTH",
"720 279 OFFCURVE",
"774 162 OFFCURVE",
"788 142 CURVE SMOOTH",
"816 101 OFFCURVE",
"809 0 OFFCURVE",
"712 0 CURVE SMOOTH",
"0 0 LINE"
);
}
);
width = 849;
},
{
anchors = (
{
name = markAbove;
position = "{117.469, 482.159}";
},
{
name = markBelow;
position = "{369, -179}";
}
);
layerId = "0CAB57D4-4FC4-49C3-B456-FB7666EAA712";
paths = (
{
closed = 1;
nodes = (
"0 32 LINE",
"680 32 LINE SMOOTH",
"720 32 OFFCURVE",
"720 68 OFFCURVE",
"708 90 CURVE SMOOTH",
"697 111 OFFCURVE",
"656 200 OFFCURVE",
"534 200 CURVE SMOOTH",
"95 200 LINE SMOOTH",
"36 200 OFFCURVE",
"43 276 OFFCURVE",
"80 317 CURVE SMOOTH",
"159 404 OFFCURVE",
"309 464 OFFCURVE",
"410 483 CURVE",
"416 451 LINE",
"321 433 OFFCURVE",
"168 369 OFFCURVE",
"104 295 CURVE SMOOTH",
"88 277 OFFCURVE",
"72 232 OFFCURVE",
"95 232 CURVE SMOOTH",
"534 232 LINE SMOOTH",
"675 232 OFFCURVE",
"720 128 OFFCURVE",
"736 106 CURVE SMOOTH",
"753 81 OFFCURVE",
"759 0 OFFCURVE",
"680 0 CURVE SMOOTH",
"0 0 LINE"
);
}
);
width = 786.80332;
},
{
associatedMasterId = "0CAB57D4-4FC4-49C3-B456-FB7666EAA712";
layerId = "0E1EBE93-6C1F-45EB-A23C-9EF778538E4B";
name = Back;
paths = (
{
closed = 1;
nodes = (
"0 32 LINE",
"680 32 LINE SMOOTH",
"690.577 32 OFFCURVE",
"697.393 34.173 OFFCURVE",
"701.912 36.851 CURVE SMOOTH",
"717.79 46.26 OFFCURVE",
"716.592 76.3 OFFCURVE",
"708.385 89.596 CURVE SMOOTH",
"692.326 115.611 OFFCURVE",
"656.067 200.384 OFFCURVE",
"533.591 200.3 CURVE SMOOTH",
"95.011 200 LINE SMOOTH",
"83.923 199.992 OFFCURVE",
"73.569 203.009 OFFCURVE",
"65.77 209.746 CURVE SMOOTH",
"32.159 238.78 OFFCURVE",
"63.826 298.349 OFFCURVE",
"80.03 316.617 CURVE SMOOTH",
"157.12 403.528 OFFCURVE",
"309.439 463.528 OFFCURVE",
"410.001 482.716 CURVE",
"415.999 451.284 LINE",
"320.561 433.072 OFFCURVE",
"172.88 373.072 OFFCURVE",
"103.97 295.383 CURVE SMOOTH",
"87.48 276.793 OFFCURVE",
"81.178 238.722 OFFCURVE",
"86.688 233.962 CURVE SMOOTH",
"87.437 233.315 OFFCURVE",
"89.31 231.996 OFFCURVE",
"94.989 232 CURVE SMOOTH",
"533.569 232.3 LINE SMOOTH",
"674.587 232.396 OFFCURVE",
"721.674 128.989 OFFCURVE",
"735.615 106.404 CURVE SMOOTH",
"748.036 86.282 OFFCURVE",
"758.6 33.248 OFFCURVE",
"718.226 9.322 CURVE SMOOTH",
"707.841 3.168 OFFCURVE",
"694.977 0 OFFCURVE",
"680 0 CURVE SMOOTH",
"0 0 LINE"
);
}
);
width = 0;
},
{
anchors = (
{
name = markAbove;
position = "{143.175, 623.432}";
},
{
name = markBelow;
position = "{469, -175}";
}
);
layerId = "42B3044F-4D5A-45CA-9EB7-C1889731596B";
paths = (
{
closed = 1;
nodes = (
"0 172 LINE",
"742 172 LINE",
"738 167 OFFCURVE",
"736 163 OFFCURVE",
"732 158 CURVE",
"709 209 OFFCURVE",
"677 239 OFFCURVE",
"634 239 CURVE SMOOTH",
"195 239 LINE SMOOTH",
"55 239 OFFCURVE",
"63 404 OFFCURVE",
"128 472 CURVE SMOOTH",
"244 593 OFFCURVE",
"385 639 OFFCURVE",
"497 660 CURVE",
"529 492 LINE",
"473 481 OFFCURVE",
"359 441 OFFCURVE",
"312 402 CURVE",
"311 405 OFFCURVE",
"310 408 OFFCURVE",
"309 411 CURVE",
"634 411 LINE SMOOTH",
"832 411 OFFCURVE",
"893 215 OFFCURVE",
"901 200 CURVE SMOOTH",
"927 155 OFFCURVE",
"928 -1 OFFCURVE",
"780 -1 CURVE SMOOTH",
"0 -1 LINE"
);
}
);
width = 974.43372;
},
{
associatedMasterId = "42B3044F-4D5A-45CA-9EB7-C1889731596B";
layerId = "C69F9509-6A39-4887-9F9A-452E557F5A18";
name = Back;
paths = (
{
closed = 1;
nodes = (
"100 171 LINE",
"725.711 171 LINE",
"704.884 210.091 OFFCURVE",
"678.44 239.33 OFFCURVE",
"633.639 239.3 CURVE SMOOTH",
"195.059 239 LINE SMOOTH",
"172.14 238.984 OFFCURVE",
"143.232 245.714 OFFCURVE",
"120.01 265.774 CURVE SMOOTH",
"83.724 297.119 OFFCURVE",
"80.904 338.376 OFFCURVE",
"82.132 361.007 CURVE SMOOTH",
"84.642 407.283 OFFCURVE",
"102.356 443.537 OFFCURVE",
"127.663 472.067 CURVE SMOOTH",
"222.647 579.152 OFFCURVE",
"385.111 639.148 OFFCURVE",
"496.88 660.476 CURVE",
"529.12 491.524 LINE",
"472.627 480.744 OFFCURVE",
"386.74 450.367 OFFCURVE",
"322.971 411.087 CURVE",
"633.521 411.3 LINE SMOOTH",
"831.809 411.435 OFFCURVE",
"894.279 216.104 OFFCURVE",
"901.277 200.374 CURVE SMOOTH",
"908.987 182.928 OFFCURVE",
"916.586 155.821 OFFCURVE",
"915.13 124.649 CURVE SMOOTH",
"913.539 90.589 OFFCURVE",
"895.336 34.392 OFFCURVE",
"838.301 10.209 CURVE SMOOTH",
"819.046 2.045 OFFCURVE",
"799.108 -1 OFFCURVE",
"780 -1 CURVE SMOOTH",
"100 -1 LINE"
);
}
);
width = 0;
}
);
},
{
color = 0;
glyphname = "kafRing-ar";
layers = (
{
layerId = master01;
paths = (
{
closed = 1;
nodes = (
"0 800 LINE",
"1000 800 LINE",
"1000 -200 LINE",
"0 -200 LINE"
);
}
);
width = 1000;
},
{
layerId = "0CAB57D4-4FC4-49C3-B456-FB7666EAA712";
paths = (
{
closed = 1;
nodes = (
"0 800 LINE",
"1000 800 LINE",
"1000 -200 LINE",
"0 -200 LINE"
);
}
);
width = 1000;
},
{
layerId = "42B3044F-4D5A-45CA-9EB7-C1889731596B";
paths = (
{
closed = 1;
nodes = (
"0 800 LINE",
"1000 800 LINE",
"1000 -200 LINE",
"0 -200 LINE"
);
}
);
width = 1000;
}
);
unicode = 06AB;
},
{
color = 0;
glyphname = "kafDotabove-ar";
layers = (
{
layerId = master01;
paths = (
{
closed = 1;
nodes = (
"0 800 LINE",
"1000 800 LINE",
"1000 -200 LINE",
"0 -200 LINE"
);
}
);
width = 1000;
},
{
layerId = "0CAB57D4-4FC4-49C3-B456-FB7666EAA712";
paths = (
{
closed = 1;
nodes = (
"0 800 LINE",
"1000 800 LINE",
"1000 -200 LINE",
"0 -200 LINE"
);
}
);
width = 1000;
},
{
layerId = "42B3044F-4D5A-45CA-9EB7-C1889731596B";
paths = (
{
closed = 1;
nodes = (
"0 800 LINE",
"1000 800 LINE",
"1000 -200 LINE",
"0 -200 LINE"
);
}
);
width = 1000;
}
);
unicode = 06AC;
},
{
color = 0;
glyphname = "kafThreedotsbelow-ar";
layers = (
{
layerId = master01;
paths = (
{
closed = 1;
nodes = (
"0 800 LINE",
"1000 800 LINE",
"1000 -200 LINE",
"0 -200 LINE"
);
}
);
width = 1000;
},
{
layerId = "0CAB57D4-4FC4-49C3-B456-FB7666EAA712";
paths = (
{
closed = 1;
nodes = (
"0 800 LINE",
"1000 800 LINE",
"1000 -200 LINE",
"0 -200 LINE"
);
}
);
width = 1000;
},
{
layerId = "42B3044F-4D5A-45CA-9EB7-C1889731596B";
paths = (
{
closed = 1;
nodes = (
"0 800 LINE",
"1000 800 LINE",
"1000 -200 LINE",
"0 -200 LINE"
);
}
);
width = 1000;
}
);
unicode = 06AE;
},
{
color = 0;
glyphname = "gafTwodotsbelow-ar";
layers = (
{
layerId = master01;
paths = (
{
closed = 1;
nodes = (
"0 800 LINE",
"1000 800 LINE",
"1000 -200 LINE",
"0 -200 LINE"
);
}
);
width = 1000;
},
{
layerId = "0CAB57D4-4FC4-49C3-B456-FB7666EAA712";
paths = (
{
closed = 1;
nodes = (
"0 800 LINE",
"1000 800 LINE",
"1000 -200 LINE",
"0 -200 LINE"
);
}
);
width = 1000;
},
{
layerId = "42B3044F-4D5A-45CA-9EB7-C1889731596B";
paths = (
{
closed = 1;
nodes = (
"0 800 LINE",
"1000 800 LINE",
"1000 -200 LINE",
"0 -200 LINE"
);
}
);
width = 1000;
}
);
unicode = 06B2;
},
{
color = 0;
glyphname = "ng-ar";
layers = (
{
layerId = master01;
paths = (
{
closed = 1;
nodes = (
"0 800 LINE",
"1000 800 LINE",
"1000 -200 LINE",
"0 -200 LINE"
);
}
);
width = 1000;
},
{
layerId = "0CAB57D4-4FC4-49C3-B456-FB7666EAA712";
paths = (
{
closed = 1;
nodes = (
"0 800 LINE",
"1000 800 LINE",
"1000 -200 LINE",
"0 -200 LINE"
);
}
);
width = 1000;
},
{
layerId = "42B3044F-4D5A-45CA-9EB7-C1889731596B";
paths = (
{
closed = 1;
nodes = (
"0 800 LINE",
"1000 800 LINE",
"1000 -200 LINE",
"0 -200 LINE"
);
}
);
width = 1000;
}
);
unicode = 06AD;
},
{
color = 0;
glyphname = "ngoeh-ar";
layers = (
{
layerId = master01;
paths = (
{
closed = 1;
nodes = (
"0 800 LINE",
"1000 800 LINE",
"1000 -200 LINE",
"0 -200 LINE"
);
}
);
width = 1000;
},
{
layerId = "0CAB57D4-4FC4-49C3-B456-FB7666EAA712";
paths = (
{
closed = 1;
nodes = (
"0 800 LINE",
"1000 800 LINE",
"1000 -200 LINE",
"0 -200 LINE"
);
}
);
width = 1000;
},
{
layerId = "42B3044F-4D5A-45CA-9EB7-C1889731596B";
paths = (
{
closed = 1;
nodes = (
"0 800 LINE",
"1000 800 LINE",
"1000 -200 LINE",
"0 -200 LINE"
);
}
);
width = 1000;
}
);
unicode = 06B1;
},
{
color = 0;
glyphname = "gueh-ar";
layers = (
{
layerId = master01;
paths = (
{
closed = 1;
nodes = (
"0 800 LINE",
"1000 800 LINE",
"1000 -200 LINE",
"0 -200 LINE"
);
}
);
width = 1000;
},
{
layerId = "0CAB57D4-4FC4-49C3-B456-FB7666EAA712";
paths = (
{
closed = 1;
nodes = (
"0 800 LINE",
"1000 800 LINE",
"1000 -200 LINE",
"0 -200 LINE"
);
}
);
width = 1000;
},
{
layerId = "42B3044F-4D5A-45CA-9EB7-C1889731596B";
paths = (
{
closed = 1;
nodes = (
"0 800 LINE",
"1000 800 LINE",
"1000 -200 LINE",
"0 -200 LINE"
);
}
);
width = 1000;
}
);
unicode = 06B3;
},
{
glyphname = "lam-ar";
layers = (
{
anchors = (
{
name = dash;
position = "{450, 420}";
},
{
name = dotAbove;
position = "{453, 674}";
},
{
name = dotBelow;
position = "{256, -258}";
},
{
name = markAbove;
position = "{453, 711}";
},
{
name = markBelow;
position = "{256, -284}";
}
);
layerId = master01;
paths = (
{
closed = 1;
nodes = (
"493 624 LINE",
"493 -55 LINE SMOOTH",
"493 -103 OFFCURVE",
"455 -148 OFFCURVE",
"400 -148 CURVE SMOOTH",
"140 -148 LINE SMOOTH",
"89 -148 OFFCURVE",
"46 -110 OFFCURVE",
"46 -56 CURVE SMOOTH",
"46 133 LINE",
"125 133 LINE",
"125 -80 LINE",
"121.85 -76.5 OFFCURVE",
"119.15 -73.5 OFFCURVE",
"116 -70 CURVE",
"424 -70 LINE",
"420.5 -73.5 OFFCURVE",
"417.5 -76.5 OFFCURVE",
"414 -80 CURVE",
"414 624 LINE"
);
}
);
width = 539;
},
{
anchors = (
{
name = dash;
position = "{426, 450}";
},
{
name = dotAbove;
position = "{424, 674}";
},
{
name = dotBelow;
position = "{227, -258}";
},
{
name = markAbove;
position = "{424, 712}";
},
{
name = markBelow;
position = "{227, -278}";
}
);
layerId = "0CAB57D4-4FC4-49C3-B456-FB7666EAA712";
paths = (
{
closed = 1;
nodes = (
"440 624 LINE",
"440 -78 LINE SMOOTH",
"440 -113 OFFCURVE",
"414 -148 OFFCURVE",
"370 -148 CURVE SMOOTH",
"111 -148 LINE SMOOTH",
"70 -148 OFFCURVE",
"40 -120 OFFCURVE",
"40 -79 CURVE SMOOTH",
"40 110 LINE",
"72 110 LINE",
"72 -79 LINE SMOOTH",
"72 -102 OFFCURVE",
"86 -116 OFFCURVE",
"111 -116 CURVE SMOOTH",
"370 -116 LINE SMOOTH",
"394 -116 OFFCURVE",
"408 -97 OFFCURVE",
"408 -78 CURVE SMOOTH",
"408 624 LINE"
);
}
);
width = 480;
},
{
anchors = (
{
name = dash;
position = "{510, 400}";
},
{
name = dotAbove;
position = "{514, 674}";
},
{
name = dotBelow;
position = "{327, -258}";
},
{
name = markAbove;
position = "{514, 722}";
},
{
name = markBelow;
position = "{327, -293}";
}
);
layerId = "42B3044F-4D5A-45CA-9EB7-C1889731596B";
paths = (
{
closed = 1;
nodes = (
"600 624 LINE",
"600 -8 LINE SMOOTH",
"600 -84 OFFCURVE",
"538 -148 OFFCURVE",
"460 -148 CURVE SMOOTH",
"201 -148 LINE SMOOTH",
"125 -148 OFFCURVE",
"60 -86 OFFCURVE",
"60 -9 CURVE SMOOTH",
"60 180 LINE",
"232 180 LINE",
"232 4 LINE",
"225 11 OFFCURVE",
"219 17 OFFCURVE",
"212 24 CURVE",
"448 24 LINE",
"441 17 OFFCURVE",
"435 11 OFFCURVE",
"428 4 CURVE",
"428 624 LINE"
);
}
);
width = 660;
}
);
unicode = 0644;
},
{
glyphname = "lam-ar.init";
production = uni0644.init;
layers = (
{
anchors = (
{
name = dash;
position = "{170, 420}";
},
{
name = dotAbove;
position = "{172, 724}";
},
{
name = dotBelow;
position = "{142, -99}";
},
{
name = markAbove;
position = "{172, 760}";
},
{
name = markBelow;
position = "{142, -126}";
}
);
layerId = master01;
paths = (
{
closed = 1;
nodes = (
"211 624 LINE",
"211 92 LINE SMOOTH",
"211 41 OFFCURVE",
"171 0 OFFCURVE",
"118 0 CURVE SMOOTH",
"0 0 LINE",
"0 79 LINE",
"141 79 LINE",
"137.85 75.5 OFFCURVE",
"135.15 72.5 OFFCURVE",
"132 69 CURVE",
"132 624 LINE"
);
}
);
width = 257;
},
{
anchors = (
{
name = dash;
position = "{142, 450}";
},
{
name = dotAbove;
position = "{140, 723}";
},
{
name = dotBelow;
position = "{110, -100}";
},
{
name = markAbove;
position = "{140, 761}";
},
{
name = markBelow;
position = "{110, -120}";
}
);
layerId = "0CAB57D4-4FC4-49C3-B456-FB7666EAA712";
paths = (
{
closed = 1;
nodes = (
"156 624 LINE",
"156 70 LINE SMOOTH",
"156 36 OFFCURVE",
"131 0 OFFCURVE",
"87 0 CURVE SMOOTH",
"0 0 LINE",
"0 32 LINE",
"87 32 LINE SMOOTH",
"111 32 OFFCURVE",
"124 50 OFFCURVE",
"124 70 CURVE SMOOTH",
"124 624 LINE"
);
}
);
width = 196;
},
{
anchors = (
{
name = dash;
position = "{220, 400}";
},
{
name = dotAbove;
position = "{225, 724}";
},
{
name = dotBelow;
position = "{195, -99}";
},
{
name = markAbove;
position = "{225, 772}";
},
{
name = markBelow;
position = "{195, -134}";
}
);
layerId = "42B3044F-4D5A-45CA-9EB7-C1889731596B";
paths = (
{
closed = 1;
nodes = (
"310 624 LINE",
"310 138 LINE SMOOTH",
"310 62 OFFCURVE",
"247 0 OFFCURVE",
"171 0 CURVE SMOOTH",
"0 0 LINE",
"0 172 LINE",
"158 172 LINE",
"151 165 OFFCURVE",
"145 159 OFFCURVE",
"138 152 CURVE",
"138 624 LINE"
);
}
);
width = 370;
}
);
},
{
glyphname = "lam-ar.init.1";
production = uni0644.init.1;
layers = (
{
anchors = (
{
name = dash;
position = "{115, 540}";
},
{
name = dotAbove;
position = "{112, 724}";
},
{
name = dotBelow;
position = "{112, -99}";
},
{
name = markAbove;
position = "{112, 760}";
},
{
name = markBelow;
position = "{112, -126}";
}
);
layerId = master01;
paths = (
{
closed = 1;
nodes = (
"151 624 LINE",
"151 92 LINE SMOOTH",
"151 39 OFFCURVE",
"109 0 OFFCURVE",
"59 0 CURVE SMOOTH",
"-166 0 LINE",
"-166 79 LINE",
"83 79 LINE",
"79.5 75.5 OFFCURVE",
"76.5 72.5 OFFCURVE",
"73 69 CURVE",
"73 624 LINE"
);
}
);
width = 198;
},
{
anchors = (
{
name = dash;
position = "{107, 560}";
},
{
name = dotAbove;
position = "{105, 723}";
},
{
name = dotBelow;
position = "{105, -100}";
},
{
name = markAbove;
position = "{105, 761}";
},
{
name = markBelow;
position = "{105, -120}";
}
);
layerId = "0CAB57D4-4FC4-49C3-B456-FB7666EAA712";
paths = (
{
closed = 1;
nodes = (
"122 624 LINE",
"122 70 LINE SMOOTH",
"122 30 OFFCURVE",
"92 0 OFFCURVE",
"55 0 CURVE SMOOTH",
"-160 0 LINE",
"-160 32 LINE",
"55 32 LINE SMOOTH",
"74 32 OFFCURVE",
"90 46 OFFCURVE",
"90 70 CURVE SMOOTH",
"90 624 LINE"
);
}
);
width = 162;
},
{
associatedMasterId = "0CAB57D4-4FC4-49C3-B456-FB7666EAA712";
layerId = "51F1AF01-BF37-4DB0-9C31-69ACB5CCCC5F";
name = Back;
paths = (
{
closed = 1;
nodes = (
"67 199 LINE",
"56 136 OFFCURVE",
"20 77 OFFCURVE",
"-71 26 CURVE",
"-93 26 LINE",
"-68 40 OFFCURVE",
"37 97 OFFCURVE",
"35 199 CURVE"
);
},
{
closed = 1;
nodes = (
"-64 648 LINE",
"67 199 LINE",
"37 191 LINE",
"-94 640 LINE"
);
},
{
closed = 1;
nodes = (
"122 624 LINE",
"122 71 LINE SMOOTH",
"122 31 OFFCURVE",
"92 1 OFFCURVE",
"55 1 CURVE SMOOTH",
"-160 1 LINE",
"-160 33 LINE",
"55 33 LINE SMOOTH",
"74 33 OFFCURVE",
"90 47 OFFCURVE",
"90 71 CURVE SMOOTH",
"90 624 LINE"
);
}
);
width = 162;
},
{
anchors = (
{
name = dash;
position = "{175, 560}";
},
{
name = dotAbove;
position = "{179, 710}";
},
{
name = dotBelow;
position = "{179, -99}";
},
{
name = markAbove;
position = "{179, 758}";
},
{
name = markBelow;
position = "{179, -134}";
}
);
layerId = "42B3044F-4D5A-45CA-9EB7-C1889731596B";
paths = (
{
closed = 1;
nodes = (
"262 624 LINE",
"262 138 LINE SMOOTH",
"262 62 OFFCURVE",
"199 0 OFFCURVE",
"123 0 CURVE SMOOTH",
"-210 0 LINE",
"-210 172 LINE",
"110 172 LINE",
"103 165 OFFCURVE",
"97 159 OFFCURVE",
"90 152 CURVE",
"90 624 LINE"
);
}
);
width = 322;
},
{
associatedMasterId = "42B3044F-4D5A-45CA-9EB7-C1889731596B";
layerId = "8739F3C9-11C1-4372-B44D-360F5F405E77";
name = Back;
paths = (
{
closed = 1;
nodes = (
"262 692 LINE",
"262 138 LINE SMOOTH",
"262 62 OFFCURVE",
"199 0 OFFCURVE",
"123 0 CURVE SMOOTH",
"-210 0 LINE",
"-210 172 LINE",
"110 172 LINE",
"90 152 LINE",
"90 692 LINE"
);
},
{
closed = 1;
nodes = (
"91 289 LINE",
"80 196 OFFCURVE",
"14.221 149.291 OFFCURVE",
"-79 124 CURVE",
"-189 124 LINE",
"-121 157 OFFCURVE",
"-67 187 OFFCURVE",
"-69 289 CURVE"
);
},
{
closed = 1;
nodes = (
"-40.442 738.087 LINE",
"90.558 289.087 LINE",
"-74.558 240.913 LINE",
"-205.558 689.913 LINE"
);
}
);
width = 320.44238;
}
);
},
{
color = 0;
glyphname = "lamVabove-ar";
layers = (
{
layerId = master01;
paths = (
{
closed = 1;
nodes = (
"0 800 LINE",
"1000 800 LINE",
"1000 -200 LINE",
"0 -200 LINE"
);
}
);
width = 1000;
},
{
layerId = "0CAB57D4-4FC4-49C3-B456-FB7666EAA712";
paths = (
{
closed = 1;
nodes = (
"0 800 LINE",
"1000 800 LINE",
"1000 -200 LINE",
"0 -200 LINE"
);
}
);
width = 1000;
},
{
layerId = "42B3044F-4D5A-45CA-9EB7-C1889731596B";
paths = (
{
closed = 1;
nodes = (
"0 800 LINE",
"1000 800 LINE",
"1000 -200 LINE",
"0 -200 LINE"
);
}
);
width = 1000;
}
);
unicode = 06B5;
},
{
color = 0;
glyphname = "lamDotabove-ar";
layers = (
{
layerId = master01;
paths = (
{
closed = 1;
nodes = (
"0 800 LINE",
"1000 800 LINE",
"1000 -200 LINE",
"0 -200 LINE"
);
}
);
width = 1000;
},
{
layerId = "0CAB57D4-4FC4-49C3-B456-FB7666EAA712";
paths = (
{
closed = 1;
nodes = (
"0 800 LINE",
"1000 800 LINE",
"1000 -200 LINE",
"0 -200 LINE"
);
}
);
width = 1000;
},
{
layerId = "42B3044F-4D5A-45CA-9EB7-C1889731596B";
paths = (
{
closed = 1;
nodes = (
"0 800 LINE",
"1000 800 LINE",
"1000 -200 LINE",
"0 -200 LINE"
);
}
);
width = 1000;
}
);
unicode = 06B6;
},
{
color = 0;
glyphname = "lamThreedotsabove-ar";
layers = (
{
layerId = master01;
paths = (
{
closed = 1;
nodes = (
"0 800 LINE",
"1000 800 LINE",
"1000 -200 LINE",
"0 -200 LINE"
);
}
);
width = 1000;
},
{
layerId = "0CAB57D4-4FC4-49C3-B456-FB7666EAA712";
paths = (
{
closed = 1;
nodes = (
"0 800 LINE",
"1000 800 LINE",
"1000 -200 LINE",
"0 -200 LINE"
);
}
);
width = 1000;
},
{
layerId = "42B3044F-4D5A-45CA-9EB7-C1889731596B";
paths = (
{
closed = 1;
nodes = (
"0 800 LINE",
"1000 800 LINE",
"1000 -200 LINE",
"0 -200 LINE"
);
}
);
width = 1000;
}
);
unicode = 06B7;
},
{
color = 0;
glyphname = "lamThreedotsbelow-ar";
layers = (
{
layerId = master01;
paths = (
{
closed = 1;
nodes = (
"0 800 LINE",
"1000 800 LINE",
"1000 -200 LINE",
"0 -200 LINE"
);
}
);
width = 1000;
},
{
layerId = "0CAB57D4-4FC4-49C3-B456-FB7666EAA712";
paths = (
{
closed = 1;
nodes = (
"0 800 LINE",
"1000 800 LINE",
"1000 -200 LINE",
"0 -200 LINE"
);
}
);
width = 1000;
},
{
layerId = "42B3044F-4D5A-45CA-9EB7-C1889731596B";
paths = (
{
closed = 1;
nodes = (
"0 800 LINE",
"1000 800 LINE",
"1000 -200 LINE",
"0 -200 LINE"
);
}
);
width = 1000;
}
);
unicode = 06B8;
},
{
glyphname = "meem-ar";
layers = (
{
anchors = (
{
name = dotAbove;
position = "{283, 449}";
},
{
name = dotBelow;
position = "{205, -109}";
},
{
name = markAbove;
position = "{283, 486}";
},
{
name = markBelow;
position = "{205, -135}";
}
);
layerId = master01;
paths = (
{
closed = 1;
nodes = (
"139 225 LINE SMOOTH",
"139 265 OFFCURVE",
"154 301 OFFCURVE",
"180 325 CURVE SMOOTH",
"238 382 OFFCURVE",
"340 378 OFFCURVE",
"401 315 CURVE SMOOTH",
"457 256 OFFCURVE",
"485 202 OFFCURVE",
"485 149 CURVE SMOOTH",
"485 45 OFFCURVE",
"380 0 OFFCURVE",
"291 0 CURVE SMOOTH",
"114.774 0 LINE",
"118.353 3.432 OFFCURVE",
"121.421 6.374 OFFCURVE",
"125 9.806 CURVE",
"125 -200 LINE",
"46 -200 LINE",
"46 -13 LINE SMOOTH",
"46 38 OFFCURVE",
"86 79 OFFCURVE",
"139 79 CURVE SMOOTH",
"291 79 LINE SMOOTH",
"367 79 OFFCURVE",
"406 112 OFFCURVE",
"406 149 CURVE SMOOTH",
"406 172 OFFCURVE",
"392 210 OFFCURVE",
"344 261 CURVE SMOOTH",
"311 295 OFFCURVE",
"259 292 OFFCURVE",
"235 269 CURVE SMOOTH",
"225 259 OFFCURVE",
"218 246 OFFCURVE",
"218 225 CURVE SMOOTH",
"218 105.825 LINE",
"139 105.825 LINE"
);
}
);
width = 531;
},
{
anchors = (
{
name = dotAbove;
position = "{240, 449}";
},
{
name = dotBelow;
position = "{162, -109}";
},
{
name = markAbove;
position = "{240, 487}";
},
{
name = markBelow;
position = "{162, -129}";
}
);
layerId = "0CAB57D4-4FC4-49C3-B456-FB7666EAA712";
paths = (
{
closed = 1;
nodes = (
"109 201 LINE SMOOTH",
"109 236 OFFCURVE",
"121 265 OFFCURVE",
"142 285 CURVE SMOOTH",
"190 332 OFFCURVE",
"278 330 OFFCURVE",
"331 275 CURVE SMOOTH",
"384 219 OFFCURVE",
"408 169 OFFCURVE",
"408 125 CURVE SMOOTH",
"408 41 OFFCURVE",
"322 0 OFFCURVE",
"237 0 CURVE SMOOTH",
"109 0 LINE SMOOTH",
"85 0 OFFCURVE",
"72 -18 OFFCURVE",
"72 -38 CURVE SMOOTH",
"72 -200 LINE",
"40 -200 LINE",
"40 -38 LINE SMOOTH",
"40 -4 OFFCURVE",
"65 32 OFFCURVE",
"109 32 CURVE SMOOTH",
"237 32 LINE SMOOTH",
"317 32 OFFCURVE",
"376 69 OFFCURVE",
"376 125 CURVE SMOOTH",
"376 157 OFFCURVE",
"357 200 OFFCURVE",
"307 253 CURVE SMOOTH",
"266 296 OFFCURVE",
"199 295 OFFCURVE",
"165 262 CURVE SMOOTH",
"151 248 OFFCURVE",
"141 228 OFFCURVE",
"141 201 CURVE SMOOTH",
"141 62.716 LINE",
"109 62.716 LINE"
);
}
);
width = 448;
},
{
anchors = (
{
name = dotAbove;
position = "{390, 608}";
},
{
name = dotBelow;
position = "{392, -150}";
},
{
name = markAbove;
position = "{390, 652}";
},
{
name = markBelow;
position = "{392, -185}";
}
);
layerId = "42B3044F-4D5A-45CA-9EB7-C1889731596B";
paths = (
{
closed = 1;
nodes = (
"199 271 LINE SMOOTH",
"199 324 OFFCURVE",
"220 373 OFFCURVE",
"255 406 CURVE SMOOTH",
"334 481 OFFCURVE",
"463 475 OFFCURVE",
"541 393 CURVE SMOOTH",
"600 330 OFFCURVE",
"638 265 OFFCURVE",
"638 195 CURVE SMOOTH",
"638 50 OFFCURVE",
"494 0 OFFCURVE",
"397 0 CURVE SMOOTH",
"210.372 0 LINE",
"217.942 8.61 OFFCURVE",
"224.43 15.99 OFFCURVE",
"232 24.601 CURVE",
"232 -200 LINE",
"60 -200 LINE",
"60 34 LINE SMOOTH",
"60 110 OFFCURVE",
"123 172 OFFCURVE",
"199 172 CURVE SMOOTH",
"397 172 LINE SMOOTH",
"464 172 OFFCURVE",
"466 194 OFFCURVE",
"466 194 CURVE",
"466 199 OFFCURVE",
"460 229 OFFCURVE",
"416 275 CURVE SMOOTH",
"406 286 OFFCURVE",
"393 286 OFFCURVE",
"384 285 CURVE SMOOTH",
"371 283 OFFCURVE",
"371 268 OFFCURVE",
"371 259 CURVE SMOOTH",
"371 203.845 LINE",
"199 203.845 LINE"
);
}
);
width = 698;
}
);
unicode = 0645;
},
{
color = (255,0,255,255);
glyphname = "meem-ar.fina";
production = uni0645.fina;
layers = (
{
components = (
{
name = "meem-ar";
}
);
layerId = master01;
paths = (
{
closed = 1;
nodes = (
"501 0 LINE",
"460 0 LINE",
"460 79 LINE",
"501 79 LINE"
);
}
);
width = 485;
},
{
components = (
{
name = "meem-ar";
}
);
layerId = "0CAB57D4-4FC4-49C3-B456-FB7666EAA712";
paths = (
{
closed = 1;
nodes = (
"418 0 LINE",
"351 0 LINE",
"351 32 LINE",
"418 32 LINE"
);
}
);
width = 408;
},
{
components = (
{
name = "meem-ar";
}
);
layerId = "42B3044F-4D5A-45CA-9EB7-C1889731596B";
paths = (
{
closed = 1;
nodes = (
"658 0 LINE",
"632 0 LINE",
"632 172 LINE",
"658 172 LINE"
);
}
);
width = 638;
}
);
},
{
color = (255,0,255,255);
glyphname = "meem-ar.medi";
production = uni0645.medi;
layers = (
{
components = (
{
name = "meem-ar.init";
}
);
layerId = master01;
paths = (
{
closed = 1;
nodes = (
"475 0 LINE",
"434 0 LINE",
"434 79 LINE",
"475 79 LINE"
);
}
);
width = 459;
},
{
components = (
{
name = "meem-ar.init";
}
);
layerId = "0CAB57D4-4FC4-49C3-B456-FB7666EAA712";
paths = (
{
closed = 1;
nodes = (
"445 0 LINE",
"378 0 LINE",
"378 32 LINE",
"445 32 LINE"
);
}
);
width = 435;
},
{
components = (
{
name = "meem-ar.init";
}
);
layerId = "42B3044F-4D5A-45CA-9EB7-C1889731596B";
paths = (
{
closed = 1;
nodes = (
"575 0 LINE",
"549 0 LINE",
"549 172 LINE",
"575 172 LINE"
);
}
);
width = 555;
}
);
},
{
glyphname = "meem-ar.init";
production = uni0645.init;
layers = (
{
anchors = (
{
name = dotAbove;
position = "{257, 449}";
},
{
name = dotBelow;
position = "{179, -109}";
},
{
name = markAbove;
position = "{257, 485}";
},
{
name = markBelow;
position = "{179, -136}";
}
);
layerId = master01;
paths = (
{
closed = 1;
nodes = (
"0 79 LINE",
"123 79 LINE",
"119.5 75.5 OFFCURVE",
"116.5 72.5 OFFCURVE",
"113 69 CURVE",
"113 225 LINE SMOOTH",
"113 265 OFFCURVE",
"128 301 OFFCURVE",
"154 325 CURVE SMOOTH",
"212 382 OFFCURVE",
"314 378 OFFCURVE",
"375 315 CURVE SMOOTH",
"431 256 OFFCURVE",
"459 202 OFFCURVE",
"459 149 CURVE SMOOTH",
"459 45 OFFCURVE",
"354 0 OFFCURVE",
"265 0 CURVE SMOOTH",
"188 0 LINE",
"188 79 LINE",
"265 79 LINE SMOOTH",
"341 79 OFFCURVE",
"380 112 OFFCURVE",
"380 149 CURVE SMOOTH",
"380 172 OFFCURVE",
"366 210 OFFCURVE",
"318 261 CURVE SMOOTH",
"285 295 OFFCURVE",
"233 292 OFFCURVE",
"209 269 CURVE SMOOTH",
"199 259 OFFCURVE",
"192 246 OFFCURVE",
"192 225 CURVE SMOOTH",
"192 92 LINE",
"191 42 OFFCURVE",
"152 0 OFFCURVE",
"97 0 CURVE SMOOTH",
"0 0 LINE"
);
}
);
width = 505;
},
{
anchors = (
{
name = dotAbove;
position = "{267, 448}";
},
{
name = dotBelow;
position = "{189, -110}";
},
{
name = markAbove;
position = "{267, 486}";
},
{
name = markBelow;
position = "{189, -130}";
}
);
layerId = "0CAB57D4-4FC4-49C3-B456-FB7666EAA712";
paths = (
{
closed = 1;
nodes = (
"0 32 LINE",
"94 32 LINE SMOOTH",
"126 32 OFFCURVE",
"135 50 OFFCURVE",
"136 70 CURVE SMOOTH",
"136 201 LINE SMOOTH",
"136 236 OFFCURVE",
"148 265 OFFCURVE",
"169 285 CURVE SMOOTH",
"217 332 OFFCURVE",
"305 330 OFFCURVE",
"358 275 CURVE SMOOTH",
"411 219 OFFCURVE",
"435 169 OFFCURVE",
"435 125 CURVE SMOOTH",
"435 41 OFFCURVE",
"349 0 OFFCURVE",
"264 0 CURVE SMOOTH",
"166 0 LINE",
"166 32 LINE",
"264 32 LINE SMOOTH",
"344 32 OFFCURVE",
"403 69 OFFCURVE",
"403 125 CURVE SMOOTH",
"403 157 OFFCURVE",
"384 200 OFFCURVE",
"334 253 CURVE SMOOTH",
"293 296 OFFCURVE",
"226 295 OFFCURVE",
"192 262 CURVE SMOOTH",
"178 248 OFFCURVE",
"168 228 OFFCURVE",
"168 201 CURVE SMOOTH",
"168 70 LINE",
"167 38 OFFCURVE",
"146 0 OFFCURVE",
"94 0 CURVE SMOOTH",
"0 0 LINE"
);
}
);
width = 475;
},
{
anchors = (
{
name = dotAbove;
position = "{307, 608}";
},
{
name = dotBelow;
position = "{309, -150}";
},
{
name = markAbove;
position = "{307, 652}";
},
{
name = markBelow;
position = "{309, -185}";
}
);
layerId = "42B3044F-4D5A-45CA-9EB7-C1889731596B";
paths = (
{
closed = 1;
nodes = (
"0 172 LINE",
"136 172 LINE",
"129 165 OFFCURVE",
"123 159 OFFCURVE",
"116 152 CURVE",
"116 271 LINE SMOOTH",
"116 324 OFFCURVE",
"137 373 OFFCURVE",
"172 406 CURVE SMOOTH",
"251 481 OFFCURVE",
"380 475 OFFCURVE",
"458 393 CURVE SMOOTH",
"517 330 OFFCURVE",
"555 265 OFFCURVE",
"555 195 CURVE SMOOTH",
"555 50 OFFCURVE",
"411 0 OFFCURVE",
"314 0 CURVE SMOOTH",
"248 0 LINE",
"248 172 LINE",
"314 172 LINE SMOOTH",
"381 172 OFFCURVE",
"383 194 OFFCURVE",
"383 194 CURVE",
"383 199 OFFCURVE",
"377 229 OFFCURVE",
"333 275 CURVE SMOOTH",
"323 286 OFFCURVE",
"310 286 OFFCURVE",
"301 285 CURVE SMOOTH",
"288 283 OFFCURVE",
"288 268 OFFCURVE",
"288 259 CURVE SMOOTH",
"288 168 LINE SMOOTH",
"288 83 OFFCURVE",
"261 0 OFFCURVE",
"145 0 CURVE SMOOTH",
"0 0 LINE"
);
}
);
width = 615;
}
);
},
{
color = 0;
glyphname = "noon-ar";
layers = (
{
layerId = master01;
paths = (
{
closed = 1;
nodes = (
"0 800 LINE",
"1000 800 LINE",
"1000 -200 LINE",
"0 -200 LINE"
);
}
);
width = 1000;
},
{
layerId = "0CAB57D4-4FC4-49C3-B456-FB7666EAA712";
paths = (
{
closed = 1;
nodes = (
"0 800 LINE",
"1000 800 LINE",
"1000 -200 LINE",
"0 -200 LINE"
);
}
);
width = 1000;
},
{
layerId = "42B3044F-4D5A-45CA-9EB7-C1889731596B";
paths = (
{
closed = 1;
nodes = (
"0 800 LINE",
"1000 800 LINE",
"1000 -200 LINE",
"0 -200 LINE"
);
}
);
width = 1000;
}
);
unicode = 0646;
},
{
color = 0;
glyphname = "noonDotbelow-ar";
layers = (
{
layerId = master01;
paths = (
{
closed = 1;
nodes = (
"0 800 LINE",
"1000 800 LINE",
"1000 -200 LINE",
"0 -200 LINE"
);
}
);
width = 1000;
},
{
layerId = "0CAB57D4-4FC4-49C3-B456-FB7666EAA712";
paths = (
{
closed = 1;
nodes = (
"0 800 LINE",
"1000 800 LINE",
"1000 -200 LINE",
"0 -200 LINE"
);
}
);
width = 1000;
},
{
layerId = "42B3044F-4D5A-45CA-9EB7-C1889731596B";
paths = (
{
closed = 1;
nodes = (
"0 800 LINE",
"1000 800 LINE",
"1000 -200 LINE",
"0 -200 LINE"
);
}
);
width = 1000;
}
);
unicode = 06B9;
},
{
glyphname = "noonghunna-ar";
layers = (
{
anchors = (
{
name = dotAbove;
position = "{273, 302}";
},
{
name = dotBelow;
position = "{273, -297}";
},
{
name = markAbove;
position = "{273, 340}";
},
{
name = markBelow;
position = "{273, -323}";
},
{
name = ringBelow;
position = "{273, -188}";
}
);
layerId = master01;
paths = (
{
closed = 1;
nodes = (
"489 175 LINE",
"489 -96 LINE SMOOTH",
"489 -145 OFFCURVE",
"451 -188 OFFCURVE",
"398 -188 CURVE SMOOTH",
"260 -188 LINE SMOOTH",
"140 -188 OFFCURVE",
"46 -123 OFFCURVE",
"46 -16 CURVE SMOOTH",
"46 174 LINE",
"125 174 LINE",
"125 -16 LINE SMOOTH",
"125 -56 OFFCURVE",
"165 -108 OFFCURVE",
"260 -108 CURVE SMOOTH",
"420 -108 LINE",
"416.5 -111.5 OFFCURVE",
"413.5 -114.5 OFFCURVE",
"410 -118 CURVE",
"410 175 LINE"
);
}
);
width = 535;
},
{
anchors = (
{
name = dotAbove;
position = "{238, 302}";
},
{
name = dotBelow;
position = "{238, -297}";
},
{
name = markAbove;
position = "{238, 339}";
},
{
name = markBelow;
position = "{238, -317}";
},
{
name = ringBelow;
position = "{238, -187}";
}
);
layerId = "0CAB57D4-4FC4-49C3-B456-FB7666EAA712";
paths = (
{
closed = 1;
nodes = (
"436 152 LINE",
"436 -119 LINE SMOOTH",
"436 -153 OFFCURVE",
"408 -187 OFFCURVE",
"369 -187 CURVE SMOOTH",
"230 -187 LINE SMOOTH",
"124 -187 OFFCURVE",
"40 -133 OFFCURVE",
"40 -39 CURVE SMOOTH",
"40 151 LINE",
"72 151 LINE",
"72 -39 LINE SMOOTH",
"72 -105 OFFCURVE",
"134 -155 OFFCURVE",
"230 -155 CURVE SMOOTH",
"369 -155 LINE SMOOTH",
"388 -155 OFFCURVE",
"404 -137 OFFCURVE",
"404 -119 CURVE SMOOTH",
"404 152 LINE"
);
}
);
width = 476;
},
{
anchors = (
{
name = dotAbove;
position = "{328, 382}";
},
{
name = dotBelow;
position = "{328, -297}";
},
{
name = markAbove;
position = "{328, 426}";
},
{
name = markBelow;
position = "{328, -332}";
},
{
name = ringBelow;
position = "{328, -187}";
}
);
layerId = "42B3044F-4D5A-45CA-9EB7-C1889731596B";
paths = (
{
closed = 1;
nodes = (
"596 222 LINE",
"596 -49 LINE SMOOTH",
"596 -125 OFFCURVE",
"536 -187 OFFCURVE",
"459 -187 CURVE SMOOTH",
"320 -187 LINE SMOOTH",
"192 -187 OFFCURVE",
"60 -114 OFFCURVE",
"60 31 CURVE SMOOTH",
"60 221 LINE",
"232 221 LINE",
"232 32 LINE SMOOTH",
"232 5 OFFCURVE",
"259 -15 OFFCURVE",
"320 -15 CURVE SMOOTH",
"464 -15 LINE",
"450 -25.5 OFFCURVE",
"438 -34.5 OFFCURVE",
"424 -45 CURVE",
"424 222 LINE"
);
}
);
width = 656;
}
);
unicode = 06BA;
},
{
color = (255,0,255,255);
glyphname = "noonghunna-ar.fina";
production = uni06BA.fina;
layers = (
{
components = (
{
name = "noonghunna-ar";
}
);
layerId = master01;
paths = (
{
closed = 1;
nodes = (
"619 0 LINE",
"475 0 LINE",
"475 79 LINE",
"619 79 LINE"
);
}
);
width = 603;
},
{
components = (
{
name = "noonghunna-ar";
}
);
layerId = "0CAB57D4-4FC4-49C3-B456-FB7666EAA712";
paths = (
{
closed = 1;
nodes = (
"584 0 LINE",
"432 0 LINE",
"432 32 LINE",
"584 32 LINE"
);
}
);
width = 574;
},
{
components = (
{
name = "noonghunna-ar";
}
);
layerId = "42B3044F-4D5A-45CA-9EB7-C1889731596B";
paths = (
{
closed = 1;
nodes = (
"704 0 LINE",
"543 0 LINE",
"543 172 LINE",
"704 172 LINE"
);
}
);
width = 684;
}
);
},
{
color = 0;
glyphname = "rnoon-ar";
layers = (
{
layerId = master01;
paths = (
{
closed = 1;
nodes = (
"0 800 LINE",
"1000 800 LINE",
"1000 -200 LINE",
"0 -200 LINE"
);
}
);
width = 1000;
},
{
layerId = "0CAB57D4-4FC4-49C3-B456-FB7666EAA712";
paths = (
{
closed = 1;
nodes = (
"0 800 LINE",
"1000 800 LINE",
"1000 -200 LINE",
"0 -200 LINE"
);
}
);
width = 1000;
},
{
layerId = "42B3044F-4D5A-45CA-9EB7-C1889731596B";
paths = (
{
closed = 1;
nodes = (
"0 800 LINE",
"1000 800 LINE",
"1000 -200 LINE",
"0 -200 LINE"
);
}
);
width = 1000;
}
);
unicode = 06BB;
},
{
color = 0;
glyphname = "noonRing-ar";
layers = (
{
layerId = master01;
paths = (
{
closed = 1;
nodes = (
"0 800 LINE",
"1000 800 LINE",
"1000 -200 LINE",
"0 -200 LINE"
);
}
);
width = 1000;
},
{
layerId = "0CAB57D4-4FC4-49C3-B456-FB7666EAA712";
paths = (
{
closed = 1;
nodes = (
"0 800 LINE",
"1000 800 LINE",
"1000 -200 LINE",
"0 -200 LINE"
);
}
);
width = 1000;
},
{
layerId = "42B3044F-4D5A-45CA-9EB7-C1889731596B";
paths = (
{
closed = 1;
nodes = (
"0 800 LINE",
"1000 800 LINE",
"1000 -200 LINE",
"0 -200 LINE"
);
}
);
width = 1000;
}
);
unicode = 06BC;
},
{
color = 0;
glyphname = "noonThreedotsabove-ar";
layers = (
{
layerId = master01;
paths = (
{
closed = 1;
nodes = (
"0 800 LINE",
"1000 800 LINE",
"1000 -200 LINE",
"0 -200 LINE"
);
}
);
width = 1000;
},
{
layerId = "0CAB57D4-4FC4-49C3-B456-FB7666EAA712";
paths = (
{
closed = 1;
nodes = (
"0 800 LINE",
"1000 800 LINE",
"1000 -200 LINE",
"0 -200 LINE"
);
}
);
width = 1000;
},
{
layerId = "42B3044F-4D5A-45CA-9EB7-C1889731596B";
paths = (
{
closed = 1;
nodes = (
"0 800 LINE",
"1000 800 LINE",
"1000 -200 LINE",
"0 -200 LINE"
);
}
);
width = 1000;
}
);
unicode = 06BD;
},
{
glyphname = "heh-ar";
layers = (
{
anchors = (
{
name = dotAbove;
position = "{261, 505}";
},
{
name = dotBelow;
position = "{239, -109}";
},
{
name = hamzaAbove;
position = "{261, 450}";
},
{
name = kafAbove;
position = "{261, 450}";
},
{
name = markAbove;
position = "{261, 541}";
},
{
name = markBelow;
position = "{239, -136}";
}
);
layerId = master01;
paths = (
{
closed = 1;
nodes = (
"259 242 OFFCURVE",
"198 203 OFFCURVE",
"137 145 CURVE SMOOTH",
"118 124 OFFCURVE",
"123 104 OFFCURVE",
"138 91 CURVE SMOOTH",
"145 84 OFFCURVE",
"157 79 OFFCURVE",
"171 79 CURVE SMOOTH",
"323 79 LINE",
"319.5 75.5 OFFCURVE",
"316.5 72.5 OFFCURVE",
"313 69 CURVE",
"313 351 LINE",
"391 351 LINE",
"391 92 LINE SMOOTH",
"391 40 OFFCURVE",
"352 0 OFFCURVE",
"300 0 CURVE SMOOTH",
"171 0 LINE SMOOTH",
"138 0 OFFCURVE",
"107 13 OFFCURVE",
"84 33 CURVE SMOOTH",
"41 73 OFFCURVE",
"28 151 OFFCURVE",
"81 201 CURVE SMOOTH",
"154 270 OFFCURVE",
"202 298 OFFCURVE",
"243 397 CURVE",
"317 366 LINE"
);
}
);
width = 438;
},
{
anchors = (
{
name = dotAbove;
position = "{220, 504}";
},
{
name = dotBelow;
position = "{204, -110}";
},
{
name = hamzaAbove;
position = "{220, 449}";
},
{
name = kafAbove;
position = "{220, 449}";
},
{
name = markAbove;
position = "{220, 542}";
},
{
name = markBelow;
position = "{204, -130}";
}
);
layerId = "0CAB57D4-4FC4-49C3-B456-FB7666EAA712";
paths = (
{
closed = 1;
nodes = (
"219 241 OFFCURVE",
"158 202 OFFCURVE",
"90 138 CURVE SMOOTH",
"62 107 OFFCURVE",
"69 71 OFFCURVE",
"93 50 CURVE SMOOTH",
"105 39 OFFCURVE",
"122 32 OFFCURVE",
"142 32 CURVE SMOOTH",
"252 32 LINE SMOOTH",
"271 32 OFFCURVE",
"288 49 OFFCURVE",
"288 68 CURVE SMOOTH",
"288 327 LINE",
"320 327 LINE",
"320 68 LINE SMOOTH",
"320 31 OFFCURVE",
"289 0 OFFCURVE",
"252 0 CURVE SMOOTH",
"142 0 LINE SMOOTH",
"114 0 OFFCURVE",
"89 11 OFFCURVE",
"71 27 CURVE SMOOTH",
"37 58 OFFCURVE",
"24 120 OFFCURVE",
"68 161 CURVE SMOOTH",
"139 227 OFFCURVE",
"192 260 OFFCURVE",
"235 364 CURVE",
"265 352 LINE"
);
}
);
width = 360;
},
{
anchors = (
{
name = dotAbove;
position = "{340, 604}";
},
{
name = dotBelow;
position = "{314, -161}";
},
{
name = hamzaAbove;
position = "{340, 499}";
},
{
name = kafAbove;
position = "{340, 499}";
},
{
name = markAbove;
position = "{340, 652}";
},
{
name = markBelow;
position = "{314, -196}";
}
);
layerId = "42B3044F-4D5A-45CA-9EB7-C1889731596B";
paths = (
{
closed = 1;
nodes = (
"374 284 OFFCURVE",
"329 250 OFFCURVE",
"224 154 CURVE",
"220.481 155.207 OFFCURVE",
"218.612 158.166 OFFCURVE",
"218.241 163.9 CURVE SMOOTH",
"218.016 167.371 OFFCURVE",
"219.702 171.717 OFFCURVE",
"224 172 CURVE",
"357 172 LINE",
"350 165 OFFCURVE",
"344 159 OFFCURVE",
"337 152 CURVE",
"337 397 LINE",
"509 397 LINE",
"509 138 LINE SMOOTH",
"509 62 OFFCURVE",
"447 0 OFFCURVE",
"371 0 CURVE SMOOTH",
"231 0 LINE SMOOTH",
"186 0 OFFCURVE",
"144 17 OFFCURVE",
"113 45 CURVE SMOOTH",
"52 100 OFFCURVE",
"34 209 OFFCURVE",
"109 282 CURVE SMOOTH",
"185 356 OFFCURVE",
"224 376 OFFCURVE",
"260 461 CURVE",
"420 397 LINE"
);
}
);
width = 569;
}
);
unicode = 0647;
},
{
glyphname = "heh-ar.init";
production = uni0647.init;
layers = (
{
anchors = (
{
name = dotAbove;
position = "{336, 532}";
},
{
name = dotBelow;
position = "{336, -149}";
},
{
name = hamzaAbove;
position = "{336, 532}";
},
{
name = kafAbove;
position = "{336, 532}";
},
{
name = markAbove;
position = "{336, 664}";
},
{
name = markBelow;
position = "{336, -176}";
}
);
layerId = master01;
paths = (
{
closed = 1;
nodes = (
"250 474 LINE",
"532 470 OFFCURVE",
"660 262 OFFCURVE",
"656 92 CURVE SMOOTH",
"655 40 OFFCURVE",
"614 0 OFFCURVE",
"564 0 CURVE SMOOTH",
"0 0 LINE",
"0 79 LINE",
"587 79 LINE",
"583.15 75.5 OFFCURVE",
"579.85 72.5 OFFCURVE",
"576 69 CURVE",
"582 218 OFFCURVE",
"485 392 OFFCURVE",
"248 396 CURVE"
);
},
{
closed = 1;
nodes = (
"133 75 LINE",
"133 187 LINE SMOOTH",
"133 233 OFFCURVE",
"153 273 OFFCURVE",
"187 295 CURVE SMOOTH",
"258 342 OFFCURVE",
"362 311 OFFCURVE",
"423 218 CURVE SMOOTH",
"443 187 OFFCURVE",
"454 156 OFFCURVE",
"455 126 CURVE SMOOTH",
"456 45 OFFCURVE",
"385 2 OFFCURVE",
"323 1 CURVE",
"321 79 LINE",
"354 79 OFFCURVE",
"376 99 OFFCURVE",
"376 125 CURVE SMOOTH",
"376 136 OFFCURVE",
"371 153 OFFCURVE",
"357 175 CURVE SMOOTH",
"313 243 OFFCURVE",
"254 245 OFFCURVE",
"231 230 CURVE SMOOTH",
"220 222 OFFCURVE",
"211 211 OFFCURVE",
"211 187 CURVE SMOOTH",
"211 75 LINE"
);
}
);
width = 702;
},
{
anchors = (
{
name = dotAbove;
position = "{336, 500}";
},
{
name = dotBelow;
position = "{336, -150}";
},
{
name = hamzaAbove;
position = "{336, 500}";
},
{
name = kafAbove;
position = "{336, 500}";
},
{
name = markAbove;
position = "{336, 665}";
},
{
name = markBelow;
position = "{336, -170}";
}
);
layerId = "0CAB57D4-4FC4-49C3-B456-FB7666EAA712";
paths = (
{
closed = 1;
nodes = (
"249 427 LINE",
"517 423 OFFCURVE",
"636 228 OFFCURVE",
"632 68 CURVE SMOOTH",
"632 30 OFFCURVE",
"601 0 OFFCURVE",
"564 0 CURVE SMOOTH",
"0 0 LINE",
"0 32 LINE",
"564 32 LINE SMOOTH",
"585 32 OFFCURVE",
"600 46 OFFCURVE",
"600 68 CURVE SMOOTH",
"604 212 OFFCURVE",
"499 391 OFFCURVE",
"249 395 CURVE"
);
},
{
closed = 1;
nodes = (
"156 26 LINE",
"156 163 LINE SMOOTH",
"156 203 OFFCURVE",
"173 234 OFFCURVE",
"200 252 CURVE SMOOTH",
"257 290 OFFCURVE",
"347 267 OFFCURVE",
"403 182 CURVE SMOOTH",
"421 153 OFFCURVE",
"430 126 OFFCURVE",
"431 102 CURVE SMOOTH",
"432 37 OFFCURVE",
"376 1 OFFCURVE",
"322 0 CURVE",
"322 32 LINE",
"364 33 OFFCURVE",
"400 59 OFFCURVE",
"399 101 CURVE SMOOTH",
"399 118 OFFCURVE",
"393 139 OFFCURVE",
"377 164 CURVE SMOOTH",
"328 239 OFFCURVE",
"255 251 OFFCURVE",
"218 226 CURVE SMOOTH",
"200 214 OFFCURVE",
"188 194 OFFCURVE",
"188 163 CURVE SMOOTH",
"188 26 LINE"
);
}
);
width = 672;
},
{
anchors = (
{
name = dotAbove;
position = "{336, 675}";
},
{
name = dotBelow;
position = "{336, -150}";
},
{
name = hamzaAbove;
position = "{336, 675}";
},
{
name = kafAbove;
position = "{336, 675}";
},
{
name = markAbove;
position = "{336, 675}";
},
{
name = markBelow;
position = "{336, -185}";
}
);
layerId = "42B3044F-4D5A-45CA-9EB7-C1889731596B";
paths = (
{
closed = 1;
nodes = (
"269 622 LINE",
"584 622 OFFCURVE",
"726 319 OFFCURVE",
"722 137 CURVE SMOOTH",
"721 56 OFFCURVE",
"656 0 OFFCURVE",
"584 0 CURVE SMOOTH",
"0 0 LINE",
"0 172 LINE",
"568 172 LINE",
"562.4 165 OFFCURVE",
"557.6 159 OFFCURVE",
"552 152 CURVE",
"541 294 OFFCURVE",
"436 450 OFFCURVE",
"269 450 CURVE"
);
},
{
closed = 1;
nodes = (
"86 136 LINE",
"86 233 LINE SMOOTH",
"86 294 OFFCURVE",
"116 351 OFFCURVE",
"162 381 CURVE SMOOTH",
"262 447 OFFCURVE",
"392 397 OFFCURVE",
"462 290 CURVE SMOOTH",
"502 229 OFFCURVE",
"518 152 OFFCURVE",
"478 85 CURVE SMOOTH",
"443 26 OFFCURVE",
"380 1 OFFCURVE",
"323 0 CURVE",
"321 172 LINE",
"324 172 OFFCURVE",
"327 173 OFFCURVE",
"326 176 CURVE SMOOTH",
"320 192 OFFCURVE",
"312 205 OFFCURVE",
"304 214 CURVE SMOOTH",
"288 231 OFFCURVE",
"274 236 OFFCURVE",
"265 237 CURVE",
"260 238 OFFCURVE",
"258 235 OFFCURVE",
"258 230 CURVE SMOOTH",
"258 136 LINE"
);
}
);
width = 782;
}
);
},
{
color = 0;
glyphname = "hehHamzaabove-ar";
layers = (
{
layerId = master01;
paths = (
{
closed = 1;
nodes = (
"0 800 LINE",
"1000 800 LINE",
"1000 -200 LINE",
"0 -200 LINE"
);
}
);
width = 1000;
},
{
layerId = "0CAB57D4-4FC4-49C3-B456-FB7666EAA712";
paths = (
{
closed = 1;
nodes = (
"0 800 LINE",
"1000 800 LINE",
"1000 -200 LINE",
"0 -200 LINE"
);
}
);
width = 1000;
},
{
layerId = "42B3044F-4D5A-45CA-9EB7-C1889731596B";
paths = (
{
closed = 1;
nodes = (
"0 800 LINE",
"1000 800 LINE",
"1000 -200 LINE",
"0 -200 LINE"
);
}
);
width = 1000;
}
);
unicode = 06C0;
},
{
color = 0;
glyphname = "hehgoal-ar";
layers = (
{
layerId = master01;
paths = (
{
closed = 1;
nodes = (
"0 800 LINE",
"1000 800 LINE",
"1000 -200 LINE",
"0 -200 LINE"
);
}
);
width = 1000;
},
{
layerId = "0CAB57D4-4FC4-49C3-B456-FB7666EAA712";
paths = (
{
closed = 1;
nodes = (
"0 800 LINE",
"1000 800 LINE",
"1000 -200 LINE",
"0 -200 LINE"
);
}
);
width = 1000;
},
{
layerId = "42B3044F-4D5A-45CA-9EB7-C1889731596B";
paths = (
{
closed = 1;
nodes = (
"0 800 LINE",
"1000 800 LINE",
"1000 -200 LINE",
"0 -200 LINE"
);
}
);
width = 1000;
}
);
unicode = 06C1;
},
{
glyphname = "hehgoal-ar.fina";
production = uni06C1.fina;
layers = (
{
anchors = (
{
name = dotAbove;
position = "{170, 270}";
},
{
name = dotBelow;
position = "{193, -113}";
},
{
name = hamzaAbove;
position = "{170, 270}";
},
{
name = kafAbove;
position = "{170, 270}";
},
{
name = markAbove;
position = "{170, 308}";
},
{
name = markBelow;
position = "{193, -139}";
}
);
layerId = master01;
paths = (
{
closed = 1;
nodes = (
"81 -47 LINE",
"81 24 LINE SMOOTH",
"81 76 OFFCURVE",
"124 115 OFFCURVE",
"174 115 CURVE SMOOTH",
"331 115 LINE",
"331 36 LINE",
"150 36 LINE",
"153.5 39.85 OFFCURVE",
"156.5 43.15 OFFCURVE",
"160 47 CURVE",
"160 -47 LINE"
);
}
);
width = 315;
},
{
anchors = (
{
name = dotAbove;
position = "{109, 180}";
},
{
name = dotBelow;
position = "{139, -120}";
},
{
name = hamzaAbove;
position = "{109, 180}";
},
{
name = kafAbove;
position = "{109, 180}";
},
{
name = markAbove;
position = "{109, 217}";
},
{
name = markBelow;
position = "{139, -140}";
}
);
layerId = "0CAB57D4-4FC4-49C3-B456-FB7666EAA712";
paths = (
{
closed = 1;
nodes = (
"40 -58 LINE",
"40 -5 LINE SMOOTH",
"40 33 OFFCURVE",
"70 62 OFFCURVE",
"109 62 CURVE SMOOTH",
"218 62 LINE",
"218 30 LINE",
"109 30 LINE SMOOTH",
"86 30 OFFCURVE",
"72 15 OFFCURVE",
"72 -5 CURVE SMOOTH",
"72 -58 LINE"
);
}
);
width = 218;
},
{
anchors = (
{
name = dotAbove;
position = "{254, 442}";
},
{
name = dotBelow;
position = "{299, -100}";
},
{
name = hamzaAbove;
position = "{254, 442}";
},
{
name = kafAbove;
position = "{254, 442}";
},
{
name = markAbove;
position = "{254, 486}";
},
{
name = markBelow;
position = "{299, -135}";
}
);
layerId = "42B3044F-4D5A-45CA-9EB7-C1889731596B";
paths = (
{
closed = 1;
nodes = (
"120 -48 LINE",
"120 94 LINE SMOOTH",
"120 170 OFFCURVE",
"183 232 OFFCURVE",
"259 232 CURVE SMOOTH",
"498 232 LINE",
"498 60 LINE",
"272 60 LINE",
"279 67 OFFCURVE",
"285 73 OFFCURVE",
"292 80 CURVE",
"292 -48 LINE"
);
}
);
width = 478;
}
);
},
{
glyphname = "hehgoal-ar.medi";
production = uni06C1.medi;
layers = (
{
anchors = (
{
name = dotAbove;
position = "{282, 233}";
},
{
name = dotBelow;
position = "{340, -401}";
},
{
name = hamzaAbove;
position = "{336, 233}";
},
{
name = kafAbove;
position = "{336, 233}";
},
{
name = markAbove;
position = "{282, 270}";
},
{
name = markBelow;
position = "{340, -428}";
}
);
layerId = master01;
paths = (
{
closed = 1;
nodes = (
"264 -283 LINE",
"246 -189 OFFCURVE",
"218 -199 OFFCURVE",
"173 -126 CURVE SMOOTH",
"139 -70 OFFCURVE",
"146 -13 OFFCURVE",
"130 0 CURVE SMOOTH",
"0 0 LINE",
"0 79 LINE",
"139 79 LINE SMOOTH",
"232 79 OFFCURVE",
"223 -55 OFFCURVE",
"241 -85 CURVE SMOOTH",
"268 -128 OFFCURVE",
"320 -154 OFFCURVE",
"342 -268 CURVE"
);
},
{
closed = 1;
nodes = (
"335 -276 LINE",
"335 -12 LINE SMOOTH",
"335 39 OFFCURVE",
"377 79 OFFCURVE",
"427 79 CURVE SMOOTH",
"582 79 LINE",
"582 0 LINE",
"403 0 LINE",
"406.5 3.5 OFFCURVE",
"409.5 6.5 OFFCURVE",
"413 10 CURVE",
"413 -276 LINE"
);
}
);
width = 566;
},
{
anchors = (
{
name = dotAbove;
position = "{263, 232}";
},
{
name = dotBelow;
position = "{321, -402}";
},
{
name = hamzaAbove;
position = "{336, 232}";
},
{
name = kafAbove;
position = "{336, 232}";
},
{
name = markAbove;
position = "{263, 269}";
},
{
name = markBelow;
position = "{321, -422}";
}
);
layerId = "0CAB57D4-4FC4-49C3-B456-FB7666EAA712";
paths = (
{
closed = 1;
nodes = (
"287 -302 LINE",
"268 -202 OFFCURVE",
"233 -201 OFFCURVE",
"193 -137 CURVE SMOOTH",
"149 -66 OFFCURVE",
"172 0 OFFCURVE",
"140 0 CURVE SMOOTH",
"0 0 LINE",
"0 32 LINE",
"140 32 LINE SMOOTH",
"208 32 OFFCURVE",
"197 -82 OFFCURVE",
"221 -121 CURVE SMOOTH",
"253 -173 OFFCURVE",
"298 -188 OFFCURVE",
"319 -296 CURVE"
);
},
{
closed = 1;
nodes = (
"318 -286 LINE",
"318 -36 LINE SMOOTH",
"318 1 OFFCURVE",
"349 32 OFFCURVE",
"386 32 CURVE SMOOTH",
"536 32 LINE",
"536 0 LINE",
"386 0 LINE SMOOTH",
"367 0 OFFCURVE",
"350 -17 OFFCURVE",
"350 -36 CURVE SMOOTH",
"350 -286 LINE"
);
}
);
width = 526;
},
{
anchors = (
{
name = dotAbove;
position = "{293, 232}";
},
{
name = dotBelow;
position = "{351, -402}";
},
{
name = hamzaAbove;
position = "{336, 232}";
},
{
name = kafAbove;
position = "{336, 232}";
},
{
name = markAbove;
position = "{293, 276}";
},
{
name = markBelow;
position = "{351, -437}";
}
);
layerId = "42B3044F-4D5A-45CA-9EB7-C1889731596B";
paths = (
{
closed = 1;
nodes = (
"234 -245 LINE",
"218 -164 OFFCURVE",
"205 -194 OFFCURVE",
"149 -104 CURVE SMOOTH",
"124 -63 OFFCURVE",
"123 0 OFFCURVE",
"98 0 CURVE SMOOTH",
"0 0 LINE",
"0 172 LINE",
"142 172 LINE SMOOTH",
"283 172 OFFCURVE",
"276 16 OFFCURVE",
"295 -14 CURVE SMOOTH",
"329 -66 OFFCURVE",
"378 -86 OFFCURVE",
"402 -213 CURVE"
);
},
{
closed = 1;
nodes = (
"375 -206 LINE",
"375 34 LINE SMOOTH",
"375 110 OFFCURVE",
"437 172 OFFCURVE",
"513 172 CURVE SMOOTH",
"673 172 LINE",
"673 0 LINE",
"527 0 LINE",
"534 7 OFFCURVE",
"540 13 OFFCURVE",
"547 20 CURVE",
"547 -206 LINE"
);
}
);
width = 653;
}
);
},
{
glyphname = "hehgoal-ar.init";
production = uni06C1.init;
layers = (
{
anchors = (
{
name = dotAbove;
position = "{112, 491}";
},
{
name = markAbove;
position = "{112, 527}";
}
);
layerId = master01;
paths = (
{
closed = 1;
nodes = (
"294 232 LINE",
"294 91 LINE SMOOTH",
"294 39 OFFCURVE",
"252 0 OFFCURVE",
"202 0 CURVE SMOOTH",
"0 0 LINE",
"0 79 LINE",
"226 79 LINE",
"222.5 75.5 OFFCURVE",
"219.5 72.5 OFFCURVE",
"216 69 CURVE",
"216 232 LINE"
);
},
{
closed = 1;
nodes = (
"313 -176 LINE",
"261 -235 OFFCURVE",
"200 -235 OFFCURVE",
"170 -212 CURVE SMOOTH",
"143 -191 OFFCURVE",
"132 -155 OFFCURVE",
"139 -111 CURVE SMOOTH",
"153 -40 OFFCURVE",
"175 -3 OFFCURVE",
"228 58 CURVE",
"268 27 LINE",
"234 -12 OFFCURVE",
"218 -33 OFFCURVE",
"206 -86 CURVE SMOOTH",
"193 -139 OFFCURVE",
"225 -185 OFFCURVE",
"273 -146 CURVE"
);
}
);
width = 352;
},
{
anchors = (
{
name = dotAbove;
position = "{99, 490}";
},
{
name = markAbove;
position = "{99, 528}";
}
);
layerId = "0CAB57D4-4FC4-49C3-B456-FB7666EAA712";
paths = (
{
closed = 1;
nodes = (
"258 190 LINE",
"258 67 LINE SMOOTH",
"258 29 OFFCURVE",
"228 0 OFFCURVE",
"189 0 CURVE SMOOTH",
"0 0 LINE",
"0 32 LINE",
"189 32 LINE SMOOTH",
"212 32 OFFCURVE",
"226 47 OFFCURVE",
"226 67 CURVE SMOOTH",
"226 190 LINE"
);
},
{
closed = 1;
nodes = (
"279 -174 LINE",
"252 -208 OFFCURVE",
"201 -215 OFFCURVE",
"174 -192 CURVE SMOOTH",
"149 -171 OFFCURVE",
"143 -137 OFFCURVE",
"149 -103 CURVE SMOOTH",
"159 -50 OFFCURVE",
"181 -6 OFFCURVE",
"215 42 CURVE",
"241 24 LINE",
"209 -22 OFFCURVE",
"199.751 -41.082 OFFCURVE",
"185.645 -86.37 CURVE SMOOTH",
"162.479 -160.743 OFFCURVE",
"212.342 -194.205 OFFCURVE",
"254 -154 CURVE"
);
}
);
width = 298;
},
{
associatedMasterId = "0CAB57D4-4FC4-49C3-B456-FB7666EAA712";
layerId = "D932C6FB-B267-407E-8BFA-78F29381669F";
name = Back;
paths = (
{
closed = 1;
nodes = (
"241 24 LINE",
"209 -22 OFFCURVE",
"189 -62 OFFCURVE",
"180 -109 CURVE SMOOTH",
"176 -132 OFFCURVE",
"178 -152 OFFCURVE",
"192 -164 CURVE SMOOTH",
"204 -174 OFFCURVE",
"229 -185 OFFCURVE",
"254 -154 CURVE",
"279 -174 LINE",
"252 -208 OFFCURVE",
"201 -215 OFFCURVE",
"174 -192 CURVE SMOOTH",
"149 -171 OFFCURVE",
"143 -137 OFFCURVE",
"149 -103 CURVE SMOOTH",
"159 -50 OFFCURVE",
"181 -6 OFFCURVE",
"215 42 CURVE"
);
}
);
width = 298;
},
{
anchors = (
{
name = dotAbove;
position = "{184, 562}";
},
{
name = markAbove;
position = "{184, 610}";
}
);
layerId = "42B3044F-4D5A-45CA-9EB7-C1889731596B";
paths = (
{
closed = 1;
nodes = (
"378 310 LINE",
"378 138 LINE SMOOTH",
"378 62 OFFCURVE",
"315 0 OFFCURVE",
"239 0 CURVE SMOOTH",
"0 0 LINE",
"0 172 LINE",
"226 172 LINE",
"219 165 OFFCURVE",
"213 159 OFFCURVE",
"206 152 CURVE",
"206 310 LINE"
);
},
{
closed = 1;
nodes = (
"374 -207 LINE",
"334 -269 OFFCURVE",
"232 -334 OFFCURVE",
"161 -279 CURVE SMOOTH",
"131 -256 OFFCURVE",
"115 -215 OFFCURVE",
"125 -160 CURVE SMOOTH",
"141 -73 OFFCURVE",
"198 25 OFFCURVE",
"265 97 CURVE",
"335 39 LINE",
"296 -3 OFFCURVE",
"257 -71 OFFCURVE",
"247 -122 CURVE SMOOTH",
"237 -174 OFFCURVE",
"278 -177 OFFCURVE",
"302 -151 CURVE"
);
}
);
width = 498;
},
{
associatedMasterId = "42B3044F-4D5A-45CA-9EB7-C1889731596B";
layerId = "24CCD37B-0942-4893-8FE1-CDA6329D6657";
name = Back;
paths = (
{
closed = 0;
nodes = (
"300 18 LINE",
"247 -39 OFFCURVE",
"199.064 -122.195 OFFCURVE",
"186 -191 CURVE SMOOTH",
"171 -270 OFFCURVE",
"247 -327 OFFCURVE",
"318 -249 CURVE"
);
}
);
width = 498;
}
);
},
{
color = 0;
glyphname = "hehgoalHamzaabove-ar";
layers = (
{
layerId = master01;
paths = (
{
closed = 1;
nodes = (
"0 800 LINE",
"1000 800 LINE",
"1000 -200 LINE",
"0 -200 LINE"
);
}
);
width = 1000;
},
{
layerId = "0CAB57D4-4FC4-49C3-B456-FB7666EAA712";
paths = (
{
closed = 1;
nodes = (
"0 800 LINE",
"1000 800 LINE",
"1000 -200 LINE",
"0 -200 LINE"
);
}
);
width = 1000;
},
{
layerId = "42B3044F-4D5A-45CA-9EB7-C1889731596B";
paths = (
{
closed = 1;
nodes = (
"0 800 LINE",
"1000 800 LINE",
"1000 -200 LINE",
"0 -200 LINE"
);
}
);
width = 1000;
}
);
unicode = 06C2;
},
{
color = 0;
glyphname = "hehDoachashmee-ar";
layers = (
{
layerId = master01;
paths = (
{
closed = 1;
nodes = (
"0 800 LINE",
"1000 800 LINE",
"1000 -200 LINE",
"0 -200 LINE"
);
}
);
width = 1000;
},
{
layerId = "0CAB57D4-4FC4-49C3-B456-FB7666EAA712";
paths = (
{
closed = 1;
nodes = (
"0 800 LINE",
"1000 800 LINE",
"1000 -200 LINE",
"0 -200 LINE"
);
}
);
width = 1000;
},
{
layerId = "42B3044F-4D5A-45CA-9EB7-C1889731596B";
paths = (
{
closed = 1;
nodes = (
"0 800 LINE",
"1000 800 LINE",
"1000 -200 LINE",
"0 -200 LINE"
);
}
);
width = 1000;
}
);
unicode = 06BE;
},
{
color = 0;
glyphname = "hehVinvertedabove-ar";
layers = (
{
layerId = master01;
paths = (
{
closed = 1;
nodes = (
"0 800 LINE",
"1000 800 LINE",
"1000 -200 LINE",
"0 -200 LINE"
);
}
);
width = 1000;
},
{
layerId = "0CAB57D4-4FC4-49C3-B456-FB7666EAA712";
paths = (
{
closed = 1;
nodes = (
"0 800 LINE",
"1000 800 LINE",
"1000 -200 LINE",
"0 -200 LINE"
);
}
);
width = 1000;
},
{
layerId = "42B3044F-4D5A-45CA-9EB7-C1889731596B";
paths = (
{
closed = 1;
nodes = (
"0 800 LINE",
"1000 800 LINE",
"1000 -200 LINE",
"0 -200 LINE"
);
}
);
width = 1000;
}
);
unicode = 06FF;
},
{
color = 0;
glyphname = "tehMarbuta-ar";
layers = (
{
layerId = master01;
paths = (
{
closed = 1;
nodes = (
"0 800 LINE",
"1000 800 LINE",
"1000 -200 LINE",
"0 -200 LINE"
);
}
);
width = 1000;
},
{
layerId = "0CAB57D4-4FC4-49C3-B456-FB7666EAA712";
paths = (
{
closed = 1;
nodes = (
"0 800 LINE",
"1000 800 LINE",
"1000 -200 LINE",
"0 -200 LINE"
);
}
);
width = 1000;
},
{
layerId = "42B3044F-4D5A-45CA-9EB7-C1889731596B";
paths = (
{
closed = 1;
nodes = (
"0 800 LINE",
"1000 800 LINE",
"1000 -200 LINE",
"0 -200 LINE"
);
}
);
width = 1000;
}
);
unicode = 0629;
},
{
color = 0;
glyphname = "tehMarbutagoal-ar";
layers = (
{
layerId = master01;
paths = (
{
closed = 1;
nodes = (
"0 800 LINE",
"1000 800 LINE",
"1000 -200 LINE",
"0 -200 LINE"
);
}
);
width = 1000;
},
{
layerId = "0CAB57D4-4FC4-49C3-B456-FB7666EAA712";
paths = (
{
closed = 1;
nodes = (
"0 800 LINE",
"1000 800 LINE",
"1000 -200 LINE",
"0 -200 LINE"
);
}
);
width = 1000;
},
{
layerId = "42B3044F-4D5A-45CA-9EB7-C1889731596B";
paths = (
{
closed = 1;
nodes = (
"0 800 LINE",
"1000 800 LINE",
"1000 -200 LINE",
"0 -200 LINE"
);
}
);
width = 1000;
}
);
unicode = 06C3;
},
{
glyphname = "waw-ar";
layers = (
{
anchors = (
{
name = dash;
position = "{340, -60}";
},
{
name = dotAbove;
position = "{252, 466}";
},
{
name = dotBelow;
position = "{188, -309}";
},
{
name = hamzaAbove;
position = "{252, 466}";
},
{
name = kafAbove;
position = "{252, 466}";
},
{
name = markAbove;
position = "{220, 503}";
},
{
name = markBelow;
position = "{188, -335}";
},
{
name = ringBelow;
position = "{188, -200}";
}
);
layerId = master01;
paths = (
{
closed = 1;
nodes = (
"193 0 LINE SMOOTH",
"111 0 OFFCURVE",
"46 68 OFFCURVE",
"50 145 CURVE SMOOTH",
"62 274 OFFCURVE",
"170 349 OFFCURVE",
"261 350 CURVE SMOOTH",
"329 351 OFFCURVE",
"392 305 OFFCURVE",
"392 220 CURVE SMOOTH",
"392 -14 LINE SMOOTH",
"392 -106 OFFCURVE",
"324 -200 OFFCURVE",
"215 -200 CURVE SMOOTH",
"22 -200 LINE",
"22 -120 LINE",
"215 -120 LINE SMOOTH",
"273 -120 OFFCURVE",
"314 -70 OFFCURVE",
"314 -13 CURVE SMOOTH",
"314 207 LINE SMOOTH",
"314 247 OFFCURVE",
"295 271 OFFCURVE",
"262 271 CURVE SMOOTH",
"210 271 OFFCURVE",
"137 224 OFFCURVE",
"128 139 CURVE SMOOTH",
"127 111 OFFCURVE",
"154 79 OFFCURVE",
"193 79 CURVE SMOOTH",
"351 79 LINE",
"351 0 LINE"
);
}
);
width = 439;
},
{
anchors = (
{
name = dash;
position = "{325, -76}";
},
{
name = dotAbove;
position = "{233, 434}";
},
{
name = dotBelow;
position = "{169, -309}";
},
{
name = hamzaAbove;
position = "{233, 434}";
},
{
name = kafAbove;
position = "{233, 434}";
},
{
name = markAbove;
position = "{193, 472}";
},
{
name = markBelow;
position = "{169, -329}";
},
{
name = ringBelow;
position = "{169, -199}";
}
);
layerId = "0CAB57D4-4FC4-49C3-B456-FB7666EAA712";
paths = (
{
closed = 1;
nodes = (
"171 0 LINE SMOOTH",
"101 0 OFFCURVE",
"47 58 OFFCURVE",
"51 120 CURVE SMOOTH",
"61 236 OFFCURVE",
"159 303 OFFCURVE",
"239 304 CURVE SMOOTH",
"296 304 OFFCURVE",
"347 269 OFFCURVE",
"347 197 CURVE SMOOTH",
"347 -37 LINE SMOOTH",
"347 -118 OFFCURVE",
"286 -199 OFFCURVE",
"193 -199 CURVE SMOOTH",
"0 -199 LINE",
"0 -167 LINE",
"193 -167 LINE SMOOTH",
"266 -167 OFFCURVE",
"315 -104 OFFCURVE",
"315 -37 CURVE SMOOTH",
"315 197 LINE SMOOTH",
"315 250 OFFCURVE",
"283 272 OFFCURVE",
"240 272 CURVE SMOOTH",
"176 272 OFFCURVE",
"92 216 OFFCURVE",
"83 118 CURVE SMOOTH",
"81 76 OFFCURVE",
"119 32 OFFCURVE",
"171 32 CURVE SMOOTH",
"331 32 LINE",
"331 0 LINE"
);
}
);
width = 387;
},
{
anchors = (
{
name = dash;
position = "{390, -40}";
},
{
name = dotAbove;
position = "{323, 554}";
},
{
name = dotBelow;
position = "{259, -359}";
},
{
name = hamzaAbove;
position = "{323, 554}";
},
{
name = kafAbove;
position = "{323, 554}";
},
{
name = markAbove;
position = "{278, 602}";
},
{
name = markBelow;
position = "{259, -394}";
},
{
name = ringBelow;
position = "{259, -229}";
}
);
layerId = "42B3044F-4D5A-45CA-9EB7-C1889731596B";
paths = (
{
closed = 1;
nodes = (
"250 0 LINE SMOOTH",
"141 0 OFFCURVE",
"54 88 OFFCURVE",
"60 195 CURVE SMOOTH",
"74 353 OFFCURVE",
"204 444 OFFCURVE",
"319 444 CURVE SMOOTH",
"417 444 OFFCURVE",
"496 368 OFFCURVE",
"496 267 CURVE SMOOTH",
"496 3 LINE SMOOTH",
"496 -110 OFFCURVE",
"411 -229 OFFCURVE",
"272 -229 CURVE SMOOTH",
"79 -229 LINE",
"79 -57 LINE",
"272 -57 LINE SMOOTH",
"298 -57 OFFCURVE",
"324 -34 OFFCURVE",
"324 0 CURVE SMOOTH",
"324 267 LINE SMOOTH",
"324 274 OFFCURVE",
"321 273 OFFCURVE",
"315 272 CURVE",
"289 269 OFFCURVE",
"245 244 OFFCURVE",
"234 195 CURVE SMOOTH",
"231 184 OFFCURVE",
"233 172 OFFCURVE",
"250 172 CURVE SMOOTH",
"378 172 LINE",
"378 0 LINE"
);
}
);
width = 556;
}
);
unicode = 0648;
},
{
color = (255,0,255,255);
glyphname = "waw-ar.fina";
production = uni0648.fina;
layers = (
{
components = (
{
name = "waw-ar";
}
);
layerId = master01;
paths = (
{
closed = 1;
nodes = (
"497 0 LINE",
"349 0 LINE",
"349 79 LINE",
"497 79 LINE"
);
}
);
width = 482;
},
{
components = (
{
name = "waw-ar";
}
);
layerId = "0CAB57D4-4FC4-49C3-B456-FB7666EAA712";
paths = (
{
closed = 1;
nodes = (
"470 0 LINE",
"313 0 LINE",
"313 32 LINE",
"470 32 LINE"
);
}
);
width = 460;
},
{
components = (
{
name = "waw-ar";
}
);
layerId = "42B3044F-4D5A-45CA-9EB7-C1889731596B";
paths = (
{
closed = 1;
nodes = (
"579 0 LINE",
"414 0 LINE",
"414 172 LINE",
"579 172 LINE"
);
}
);
width = 559;
}
);
},
{
color = 0;
glyphname = "wawring-ar";
layers = (
{
layerId = master01;
paths = (
{
closed = 1;
nodes = (
"0 800 LINE",
"1000 800 LINE",
"1000 -200 LINE",
"0 -200 LINE"
);
}
);
width = 1000;
},
{
layerId = "0CAB57D4-4FC4-49C3-B456-FB7666EAA712";
paths = (
{
closed = 1;
nodes = (
"0 800 LINE",
"1000 800 LINE",
"1000 -200 LINE",
"0 -200 LINE"
);
}
);
width = 1000;
},
{
layerId = "42B3044F-4D5A-45CA-9EB7-C1889731596B";
paths = (
{
closed = 1;
nodes = (
"0 800 LINE",
"1000 800 LINE",
"1000 -200 LINE",
"0 -200 LINE"
);
}
);
width = 1000;
}
);
unicode = 06C4;
},
{
color = 0;
glyphname = "wawTwodots-ar";
layers = (
{
layerId = master01;
paths = (
{
closed = 1;
nodes = (
"0 800 LINE",
"1000 800 LINE",
"1000 -200 LINE",
"0 -200 LINE"
);
}
);
width = 1000;
},
{
layerId = "0CAB57D4-4FC4-49C3-B456-FB7666EAA712";
paths = (
{
closed = 1;
nodes = (
"0 800 LINE",
"1000 800 LINE",
"1000 -200 LINE",
"0 -200 LINE"
);
}
);
width = 1000;
},
{
layerId = "42B3044F-4D5A-45CA-9EB7-C1889731596B";
paths = (
{
closed = 1;
nodes = (
"0 800 LINE",
"1000 800 LINE",
"1000 -200 LINE",
"0 -200 LINE"
);
}
);
width = 1000;
}
);
unicode = 06CA;
},
{
color = 0;
glyphname = "wawDotabove-ar";
layers = (
{
layerId = master01;
paths = (
{
closed = 1;
nodes = (
"0 800 LINE",
"1000 800 LINE",
"1000 -200 LINE",
"0 -200 LINE"
);
}
);
width = 1000;
},
{
layerId = "0CAB57D4-4FC4-49C3-B456-FB7666EAA712";
paths = (
{
closed = 1;
nodes = (
"0 800 LINE",
"1000 800 LINE",
"1000 -200 LINE",
"0 -200 LINE"
);
}
);
width = 1000;
},
{
layerId = "42B3044F-4D5A-45CA-9EB7-C1889731596B";
paths = (
{
closed = 1;
nodes = (
"0 800 LINE",
"1000 800 LINE",
"1000 -200 LINE",
"0 -200 LINE"
);
}
);
width = 1000;
}
);
unicode = 06CF;
},
{
color = 0;
glyphname = "wawHamzaabove-ar";
layers = (
{
layerId = master01;
paths = (
{
closed = 1;
nodes = (
"0 800 LINE",
"1000 800 LINE",
"1000 -200 LINE",
"0 -200 LINE"
);
}
);
width = 1000;
},
{
layerId = "0CAB57D4-4FC4-49C3-B456-FB7666EAA712";
paths = (
{
closed = 1;
nodes = (
"0 800 LINE",
"1000 800 LINE",
"1000 -200 LINE",
"0 -200 LINE"
);
}
);
width = 1000;
},
{
layerId = "42B3044F-4D5A-45CA-9EB7-C1889731596B";
paths = (
{
closed = 1;
nodes = (
"0 800 LINE",
"1000 800 LINE",
"1000 -200 LINE",
"0 -200 LINE"
);
}
);
width = 1000;
}
);
unicode = 0624;
},
{
color = 0;
glyphname = "kirghizoe-ar";
layers = (
{
layerId = master01;
paths = (
{
closed = 1;
nodes = (
"0 800 LINE",
"1000 800 LINE",
"1000 -200 LINE",
"0 -200 LINE"
);
}
);
width = 1000;
},
{
layerId = "0CAB57D4-4FC4-49C3-B456-FB7666EAA712";
paths = (
{
closed = 1;
nodes = (
"0 800 LINE",
"1000 800 LINE",
"1000 -200 LINE",
"0 -200 LINE"
);
}
);
width = 1000;
},
{
layerId = "42B3044F-4D5A-45CA-9EB7-C1889731596B";
paths = (
{
closed = 1;
nodes = (
"0 800 LINE",
"1000 800 LINE",
"1000 -200 LINE",
"0 -200 LINE"
);
}
);
width = 1000;
}
);
unicode = 06C5;
},
{
color = 0;
glyphname = "oe-ar";
layers = (
{
layerId = master01;
paths = (
{
closed = 1;
nodes = (
"0 800 LINE",
"1000 800 LINE",
"1000 -200 LINE",
"0 -200 LINE"
);
}
);
width = 1000;
},
{
layerId = "0CAB57D4-4FC4-49C3-B456-FB7666EAA712";
paths = (
{
closed = 1;
nodes = (
"0 800 LINE",
"1000 800 LINE",
"1000 -200 LINE",
"0 -200 LINE"
);
}
);
width = 1000;
},
{
layerId = "42B3044F-4D5A-45CA-9EB7-C1889731596B";
paths = (
{
closed = 1;
nodes = (
"0 800 LINE",
"1000 800 LINE",
"1000 -200 LINE",
"0 -200 LINE"
);
}
);
width = 1000;
}
);
unicode = 06C6;
},
{
color = 0;
glyphname = "u-ar";
layers = (
{
layerId = master01;
paths = (
{
closed = 1;
nodes = (
"0 800 LINE",
"1000 800 LINE",
"1000 -200 LINE",
"0 -200 LINE"
);
}
);
width = 1000;
},
{
layerId = "0CAB57D4-4FC4-49C3-B456-FB7666EAA712";
paths = (
{
closed = 1;
nodes = (
"0 800 LINE",
"1000 800 LINE",
"1000 -200 LINE",
"0 -200 LINE"
);
}
);
width = 1000;
},
{
layerId = "42B3044F-4D5A-45CA-9EB7-C1889731596B";
paths = (
{
closed = 1;
nodes = (
"0 800 LINE",
"1000 800 LINE",
"1000 -200 LINE",
"0 -200 LINE"
);
}
);
width = 1000;
}
);
unicode = 06C7;
},
{
color = 0;
glyphname = "yu-ar";
layers = (
{
layerId = master01;
paths = (
{
closed = 1;
nodes = (
"0 800 LINE",
"1000 800 LINE",
"1000 -200 LINE",
"0 -200 LINE"
);
}
);
width = 1000;
},
{
layerId = "0CAB57D4-4FC4-49C3-B456-FB7666EAA712";
paths = (
{
closed = 1;
nodes = (
"0 800 LINE",
"1000 800 LINE",
"1000 -200 LINE",
"0 -200 LINE"
);
}
);
width = 1000;
},
{
layerId = "42B3044F-4D5A-45CA-9EB7-C1889731596B";
paths = (
{
closed = 1;
nodes = (
"0 800 LINE",
"1000 800 LINE",
"1000 -200 LINE",
"0 -200 LINE"
);
}
);
width = 1000;
}
);
unicode = 06C8;
},
{
color = 0;
glyphname = "kirghizyu-ar";
layers = (
{
layerId = master01;
paths = (
{
closed = 1;
nodes = (
"0 800 LINE",
"1000 800 LINE",
"1000 -200 LINE",
"0 -200 LINE"
);
}
);
width = 1000;
},
{
layerId = "0CAB57D4-4FC4-49C3-B456-FB7666EAA712";
paths = (
{
closed = 1;
nodes = (
"0 800 LINE",
"1000 800 LINE",
"1000 -200 LINE",
"0 -200 LINE"
);
}
);
width = 1000;
},
{
layerId = "42B3044F-4D5A-45CA-9EB7-C1889731596B";
paths = (
{
closed = 1;
nodes = (
"0 800 LINE",
"1000 800 LINE",
"1000 -200 LINE",
"0 -200 LINE"
);
}
);
width = 1000;
}
);
unicode = 06C9;
},
{
color = 0;
glyphname = "ve-ar";
layers = (
{
layerId = master01;
paths = (
{
closed = 1;
nodes = (
"0 800 LINE",
"1000 800 LINE",
"1000 -200 LINE",
"0 -200 LINE"
);
}
);
width = 1000;
},
{
layerId = "0CAB57D4-4FC4-49C3-B456-FB7666EAA712";
paths = (
{
closed = 1;
nodes = (
"0 800 LINE",
"1000 800 LINE",
"1000 -200 LINE",
"0 -200 LINE"
);
}
);
width = 1000;
},
{
layerId = "42B3044F-4D5A-45CA-9EB7-C1889731596B";
paths = (
{
closed = 1;
nodes = (
"0 800 LINE",
"1000 800 LINE",
"1000 -200 LINE",
"0 -200 LINE"
);
}
);
width = 1000;
}
);
unicode = 06CB;
},
{
glyphname = "alefMaksura-ar";
layers = (
{
anchors = (
{
name = dotAbove;
position = "{236, 336}";
},
{
name = dotBelow;
position = "{308, -190}";
},
{
name = hamzaAbove;
position = "{236, 336}";
},
{
name = hamzaBelow;
position = "{308, -190}";
},
{
name = kafAbove;
position = "{236, 336}";
},
{
name = markAbove;
position = "{236, 373}";
},
{
name = markBelow;
position = "{308, -217}";
},
{
name = ringBelow;
position = "{308, -100}";
},
{
name = tailAbove;
position = "{62, 187}";
}
);
layerId = master01;
paths = (
{
closed = 1;
nodes = (
"553 174 LINE",
"394 174 LINE",
"394.7 178.2 OFFCURVE",
"395.3 181.8 OFFCURVE",
"396 186 CURVE",
"530 25 LINE SMOOTH",
"576.769 -31.193 OFFCURVE",
"523 -100 OFFCURVE",
"456 -100 CURVE SMOOTH",
"226 -100 LINE SMOOTH",
"152 -100 OFFCURVE",
"46 -57 OFFCURVE",
"46 64 CURVE SMOOTH",
"46 247 LINE",
"125 247 LINE",
"125 64 LINE SMOOTH",
"125 2 OFFCURVE",
"175 -22 OFFCURVE",
"233 -22 CURVE SMOOTH",
"476 -22 LINE",
"476.35 -26.2 OFFCURVE",
"476.65 -29.8 OFFCURVE",
"477 -34 CURVE",
"358 110 LINE SMOOTH",
"305.066 174.055 OFFCURVE",
"347 251 OFFCURVE",
"426 252 CURVE SMOOTH",
"553 252 LINE"
);
}
);
width = 600;
},
{
anchors = (
{
name = dotAbove;
position = "{207, 342}";
},
{
name = dotBelow;
position = "{279, -184}";
},
{
name = hamzaAbove;
position = "{207, 342}";
},
{
name = hamzaBelow;
position = "{279, -184}";
},
{
name = kafAbove;
position = "{207, 342}";
},
{
name = markAbove;
position = "{207, 379}";
},
{
name = markBelow;
position = "{279, -204}";
},
{
name = ringBelow;
position = "{279, -94}";
},
{
name = tailAbove;
position = "{43, 174}";
}
);
layerId = "0CAB57D4-4FC4-49C3-B456-FB7666EAA712";
paths = (
{
closed = 1;
nodes = (
"504 180 LINE",
"396 180 LINE SMOOTH",
"366.128 182.766 OFFCURVE",
"345.828 160.655 OFFCURVE",
"371 128 CURVE SMOOTH",
"482 -6 LINE SMOOTH",
"513.284 -43.766 OFFCURVE",
"480.949 -91.654 OFFCURVE",
"427 -94 CURVE SMOOTH",
"197 -94 LINE SMOOTH",
"129 -94 OFFCURVE",
"40 -56 OFFCURVE",
"40 47 CURVE SMOOTH",
"40 209 LINE",
"72 209 LINE",
"72 47 LINE SMOOTH",
"72 -32 OFFCURVE",
"137.057 -59.394 OFFCURVE",
"197 -62 CURVE SMOOTH",
"427 -62 LINE SMOOTH",
"459 -62 OFFCURVE",
"470.812 -40.313 OFFCURVE",
"458 -26 CURVE SMOOTH",
"347 108 LINE SMOOTH",
"303.956 159.963 OFFCURVE",
"341 212 OFFCURVE",
"396 212 CURVE SMOOTH",
"504 212 LINE"
);
}
);
width = 544;
},
{
anchors = (
{
name = dotAbove;
position = "{277, 400}";
},
{
name = dotBelow;
position = "{399, -296}";
},
{
name = hamzaAbove;
position = "{277, 400}";
},
{
name = hamzaBelow;
position = "{399, -296}";
},
{
name = kafAbove;
position = "{277, 400}";
},
{
name = markAbove;
position = "{277, 444}";
},
{
name = markBelow;
position = "{399, -331}";
},
{
name = ringBelow;
position = "{399, -144}";
},
{
name = tailAbove;
position = "{104, 131}";
}
);
layerId = "42B3044F-4D5A-45CA-9EB7-C1889731596B";
paths = (
{
closed = 1;
nodes = (
"654 130 LINE",
"546 130 LINE",
"548.45 135.95 OFFCURVE",
"550.55 141.05 OFFCURVE",
"553 147 CURVE",
"624 61 LINE SMOOTH",
"699.076 -29.937 OFFCURVE",
"626.896 -139.222 OFFCURVE",
"517 -144 CURVE SMOOTH",
"287 -144 LINE SMOOTH",
"200 -144 OFFCURVE",
"60 -89 OFFCURVE",
"60 67 CURVE SMOOTH",
"60 293 LINE",
"232 293 LINE",
"232 67 LINE SMOOTH",
"232 41 OFFCURVE",
"246.075 30.48 OFFCURVE",
"287 28 CURVE SMOOTH",
"452 28 LINE",
"447.1 23.8 OFFCURVE",
"442.9 20.2 OFFCURVE",
"438 16 CURVE",
"383 83 LINE SMOOTH",
"301.839 181.868 OFFCURVE",
"371.203 308.833 OFFCURVE",
"486 302 CURVE SMOOTH",
"654 302 LINE"
);
}
);
width = 714;
}
);
unicode = 0649;
},
{
color = 0;
glyphname = "yeh-ar";
layers = (
{
layerId = master01;
paths = (
{
closed = 1;
nodes = (
"0 800 LINE",
"1000 800 LINE",
"1000 -200 LINE",
"0 -200 LINE"
);
}
);
width = 1000;
},
{
layerId = "0CAB57D4-4FC4-49C3-B456-FB7666EAA712";
paths = (
{
closed = 1;
nodes = (
"0 800 LINE",
"1000 800 LINE",
"1000 -200 LINE",
"0 -200 LINE"
);
}
);
width = 1000;
},
{
layerId = "42B3044F-4D5A-45CA-9EB7-C1889731596B";
paths = (
{
closed = 1;
nodes = (
"0 800 LINE",
"1000 800 LINE",
"1000 -200 LINE",
"0 -200 LINE"
);
}
);
width = 1000;
}
);
unicode = 064A;
},
{
color = 0;
glyphname = "yehHamzaabove-ar";
layers = (
{
layerId = master01;
paths = (
{
closed = 1;
nodes = (
"0 800 LINE",
"1000 800 LINE",
"1000 -200 LINE",
"0 -200 LINE"
);
}
);
width = 1000;
},
{
layerId = "0CAB57D4-4FC4-49C3-B456-FB7666EAA712";
paths = (
{
closed = 1;
nodes = (
"0 800 LINE",
"1000 800 LINE",
"1000 -200 LINE",
"0 -200 LINE"
);
}
);
width = 1000;
},
{
layerId = "42B3044F-4D5A-45CA-9EB7-C1889731596B";
paths = (
{
closed = 1;
nodes = (
"0 800 LINE",
"1000 800 LINE",
"1000 -200 LINE",
"0 -200 LINE"
);
}
);
width = 1000;
}
);
unicode = 0626;
},
{
color = 0;
glyphname = "yehVabove-ar";
layers = (
{
layerId = master01;
paths = (
{
closed = 1;
nodes = (
"0 800 LINE",
"1000 800 LINE",
"1000 -200 LINE",
"0 -200 LINE"
);
}
);
width = 1000;
},
{
layerId = "0CAB57D4-4FC4-49C3-B456-FB7666EAA712";
paths = (
{
closed = 1;
nodes = (
"0 800 LINE",
"1000 800 LINE",
"1000 -200 LINE",
"0 -200 LINE"
);
}
);
width = 1000;
},
{
layerId = "42B3044F-4D5A-45CA-9EB7-C1889731596B";
paths = (
{
closed = 1;
nodes = (
"0 800 LINE",
"1000 800 LINE",
"1000 -200 LINE",
"0 -200 LINE"
);
}
);
width = 1000;
}
);
unicode = 06CE;
},
{
color = 0;
glyphname = "yehVinverted-farsi";
layers = (
{
layerId = master01;
paths = (
{
closed = 1;
nodes = (
"0 800 LINE",
"1000 800 LINE",
"1000 -200 LINE",
"0 -200 LINE"
);
}
);
width = 1000;
},
{
layerId = "0CAB57D4-4FC4-49C3-B456-FB7666EAA712";
paths = (
{
closed = 1;
nodes = (
"0 800 LINE",
"1000 800 LINE",
"1000 -200 LINE",
"0 -200 LINE"
);
}
);
width = 1000;
},
{
layerId = "42B3044F-4D5A-45CA-9EB7-C1889731596B";
paths = (
{
closed = 1;
nodes = (
"0 800 LINE",
"1000 800 LINE",
"1000 -200 LINE",
"0 -200 LINE"
);
}
);
width = 1000;
}
);
unicode = 063D;
},
{
color = 0;
glyphname = "yeh-farsi";
layers = (
{
layerId = master01;
paths = (
{
closed = 1;
nodes = (
"0 800 LINE",
"1000 800 LINE",
"1000 -200 LINE",
"0 -200 LINE"
);
}
);
width = 1000;
},
{
layerId = "0CAB57D4-4FC4-49C3-B456-FB7666EAA712";
paths = (
{
closed = 1;
nodes = (
"0 800 LINE",
"1000 800 LINE",
"1000 -200 LINE",
"0 -200 LINE"
);
}
);
width = 1000;
},
{
layerId = "42B3044F-4D5A-45CA-9EB7-C1889731596B";
paths = (
{
closed = 1;
nodes = (
"0 800 LINE",
"1000 800 LINE",
"1000 -200 LINE",
"0 -200 LINE"
);
}
);
width = 1000;
}
);
unicode = 06CC;
},
{
color = 0;
glyphname = "yehTwodotsabove-farsi";
layers = (
{
layerId = master01;
paths = (
{
closed = 1;
nodes = (
"0 800 LINE",
"1000 800 LINE",
"1000 -200 LINE",
"0 -200 LINE"
);
}
);
width = 1000;
},
{
layerId = "0CAB57D4-4FC4-49C3-B456-FB7666EAA712";
paths = (
{
closed = 1;
nodes = (
"0 800 LINE",
"1000 800 LINE",
"1000 -200 LINE",
"0 -200 LINE"
);
}
);
width = 1000;
},
{
layerId = "42B3044F-4D5A-45CA-9EB7-C1889731596B";
paths = (
{
closed = 1;
nodes = (
"0 800 LINE",
"1000 800 LINE",
"1000 -200 LINE",
"0 -200 LINE"
);
}
);
width = 1000;
}
);
unicode = 063E;
},
{
color = 0;
glyphname = "yehThreedotsabove-farsi";
layers = (
{
layerId = master01;
paths = (
{
closed = 1;
nodes = (
"0 800 LINE",
"1000 800 LINE",
"1000 -200 LINE",
"0 -200 LINE"
);
}
);
width = 1000;
},
{
layerId = "0CAB57D4-4FC4-49C3-B456-FB7666EAA712";
paths = (
{
closed = 1;
nodes = (
"0 800 LINE",
"1000 800 LINE",
"1000 -200 LINE",
"0 -200 LINE"
);
}
);
width = 1000;
},
{
layerId = "42B3044F-4D5A-45CA-9EB7-C1889731596B";
paths = (
{
closed = 1;
nodes = (
"0 800 LINE",
"1000 800 LINE",
"1000 -200 LINE",
"0 -200 LINE"
);
}
);
width = 1000;
}
);
unicode = 063F;
},
